<svg width="32" height="32" viewBox="0 0 32 32" fill="none" xmlns="http://www.w3.org/2000/svg">
<path d="M0 16C0 7.16344 7.16344 0 16 0C24.8366 0 32 7.16344 32 16C32 24.8366 24.8366 32 16 32C7.16344 32 0 24.8366 0 16Z" fill="#F9F5FF"/>
<path fill-rule="evenodd" clip-rule="evenodd" d="M22.7952 9.85334L13.2485 19.0667L10.7152 16.36C10.2485 15.92 9.51522 15.8933 8.98188 16.2667C8.46188 16.6533 8.31522 17.3333 8.63522 17.88L11.6352 22.76C11.9285 23.2133 12.4352 23.4933 13.0085 23.4933C13.5552 23.4933 14.0752 23.2133 14.3685 22.76C14.8486 22.1333 24.0086 11.2133 24.0086 11.2133C25.2086 9.98668 23.7552 8.90668 22.7952 9.84001V9.85334Z" fill="#2CA1CA"/>
<rect x="1" y="1" width="30" height="30" rx="15" stroke="#2CA1CA" stroke-width="2"/>
</svg>
