<svg width="28" height="28" viewBox="0 0 28 28" fill="none" xmlns="http://www.w3.org/2000/svg">
<path d="M14.0003 0.666687C11.3632 0.666687 8.78538 1.44867 6.59273 2.91376C4.40007 4.37884 2.69111 6.46123 1.68194 8.89757C0.672769 11.3339 0.408725 14.0148 0.923194 16.6012C1.43766 19.1876 2.70754 21.5634 4.57224 23.4281C6.43694 25.2928 8.81271 26.5627 11.3991 27.0772C13.9855 27.5916 16.6664 27.3276 19.1028 26.3184C21.5391 25.3092 23.6215 23.6003 25.0866 21.4076C26.5517 19.215 27.3337 16.6371 27.3337 14C27.3337 10.4638 25.9289 7.07241 23.4284 4.57193C20.9279 2.07145 17.5366 0.666687 14.0003 0.666687ZM13.817 22.2084C13.545 22.2084 13.2792 22.1277 13.0531 21.9766C12.827 21.8255 12.6507 21.6108 12.5467 21.3595C12.4426 21.1083 12.4154 20.8318 12.4684 20.5651C12.5215 20.2984 12.6524 20.0534 12.8447 19.8611C13.037 19.6688 13.282 19.5378 13.5487 19.4848C13.8155 19.4317 14.0919 19.4589 14.3432 19.563C14.5944 19.6671 14.8092 19.8433 14.9603 20.0694C15.1114 20.2956 15.192 20.5614 15.192 20.8334C15.192 21.198 15.0471 21.5478 14.7893 21.8056C14.5314 22.0635 14.1817 22.2084 13.817 22.2084ZM14.9587 15.4917V16.925C14.9569 17.2165 14.8437 17.4963 14.6423 17.707C14.4409 17.9178 14.1665 18.0435 13.8753 18.0584H13.7837C13.6363 18.0639 13.4893 18.0402 13.3512 17.9887C13.213 17.9372 13.0865 17.8588 12.9788 17.758C12.8711 17.6573 12.7844 17.5363 12.7237 17.4019C12.6631 17.2675 12.6296 17.1224 12.6253 16.975C12.6253 16.6084 12.6253 14.675 12.6253 14.675C12.6116 14.5414 12.6251 14.4064 12.6651 14.2782C12.7051 14.15 12.7708 14.0313 12.8581 13.9292C12.9453 13.8271 13.0524 13.7438 13.1729 13.6844C13.2933 13.6249 13.4246 13.5905 13.5587 13.5834C14.867 13.4834 17.042 13 17.042 10.875C17.042 9.35002 15.867 8.31669 14.1837 8.31669C13.5455 8.32722 12.9172 8.47567 12.3419 8.75184C11.7665 9.02802 11.2577 9.42539 10.8503 9.91669C10.6963 10.0804 10.497 10.1946 10.2779 10.2447C10.0587 10.2949 9.82962 10.2787 9.61968 10.1983C9.40975 10.1179 9.22847 9.97692 9.09889 9.79322C8.96932 9.60951 8.8973 9.39143 8.892 9.16669C8.89691 8.85253 9.0257 8.55303 9.25033 8.33335C9.86919 7.61689 10.6376 7.04485 11.5015 6.65755C12.3654 6.27024 13.3037 6.07708 14.2503 6.09169C17.3337 6.09169 19.4837 8.00835 19.4837 10.7584C19.4837 13.3 17.842 15 14.9587 15.4917Z" fill="white"/>
</svg>
