<svg width="36" height="36" viewBox="0 0 30 30" fill="none" xmlns="http://www.w3.org/2000/svg">
<path d="M28.6417 1.34987C25.7776 -1.21439 22.638 0.456358 21.7568 1.60691L19.6515 4.0916L2.4973 2.17606C2.3443 2.14546 2.07502 2.1883 1.98935 2.30458L0.202323 4.0916C-0.0791938 4.34864 -0.0853137 4.90555 0.330842 5.11363L12.8278 11.613L8.87428 16.2642L2.11174 15.3094C1.92203 15.3094 1.73231 15.3706 1.60379 15.4992L0.453241 16.6436C0.128884 16.9863 0.220683 17.4637 0.58176 17.6656L6.00403 20.34C5.87551 21.2947 6.19374 22.3168 6.95874 23.0818C7.66253 23.8468 8.67844 24.165 9.70047 24.0365L12.381 29.4526C12.6074 29.9912 13.146 29.8382 13.403 29.5811L14.5536 28.4367C14.6821 28.3082 14.7433 28.1185 14.7433 27.9288L13.7886 21.1723L18.4397 17.225L24.884 29.6546C25.1288 30.0707 25.5634 30.1075 25.9061 29.7831L27.6931 27.9961C27.8216 27.8676 27.8828 27.6778 27.8828 27.4881L25.9673 10.3401L28.3846 8.1736C29.5291 7.38413 31.2243 4.00592 28.6417 1.34987ZM27.5523 7.08425L24.8718 9.50775C24.7433 9.70358 24.6821 9.8933 24.6821 10.083L26.5976 27.2311L25.6429 28.1858L19.2047 15.8847C18.9599 15.493 18.5071 15.5053 18.1766 15.7501L12.6258 20.4012C12.4973 20.5298 12.4361 20.7868 12.4361 20.9765L13.3908 27.7329L13.0726 28.0512L10.5879 23.0145C10.4593 22.7574 10.1411 22.635 9.82287 22.6962C9.1252 22.892 8.29288 22.6962 7.78493 22.1883C7.21577 21.6191 7.01994 20.8541 7.27697 20.1503C7.40549 19.8321 7.21577 19.5138 6.95874 19.3853L1.92203 16.9006L2.24026 16.5824L8.99668 17.5371C9.18639 17.6044 9.44343 17.5371 9.57195 17.3474L14.2292 11.8027C14.3577 11.6742 14.4679 11.1234 14.0395 10.848L1.73231 4.40984L2.62582 3.19809L19.7678 5.10751C20.0248 5.17483 20.2145 5.04631 20.343 4.91779L22.7665 2.24338C23.2806 1.54571 25.6307 0.150361 27.7421 2.11486C29.884 4.10384 28.1582 6.76601 27.5523 7.08425Z" fill="#FFAB00"/>
</svg>
