<svg width="15" height="15" viewBox="0 0 15 15" fill="none" xmlns="http://www.w3.org/2000/svg">
<path d="M14.3204 0.67495C12.8883 -0.607177 11.3185 0.228194 10.8779 0.803469L9.82526 2.04582L1.24816 1.08805C1.17166 1.07275 1.03702 1.09417 0.994185 1.15231L0.100673 2.04582C-0.0400852 2.17433 -0.0431451 2.45279 0.164933 2.55683L6.41339 5.80652L4.43665 8.13209L1.05538 7.65474C0.960525 7.65474 0.865666 7.68534 0.801407 7.7496L0.226132 8.32181C0.0639538 8.49317 0.109853 8.73185 0.290392 8.83283L3.00152 10.17C2.93727 10.6474 3.09638 11.1584 3.47888 11.5409C3.83078 11.9234 4.33873 12.0825 4.84975 12.0183L6.19001 14.7263C6.30323 14.9956 6.57251 14.9191 6.70103 14.7906L7.2763 14.2184C7.34056 14.1541 7.37116 14.0593 7.37116 13.9644L6.89381 10.5862L9.21938 8.61251L12.4415 14.8273C12.5639 15.0354 12.7812 15.0537 12.9525 14.8916L13.8461 13.9981C13.9103 13.9338 13.9409 13.8389 13.9409 13.7441L12.9831 5.17004L14.1918 4.08682C14.764 3.69208 15.6117 2.00298 14.3204 0.67495ZM13.7757 3.54214L12.4354 4.75389C12.3712 4.85181 12.3406 4.94667 12.3406 5.04153L13.2983 13.6156L12.821 14.0929L9.60188 7.94238C9.47948 7.74654 9.25304 7.75266 9.0878 7.87506L6.31241 10.2006C6.24815 10.2649 6.21755 10.3934 6.21755 10.4883L6.69491 13.8665L6.53579 14.0256L5.29344 11.5072C5.22918 11.3787 5.07006 11.3175 4.91095 11.3481C4.56211 11.446 4.14595 11.3481 3.89198 11.0941C3.6074 10.8096 3.50948 10.4271 3.638 10.0752C3.70226 9.91606 3.6074 9.75694 3.47888 9.69268L0.960525 8.45033L1.11964 8.29121L4.49785 8.76857C4.59271 8.80223 4.72123 8.76857 4.78549 8.67371L7.11412 5.90138C7.17838 5.83712 7.23346 5.56172 7.01927 5.42402L0.865666 2.20493L1.31242 1.59906L9.8834 2.55377C10.0119 2.58743 10.1068 2.52317 10.171 2.45891L11.3828 1.12171C11.6398 0.772869 12.8148 0.0751958 13.8705 1.05745C14.9415 2.05194 14.0786 3.38302 13.7757 3.54214Z" fill="#979797"/>
</svg>
