<svg width="12" height="20" viewBox="0 0 12 20" fill="none" xmlns="http://www.w3.org/2000/svg">
<path d="M10.8206 0H1.17941C0.529045 0 0 0.568006 0 1.26621V18.7338C0 19.4319 0.529085 20 1.17945 20H10.8206C11.4709 20 12 19.432 12 18.7338V1.26621C12 0.568006 11.4709 0 10.8206 0ZM0.591024 3.18249H11.409V16.4092H0.591024V3.18249ZM1.17941 0.634502H10.8206C11.145 0.634502 11.409 0.91787 11.409 1.26621V2.75949H0.591024V1.26621C0.591024 0.91787 0.854976 0.634502 1.17941 0.634502ZM10.8206 19.3655H1.17941C0.854976 19.3655 0.590985 19.0821 0.590985 18.7337V16.8321H11.4089V18.7337C11.4089 19.0821 11.145 19.3655 10.8206 19.3655Z" fill="#979797"/>
<path d="M2.59188 1.41849H5.80705C5.93764 1.41849 6.04346 1.30484 6.04346 1.16469C6.04346 1.02454 5.93764 0.910889 5.80705 0.910889H2.59188C2.46129 0.910889 2.35547 1.02454 2.35547 1.16469C2.35547 1.30484 2.46129 1.41849 2.59188 1.41849Z" fill="#979797"/>
<path d="M1.74129 1.41849C1.80323 1.41849 1.86423 1.39159 1.9082 1.34438C1.95217 1.29667 1.9777 1.23169 1.9777 1.16469C1.9777 1.09769 1.95217 1.03271 1.9082 0.984998C1.86418 0.937791 1.80319 0.910889 1.74129 0.910889C1.67888 0.910889 1.61831 0.937791 1.57391 0.984998C1.52994 1.03221 1.50488 1.09769 1.50488 1.16469C1.50488 1.23169 1.52994 1.29667 1.57391 1.34438C1.61789 1.39159 1.67888 1.41849 1.74129 1.41849Z" fill="#979797"/>
</svg>
