<svg width="28" height="46" viewBox="0 0 22 36" fill="none" xmlns="http://www.w3.org/2000/svg">
<path d="M19.8377 0H2.16225C0.969917 0 0 1.00352 0 2.23707V33.0978C0 34.3313 0.969989 35.3349 2.16232 35.3349H19.8377C21.03 35.3349 22 34.3314 22 33.0978V2.23707C21.9999 1.00352 21.03 0 19.8377 0ZM1.08354 5.62265H20.9165V28.9908H1.08354V5.62265ZM2.16225 1.121H19.8377C20.4325 1.121 20.9165 1.62164 20.9165 2.23707V4.87532H1.08354V2.23707C1.08354 1.62164 1.56746 1.121 2.16225 1.121ZM19.8377 34.2138H2.16225C1.56746 34.2138 1.08347 33.7132 1.08347 33.0978V29.7381H20.9164V33.0978C20.9164 33.7132 20.4325 34.2138 19.8377 34.2138Z" fill="#FFAB00"/>
<path d="M4.75373 2.50607H10.6482C10.8876 2.50607 11.0816 2.30528 11.0816 2.05767C11.0816 1.81006 10.8876 1.60927 10.6482 1.60927H4.75373C4.51431 1.60927 4.32031 1.81006 4.32031 2.05767C4.32031 2.30528 4.51431 2.50607 4.75373 2.50607Z" fill="#FFAB00"/>
<path d="M3.19123 2.50607C3.30479 2.50607 3.41661 2.45854 3.49722 2.37514C3.57784 2.29084 3.62465 2.17605 3.62465 2.05767C3.62465 1.93929 3.57784 1.8245 3.49722 1.7402C3.41652 1.6568 3.3047 1.60927 3.19123 1.60927C3.07681 1.60927 2.96577 1.6568 2.88437 1.7402C2.80376 1.8236 2.75781 1.93929 2.75781 2.05767C2.75781 2.17605 2.80376 2.29084 2.88437 2.37514C2.96499 2.45854 3.07681 2.50607 3.19123 2.50607Z" fill="#FFAB00"/>
</svg>
