<svg width="18" height="18" viewBox="0 0 18 18" fill="none" xmlns="http://www.w3.org/2000/svg">
<path d="M1.16113 9.29035H8.70952V5.22583H1.16113V9.29035ZM1.74178 5.80648H8.12887V8.7097H1.74178V5.80648Z" fill="#979797"/>
<path d="M1.74219 11.9033H3.48412V10.1614H1.74219V11.9033ZM2.32283 10.742H2.90348V11.3227H2.32283V10.742Z" fill="#979797"/>
<path d="M4.06445 11.9033H5.80639V10.1614H4.06445V11.9033ZM4.6451 10.742H5.22574V11.3227H4.6451V10.742Z" fill="#979797"/>
<path d="M6.38672 11.9033H8.12865V10.1614H6.38672V11.9033ZM6.96736 10.742H7.54801V11.3227H6.96736V10.742Z" fill="#979797"/>
<path d="M1.74219 14.2258H3.48412V12.4839H1.74219V14.2258ZM2.32283 13.0645H2.90348V13.6452H2.32283V13.0645Z" fill="#979797"/>
<path d="M4.06445 14.2258H5.80639V12.4839H4.06445V14.2258ZM4.6451 13.0645H5.22574V13.6452H4.6451V13.0645Z" fill="#979797"/>
<path d="M6.38672 14.2258H8.12865V12.4839H6.38672V14.2258ZM6.96736 13.0645H7.54801V13.6452H6.96736V13.0645Z" fill="#979797"/>
<path d="M1.74219 16.5483H3.48412V14.8064H1.74219V16.5483ZM2.32283 15.387H2.90348V15.9677H2.32283V15.387Z" fill="#979797"/>
<path d="M4.06445 16.5483H5.80639V14.8064H4.06445V16.5483ZM4.6451 15.387H5.22574V15.9677H4.6451V15.387Z" fill="#979797"/>
<path d="M6.38672 16.5483H8.12865V14.8064H6.38672V16.5483ZM6.96736 15.387H7.54801V15.9677H6.96736V15.387Z" fill="#979797"/>
<path d="M7.54842 7.54834H6.96777V8.12898H7.54842V7.54834Z" fill="#979797"/>
<path d="M6.38744 7.54834H4.64551V8.12898H6.38744V7.54834Z" fill="#979797"/>
<path d="M6.96784 1.74194H2.90332V2.32259H6.96784V1.74194Z" fill="#979797"/>
<path d="M6.96736 2.90332H6.38672V3.48397H6.96736V2.90332Z" fill="#979797"/>
<path d="M14.5161 5.37997V4.06452C14.5161 3.58432 14.1254 3.19355 13.6452 3.19355H9.87097V2.90323C9.87097 2.26277 9.35013 1.74194 8.70968 1.74194H8.12903V0H1.74194V1.74194H1.16129C0.520839 1.74194 0 2.26277 0 2.90323L0.00145161 11.9323L0.503419 16.9545C0.562935 17.5503 1.05997 18 1.65919 18H8.21177C8.81071 18 9.30774 17.5503 9.36726 16.9543L9.78416 12.7742H11.4056C11.3516 13.0921 11.3226 13.4138 11.3226 13.736C11.3226 14.8738 11.6562 15.9756 12.2873 16.9223L12.4839 17.217V18H13.0645V17.0411L12.7704 16.5998C12.2031 15.7491 11.9032 14.7585 11.9032 13.736C11.9032 13.3145 11.9552 12.8932 12.0571 12.4836L12.4749 10.8125L12.4839 8.18332C12.4839 7.8329 12.7684 7.54839 13.1185 7.54839C13.4382 7.54839 13.7087 7.78732 13.7485 8.10435L14.2598 12.1935H15.0663L15.3961 9.225L14.5161 7.75829V6.13626L17.4194 8.55552V11.2851L15.9773 16.7647L15.9677 18H16.5484V16.8762L17.9904 11.3966L18 8.28319L14.5161 5.37997ZM2.32258 0.580645H2.90323V1.16129H3.48387V0.580645H4.06452V1.16129H4.64516V0.580645H5.22581V1.16129H5.80645V0.580645H6.3871V1.16129H6.96774V0.580645H7.54839V4.06452H2.32258V0.580645ZM8.78952 16.8965C8.7599 17.1946 8.51139 17.4194 8.21177 17.4194H1.65919C1.35958 17.4194 1.11106 17.1946 1.08145 16.8965L0.580645 11.9032V2.90323C0.580645 2.58329 0.841064 2.32258 1.16129 2.32258H1.74194V4.06452H1.16129V4.64516H8.70968V4.06452H8.12903V2.32258H8.70968C9.02961 2.32258 9.29032 2.58329 9.29032 2.90323L9.29177 11.8742L8.78952 16.8965ZM13.9355 7.28797C13.718 7.08968 13.4315 6.96774 13.1185 6.96774C12.4485 6.96774 11.9032 7.51297 11.9032 8.18332V10.7062L11.531 12.1935H9.84194L9.87097 11.9032V5.51613V3.77419H13.6452C13.8054 3.77419 13.9355 3.90426 13.9355 4.06452V7.28797ZM14.7975 9.35564L14.6529 10.6566L14.5161 9.56381V8.88706L14.7975 9.35564Z" fill="#979797"/>
<path d="M11.0324 6.67732C11.2371 6.67732 11.4371 6.62216 11.613 6.5188C11.789 6.62216 11.989 6.67732 12.1937 6.67732C12.8341 6.67732 13.355 6.15648 13.355 5.51603C13.355 4.87558 12.8341 4.35474 12.1937 4.35474C11.989 4.35474 11.789 4.4099 11.613 4.51325C11.4371 4.4099 11.2371 4.35474 11.0324 4.35474C10.3919 4.35474 9.87109 4.87558 9.87109 5.51603C9.87109 6.15648 10.3919 6.67732 11.0324 6.67732ZM11.0324 4.93538C11.1732 4.93538 11.3102 4.98909 11.4188 5.08664L11.613 5.2617L11.8073 5.08664C11.9158 4.98909 12.0529 4.93538 12.1937 4.93538C12.5136 4.93538 12.7743 5.1958 12.7743 5.51603C12.7743 5.83625 12.5136 6.09667 12.1937 6.09667C12.0529 6.09667 11.9158 6.04296 11.8073 5.94541L11.613 5.77035L11.4188 5.94541C11.3102 6.04296 11.1732 6.09667 11.0324 6.09667C10.7122 6.09667 10.4517 5.83625 10.4517 5.51603C10.4517 5.1958 10.7122 4.93538 11.0324 4.93538Z" fill="#979797"/>
<path d="M11.0318 7.25806H10.4512V10.4516H11.0318V7.25806Z" fill="#979797"/>
<path d="M11.0318 11.0322H10.4512V11.6129H11.0318V11.0322Z" fill="#979797"/>
</svg>
