<svg width="36" height="36" viewBox="0 0 30 31" fill="none" xmlns="http://www.w3.org/2000/svg">
<path d="M1.93555 15.9263H14.5162V8.95853H1.93555V15.9263ZM2.90329 9.95392H13.5484V14.9309H2.90329V9.95392Z" fill="#FFAB00"/>
<path d="M2.90332 20.4055H5.80655V17.4194H2.90332V20.4055ZM3.87106 18.4147H4.8388V19.4101H3.87106V18.4147Z" fill="#FFAB00"/>
<path d="M6.77441 20.4055H9.67764V17.4194H6.77441V20.4055ZM7.74216 18.4147H8.7099V19.4101H7.74216V18.4147Z" fill="#FFAB00"/>
<path d="M10.6455 20.4055H13.5487V17.4194H10.6455V20.4055ZM11.6132 18.4147H12.581V19.4101H11.6132V18.4147Z" fill="#FFAB00"/>
<path d="M2.90332 24.3871H5.80655V21.4009H2.90332V24.3871ZM3.87106 22.3963H4.8388V23.3917H3.87106V22.3963Z" fill="#FFAB00"/>
<path d="M6.77441 24.3871H9.67764V21.4009H6.77441V24.3871ZM7.74216 22.3963H8.7099V23.3917H7.74216V22.3963Z" fill="#FFAB00"/>
<path d="M10.6455 24.3871H13.5487V21.4009H10.6455V24.3871ZM11.6132 22.3963H12.581V23.3917H11.6132V22.3963Z" fill="#FFAB00"/>
<path d="M2.90332 28.3687H5.80655V25.3825H2.90332V28.3687ZM3.87106 26.3779H4.8388V27.3733H3.87106V26.3779Z" fill="#FFAB00"/>
<path d="M6.77441 28.3687H9.67764V25.3825H6.77441V28.3687ZM7.74216 26.3779H8.7099V27.3733H7.74216V26.3779Z" fill="#FFAB00"/>
<path d="M10.6455 28.3687H13.5487V25.3825H10.6455V28.3687ZM11.6132 26.3779H12.581V27.3733H11.6132V26.3779Z" fill="#FFAB00"/>
<path d="M12.581 12.9401H11.6133V13.9355H12.581V12.9401Z" fill="#FFAB00"/>
<path d="M10.6454 12.9401H7.74219V13.9355H10.6454V12.9401Z" fill="#FFAB00"/>
<path d="M11.6131 2.98618H4.83887V3.98157H11.6131V2.98618Z" fill="#FFAB00"/>
<path d="M11.6132 4.97696H10.6455V5.97235H11.6132V4.97696Z" fill="#FFAB00"/>
<path d="M24.1935 9.2228V6.96774C24.1935 6.14455 23.5423 5.47465 22.7419 5.47465H16.4516V4.97696C16.4516 3.87904 15.5835 2.98618 14.5161 2.98618H13.5484V0H2.90323V2.98618H1.93548C0.868064 2.98618 0 3.87904 0 4.97696L0.00241935 20.4553L0.839032 29.0649C0.938226 30.0862 1.76661 30.8571 2.76532 30.8571H13.6863C14.6845 30.8571 15.5129 30.0862 15.6121 29.0644L16.3069 21.8986H19.0094C18.9194 22.4436 18.871 22.995 18.871 23.5475C18.871 25.498 19.4269 27.3867 20.4789 29.0097L20.8065 29.5149V30.8571H21.7742V29.2133L21.284 28.4568C20.3385 26.9985 19.8387 25.3004 19.8387 23.5475C19.8387 22.8248 19.9253 22.1027 20.0952 21.4004L20.7915 18.5357L20.8065 14.0286C20.8065 13.4278 21.2806 12.9401 21.8642 12.9401C22.3969 12.9401 22.8479 13.3497 22.9142 13.8932L23.7663 20.9032H25.1105L25.6602 15.8143L24.1935 13.2999V10.5193L29.0323 14.6666V19.3459L26.6289 28.7394L26.6129 30.8571H27.5806V28.9306L29.984 19.5371L30 14.1998L24.1935 9.2228ZM3.87097 0.995392H4.83871V1.99078H5.80645V0.995392H6.77419V1.99078H7.74194V0.995392H8.70968V1.99078H9.67742V0.995392H10.6452V1.99078H11.6129V0.995392H12.5806V6.96774H3.87097V0.995392ZM14.6492 28.9654C14.5998 29.4765 14.1856 29.8618 13.6863 29.8618H2.76532C2.26597 29.8618 1.85177 29.4765 1.80242 28.9654L0.967742 20.4055V4.97696C0.967742 4.4285 1.40177 3.98157 1.93548 3.98157H2.90323V6.96774H1.93548V7.96313H14.5161V6.96774H13.5484V3.98157H14.5161C15.0494 3.98157 15.4839 4.4285 15.4839 4.97696L15.4863 20.3558L14.6492 28.9654ZM23.2258 12.4937C22.8634 12.1537 22.3858 11.9447 21.8642 11.9447C20.7474 11.9447 19.8387 12.8794 19.8387 14.0286V18.3535L19.2184 20.9032H16.4032L16.4516 20.4055V9.45622V6.47005H22.7419C23.009 6.47005 23.2258 6.69301 23.2258 6.96774V12.4937ZM24.6624 16.0382L24.4215 18.2684L24.1935 16.3951V15.235L24.6624 16.0382Z" fill="#FFAB00"/>
<path d="M18.3867 11.447C18.7278 11.447 19.0612 11.3524 19.3544 11.1753C19.6476 11.3524 19.981 11.447 20.3221 11.447C21.3896 11.447 22.2576 10.5541 22.2576 9.45622C22.2576 8.35831 21.3896 7.46544 20.3221 7.46544C19.981 7.46544 19.6476 7.56 19.3544 7.73718C19.0612 7.56 18.7278 7.46544 18.3867 7.46544C17.3192 7.46544 16.4512 8.35831 16.4512 9.45622C16.4512 10.5541 17.3192 11.447 18.3867 11.447ZM18.3867 8.46083C18.6213 8.46083 18.8497 8.5529 19.0307 8.72013L19.3544 9.02024L19.6781 8.72013C19.8591 8.5529 20.0875 8.46083 20.3221 8.46083C20.8554 8.46083 21.2899 8.90726 21.2899 9.45622C21.2899 10.0052 20.8554 10.4516 20.3221 10.4516C20.0875 10.4516 19.8591 10.3595 19.6781 10.1923L19.3544 9.8922L19.0307 10.1923C18.8497 10.3595 18.6213 10.4516 18.3867 10.4516C17.8529 10.4516 17.4189 10.0052 17.4189 9.45622C17.4189 8.90726 17.8529 8.46083 18.3867 8.46083Z" fill="#FFAB00"/>
<path d="M18.3867 12.4424H17.4189V17.9171H18.3867V12.4424Z" fill="#FFAB00"/>
<path d="M18.3867 18.9124H17.4189V19.9078H18.3867V18.9124Z" fill="#FFAB00"/>
</svg>
