<svg width="36" height="36" viewBox="0 0 30 30" fill="none" xmlns="http://www.w3.org/2000/svg">
<path d="M6.49994 25H2.49998C2.22348 25 2 25.224 2 25.5C2 25.776 2.22348 26 2.49998 26H6.5C6.7765 26 6.99998 25.776 6.99998 25.5C6.99998 25.224 6.77644 25 6.49994 25Z" fill="#FFAB00"/>
<path d="M6.49994 27H2.49998C2.22348 27 2 27.224 2 27.5C2 27.776 2.22348 28 2.49998 28H6.5C6.7765 28 6.99998 27.776 6.99998 27.5C6.99998 27.224 6.77644 27 6.49994 27Z" fill="#FFAB00"/>
<path d="M9.49998 13H19.5C21.9815 13 24 10.981 24 8.50002C24 6.01904 21.9815 4.00002 19.5 4.00002C18.457 4.00002 17.4405 4.365 16.6365 5.02805C16.424 5.20354 16.3935 5.51906 16.5695 5.73152C16.745 5.94451 17.0596 5.97551 17.2736 5.79955C17.898 5.28404 18.6891 5.00004 19.5001 5.00004C21.4296 5.00004 23 6.57006 23 8.50002C23 10.43 21.4296 12 19.5001 12H9.49998C8.1215 12 6.99996 10.8785 6.99996 9.49998C6.99996 8.4065 7.73098 7.42295 8.77746 7.10695C9.02947 7.03096 9.17895 6.77244 9.11994 6.51545C9.04043 6.17145 8.99994 5.82996 8.99994 5.49996C8.99994 3.01898 11.0184 0.999961 13.4999 0.999961C15.0274 0.999961 16.4379 1.76496 17.273 3.04646C17.4235 3.27844 17.7345 3.34295 17.965 3.19248C18.1965 3.04148 18.2614 2.73146 18.111 2.50049C17.0905 0.93498 15.3665 0 13.5 0C10.4675 0 7.99998 2.4675 7.99998 5.50002C7.99998 5.76551 8.02096 6.03604 8.0625 6.30803C6.81252 6.86654 6 8.09854 6 9.50004C6 11.43 7.57049 13 9.49998 13Z" fill="#FFAB00"/>
<path d="M4.49998 19C4.77648 19 4.99996 18.776 4.99996 18.5V17H13.5924C13.743 17.4235 14.076 17.757 14.4999 17.9075V18.5C14.4999 18.776 14.7234 19 14.9999 19C15.2764 19 15.4999 18.776 15.4999 18.5V17.908C15.9239 17.757 16.2569 17.4235 16.4074 17H25.0004V18.5C25.0004 18.7759 25.2239 19 25.5004 19C25.7769 19 26.0004 18.7759 26.0004 18.5V16.5C26.0004 16.224 25.7769 16 25.5004 16H16.4075C16.2569 15.5765 15.9239 15.243 15.5 15.092V14.5C15.5 14.224 15.2765 14 15 14C14.7235 14 14.5 14.224 14.5 14.5V15.092C14.076 15.243 13.743 15.5765 13.5925 16H4.49998C4.22348 16 4 16.224 4 16.5V18.5C4 18.776 4.22348 19 4.49998 19ZM15 16C15.276 16 15.5 16.2245 15.5 16.5C15.5 16.7755 15.276 17 15 17C14.724 17 14.5 16.7755 14.5 16.5C14.5 16.2245 14.724 16 15 16Z" fill="#FFAB00"/>
<path d="M2.49998 24H4.49996C4.77647 24 4.99994 23.776 4.99994 23.5C4.99994 23.2241 4.77647 23.0001 4.49996 23.0001H2.49998C2.22348 23.0001 2 23.2241 2 23.5C2 23.776 2.22348 24 2.49998 24Z" fill="#FFAB00"/>
<path d="M7.99998 20H1.00002C0.448476 20 0 20.4485 0 21V29C0 29.5515 0.448476 30 1.00002 30H8.00004C8.55152 30 9.00006 29.5515 9.00006 29V21C9 20.4485 8.55152 20 7.99998 20ZM1.00002 29V21H8.00004L8.00057 29H1.00002Z" fill="#FFAB00"/>
<path d="M17 27H13C12.7235 27 12.5 27.224 12.5 27.5C12.5 27.776 12.7235 28 13 28H17C17.2765 28 17.5 27.776 17.5 27.5C17.5 27.224 17.2765 27 17 27Z" fill="#FFAB00"/>
<path d="M27.5 25H23.5C23.2235 25 23 25.224 23 25.5C23 25.776 23.2235 26 23.5 26H27.5C27.7765 26 28 25.776 28 25.5C28 25.224 27.7765 25 27.5 25Z" fill="#FFAB00"/>
<path d="M27.5 27H23.5C23.2235 27 23 27.224 23 27.5C23 27.776 23.2235 28 23.5 28H27.5C27.7765 28 28 27.776 28 27.5C28 27.224 27.7765 27 27.5 27Z" fill="#FFAB00"/>
<path d="M29 20H22C21.4485 20 21 20.4484 21 21V29C21 29.5515 21.4485 30 22 30H29C29.5515 30 30.0001 29.5515 30.0001 29V21C30 20.4485 29.5515 20 29 20ZM22 29V21H29L29.0006 29H22Z" fill="#FFAB00"/>
<path d="M13 24H15C15.2765 24 15.4999 23.776 15.4999 23.5C15.4999 23.2241 15.2765 23.0001 15 23.0001H13C12.7235 23.0001 12.5 23.2241 12.5 23.5C12.5 23.776 12.7235 24 13 24Z" fill="#FFAB00"/>
<path d="M17 25H13C12.7235 25 12.5 25.224 12.5 25.5C12.5 25.776 12.7235 26 13 26H17C17.2765 26 17.5 25.776 17.5 25.5C17.5 25.224 17.2765 25 17 25Z" fill="#FFAB00"/>
<path d="M23.5 24H25.5C25.7765 24 25.9999 23.776 25.9999 23.5C25.9999 23.2241 25.7765 23.0001 25.5 23.0001H23.5C23.2235 23.0001 23 23.2241 23 23.5C23 23.776 23.2235 24 23.5 24Z" fill="#FFAB00"/>
<path d="M18.5 20H11.5C10.9485 20 10.5 20.4484 10.5 21V29C10.5 29.5515 10.9485 30 11.5 30H18.5C19.0515 30 19.5001 29.5515 19.5001 29V21C19.5 20.4485 19.0515 20 18.5 20ZM11.5 29V21H18.5L18.5006 29H11.5Z" fill="#FFAB00"/>
</svg>
