<svg width="20" height="20" viewBox="0 0 20 20" fill="none" xmlns="http://www.w3.org/2000/svg">
<path d="M16.4641 3.03636L16.4391 2.99306C16.6633 2.86357 16.9248 2.82917 17.175 2.89616L17.1662 2.9287L17.175 2.89616C17.4251 2.96316 17.6343 3.12375 17.7638 3.34799L19.6425 6.60196C19.772 6.82621 19.8064 7.08773 19.7394 7.33783C19.6724 7.58794 19.5118 7.79722 19.2875 7.92667L18.6316 8.3054C18.7415 8.86638 18.7972 9.43525 18.7972 10C18.7972 10.5569 18.7405 11.1253 18.6287 11.6929L19.2875 12.0733C19.7507 12.3407 19.9099 12.9349 19.6425 13.398L17.7638 16.652C17.4965 17.1151 16.9022 17.2743 16.4391 17.0069L15.7786 16.6256C14.9172 17.3774 13.9129 17.9601 12.848 18.3257V19.0802C12.848 19.615 12.413 20.05 11.8783 20.05H8.12093C7.58615 20.05 7.15117 19.615 7.15117 19.0802V18.3258C6.08075 17.9588 5.07505 17.3769 4.21656 16.6279L3.5601 17.0069C3.09693 17.2743 2.50275 17.1151 2.23536 16.652L0.35669 13.398L0.356687 13.398C0.0893444 12.9349 0.24853 12.3407 0.711664 12.0733L1.36763 11.6946C1.25772 11.1335 1.20205 10.5647 1.20205 10C1.20205 9.44303 1.2587 8.8747 1.37046 8.30707L0.711628 7.92667L0.711624 7.92667L0.736625 7.88337L16.4641 3.03636ZM16.4641 3.03636L16.4391 2.99306L15.7826 3.3721C14.9241 2.62311 13.9184 2.04121 12.848 1.67426V0.919765C12.848 0.384988 12.413 -0.05 11.8783 -0.05H8.12093C7.58615 -0.05 7.15117 0.384988 7.15117 0.919765V1.67432C6.08638 2.0399 5.08206 2.62258 4.22063 3.37444L3.5601 2.99306L3.5601 2.99306C3.33582 2.86357 3.0743 2.82913 2.82419 2.89617C2.57408 2.9632 2.36485 3.12375 2.23536 3.34799L2.23536 3.34799L0.356692 6.60196L0.35669 6.60197L0.399991 6.62697L16.4641 3.03636ZM17.2121 16.3334L17.1688 16.3084L19.0475 13.0545C19.1254 12.9195 19.0789 12.7462 18.9441 12.6683L18.0694 12.1633L18.0917 12.1247L18.0693 12.1633C17.9391 12.0881 17.8729 11.9369 17.906 11.7902L17.9548 11.8012L17.906 11.7902C18.0415 11.1895 18.1101 10.5871 18.1101 10C18.1101 9.40254 18.0425 8.79966 17.909 8.20807C17.8759 8.06135 17.9421 7.91015 18.0724 7.83494L18.9441 7.33165L18.9691 7.37495L18.9441 7.33165C19.0095 7.29386 19.0562 7.23304 19.0758 7.16001C19.0953 7.08699 19.0853 7.01098 19.0475 6.94551L17.1689 3.69155C17.1689 3.69155 17.1689 3.69154 17.1689 3.69154C17.131 3.62607 17.0702 3.57942 16.9972 3.55984L17.0101 3.51155L16.9972 3.55984C16.9242 3.54027 16.8482 3.55028 16.7827 3.58808L15.9103 4.09176L15.8883 4.05371L15.9103 4.09176C15.7799 4.16701 15.6157 4.14865 15.5052 4.04641C14.619 3.22646 13.5461 2.60581 12.4028 2.25164L12.4028 2.25163C12.2591 2.20707 12.161 2.07405 12.161 1.92348V0.919765C12.161 0.763935 12.0341 0.637084 11.8783 0.637084H8.12097C7.96514 0.637084 7.83829 0.763935 7.83829 0.919765V1.92348C7.83829 2.07405 7.74022 2.20707 7.5964 2.25163L7.58264 2.20724L7.59639 2.25164C6.46018 2.60363 5.38869 3.22504 4.49801 4.04876C4.38754 4.15095 4.22337 4.16937 4.093 4.09406C4.09299 4.09406 4.09299 4.09406 4.09299 4.09406L3.2166 3.58808C3.15113 3.55028 3.07507 3.54026 3.0021 3.55984L3.00207 3.55985C2.92903 3.57939 2.86821 3.62607 2.83042 3.69153L2.79286 3.66985L2.83042 3.69154L0.951747 6.94551C0.913963 7.01096 0.903967 7.08697 0.92351 7.16001L17.2121 16.3334ZM17.2121 16.3334L17.1688 16.3084C17.0909 16.4434 16.9176 16.4898 16.7826 16.4119L15.9062 15.9059C15.7759 15.8306 15.6117 15.849 15.5012 15.9512C14.6106 16.7749 13.5391 17.3963 12.4028 17.7483L12.4158 17.7903L12.4028 17.7483C12.259 17.7929 12.1609 17.9259 12.1609 18.0765V19.0802C12.1609 19.2361 12.0341 19.3629 11.8783 19.3629H8.12093C7.9651 19.3629 7.83825 19.2361 7.83825 19.0802V18.0765C7.83825 17.9259 7.74018 17.7929 7.5964 17.7484C6.45306 17.3942 5.38022 16.7735 4.49403 15.9536C4.42893 15.8934 4.34512 15.8622 4.26066 15.8622C4.20175 15.8622 4.14249 15.8773 4.08896 15.9082L3.21656 16.4119C3.08156 16.4898 2.90831 16.4434 2.83042 16.3084L2.79384 16.3295L2.83042 16.3084L0.951746 13.0545C0.873852 12.9195 0.920291 12.7462 1.05521 12.6683C1.05521 12.6683 1.05521 12.6683 1.05522 12.6683L1.92691 12.165C2.05718 12.0898 2.12337 11.9386 2.09025 11.7919C1.95677 11.2003 1.88913 10.5973 1.88913 10C1.88913 9.41288 1.95776 8.81054 2.09327 8.20975L2.04797 8.19953L2.09327 8.20974C2.12634 8.06304 2.06016 7.91184 1.92992 7.83666C1.92992 7.83666 1.92992 7.83666 1.92992 7.83666L17.2121 16.3334Z" fill="#979797" stroke="#979797" stroke-width="0.1"/>
<mask id="path-2-inside-1_465_10042" fill="white">
<path d="M9.99986 4.07043C6.73027 4.07043 4.07031 6.73043 4.07031 9.99998C4.07031 13.2695 6.73027 15.9295 9.99986 15.9295C13.2695 15.9295 15.9294 13.2695 15.9294 9.99998C15.9294 6.73043 13.2695 4.07043 9.99986 4.07043ZM9.99986 15.3425C7.05403 15.3425 4.6574 12.9458 4.6574 9.99998C4.6574 7.05415 7.05403 4.65752 9.99986 4.65752C12.9457 4.65752 15.3423 7.05415 15.3423 9.99998C15.3423 12.9458 12.9457 15.3425 9.99986 15.3425Z"/>
</mask>
<path d="M9.99986 4.07043C6.73027 4.07043 4.07031 6.73043 4.07031 9.99998C4.07031 13.2695 6.73027 15.9295 9.99986 15.9295C13.2695 15.9295 15.9294 13.2695 15.9294 9.99998C15.9294 6.73043 13.2695 4.07043 9.99986 4.07043ZM9.99986 15.3425C7.05403 15.3425 4.6574 12.9458 4.6574 9.99998C4.6574 7.05415 7.05403 4.65752 9.99986 4.65752C12.9457 4.65752 15.3423 7.05415 15.3423 9.99998C15.3423 12.9458 12.9457 15.3425 9.99986 15.3425Z" fill="#979797"/>
<path d="M9.99986 2.07043C5.6257 2.07043 2.07031 5.62587 2.07031 9.99999H6.07031C6.07031 7.835 7.83485 6.07043 9.99986 6.07043V2.07043ZM2.07031 9.99999C2.07031 14.3741 5.6257 17.9295 9.99986 17.9295V13.9295C7.83485 13.9295 6.07031 12.165 6.07031 9.99999H2.07031ZM9.99986 17.9295C14.374 17.9295 17.9294 14.3741 17.9294 9.99999H13.9294C13.9294 12.165 12.1649 13.9295 9.99986 13.9295V17.9295ZM17.9294 9.99999C17.9294 5.62587 14.374 2.07043 9.99986 2.07043V6.07043C12.1649 6.07043 13.9294 7.835 13.9294 9.99999H17.9294ZM9.99986 13.3425C8.1586 13.3425 6.6574 11.8412 6.6574 9.99999H2.6574C2.6574 14.0504 5.94946 17.3425 9.99986 17.3425V13.3425ZM6.6574 9.99999C6.6574 8.15872 8.1586 6.65752 9.99986 6.65752V2.65752C5.94946 2.65752 2.6574 5.94958 2.6574 9.99999H6.6574ZM9.99986 6.65752C11.8411 6.65752 13.3423 8.15872 13.3423 9.99999H17.3423C17.3423 5.94958 14.0503 2.65752 9.99986 2.65752V6.65752ZM13.3423 9.99999C13.3423 11.8412 11.8411 13.3425 9.99986 13.3425V17.3425C14.0503 17.3425 17.3423 14.0504 17.3423 9.99999H13.3423Z" fill="#979797" mask="url(#path-2-inside-1_465_10042)"/>
<path d="M11.0955 8.45398H9.9996C9.83748 8.45398 9.70605 8.58541 9.70605 8.74752V11.2524C9.70605 11.4145 9.83748 11.546 9.9996 11.546C10.1617 11.546 10.2931 11.4145 10.2931 11.2524V10.6066H11.0955C11.689 10.6066 12.1718 10.1238 12.1718 9.5303C12.1718 8.9368 11.689 8.45398 11.0955 8.45398ZM11.0955 10.0195H10.2931V9.04106H11.0955C11.3653 9.04106 11.5847 9.26052 11.5847 9.5303C11.5847 9.80009 11.3653 10.0195 11.0955 10.0195Z" fill="#979797"/>
<path d="M8.39609 8.64447C8.35311 8.52991 8.2436 8.45398 8.12125 8.45398H7.80814C7.68579 8.45398 7.57624 8.52987 7.53331 8.64447L6.59397 11.1494C6.53703 11.3011 6.61397 11.4703 6.76575 11.5273C6.91753 11.5842 7.08673 11.5073 7.14368 11.3555L7.30705 10.9197H8.62231L8.78571 11.3555C8.8299 11.4733 8.94176 11.546 9.06059 11.546C9.09483 11.546 9.12967 11.54 9.1636 11.5273C9.31538 11.4704 9.39233 11.3011 9.33538 11.1494L8.39609 8.64447ZM7.5272 10.3326L7.9647 9.16603L8.40219 10.3326H7.5272Z" fill="#979797"/>
<path d="M12.818 8.45398C12.6558 8.45398 12.5244 8.58541 12.5244 8.74752V11.2524C12.5244 11.4145 12.6558 11.546 12.818 11.546C12.9801 11.546 13.1115 11.4145 13.1115 11.2524V8.74752C13.1115 8.58541 12.9801 8.45398 12.818 8.45398Z" fill="#979797"/>
<path d="M12.099 3.41678C12.3027 3.48171 12.5058 3.55714 12.7026 3.64089C12.7401 3.65686 12.7791 3.66441 12.8174 3.66441C12.9315 3.66441 13.0401 3.59741 13.0876 3.48578C13.1511 3.33663 13.0817 3.16422 12.9325 3.10074C12.7189 3.00982 12.4985 2.92794 12.2773 2.85745C12.1229 2.80821 11.9577 2.89353 11.9085 3.04798C11.8593 3.20242 11.9446 3.36755 12.099 3.41678Z" fill="#979797"/>
<path d="M3.93118 13.3035C3.85352 13.1612 3.67517 13.1088 3.5329 13.1864C3.39059 13.2641 3.33814 13.4424 3.41579 13.5847C3.5376 13.808 3.67243 14.0276 3.81654 14.2374C3.87345 14.3203 3.96531 14.3648 4.05877 14.3648C4.11603 14.3648 4.17388 14.3481 4.22468 14.3132C4.35834 14.2215 4.39227 14.0387 4.30049 13.9051C4.16769 13.7117 4.04343 13.5093 3.93118 13.3035Z" fill="#979797"/>
<path d="M9.39818 16.8822C7.82523 16.7467 6.33215 16.065 5.19403 14.9628C5.07755 14.85 4.89172 14.853 4.77896 14.9695C4.6662 15.0859 4.66914 15.2718 4.78562 15.3845C6.02045 16.5804 7.64069 17.32 9.34777 17.4671C9.35634 17.4679 9.36483 17.4682 9.37329 17.4682C9.52401 17.4682 9.65223 17.3528 9.66542 17.1999C9.67932 17.0384 9.55967 16.8961 9.39818 16.8822Z" fill="#979797"/>
<path d="M14.2238 3.80768C14.09 3.71621 13.9073 3.75058 13.8159 3.88439C13.7244 4.01825 13.7588 4.20091 13.8926 4.29238C15.2563 5.22439 16.2428 6.61128 16.6703 8.1975C16.7056 8.32846 16.8242 8.41473 16.9536 8.41473C16.9789 8.41473 17.0046 8.41144 17.0301 8.40455C17.1867 8.36236 17.2794 8.20126 17.2372 8.04475C16.7733 6.32341 15.7031 4.81868 14.2238 3.80768Z" fill="#979797"/>
</svg>
