<svg width="36" height="36" viewBox="0 0 30 30" fill="none" xmlns="http://www.w3.org/2000/svg">
<path d="M3.37518 5.03449L3.41848 5.05949L3.37518 5.03449L0.557174 9.91545C0.366255 10.2461 0.315559 10.6315 0.41433 11.0003C0.513105 11.369 0.749804 11.6775 1.08043 11.8684L2.08417 12.4479C1.91454 13.3037 1.82856 14.1605 1.82856 15C1.82856 15.8513 1.91307 16.7089 2.07991 17.5546L1.08048 18.1316C0.397742 18.5258 0.163057 19.4018 0.557171 20.0845L0.600475 20.0595L0.557174 20.0845L3.37518 24.9655C3.76936 25.6482 4.64534 25.8829 5.32814 25.4888L6.32832 24.9113C7.62108 26.0422 9.13779 26.9198 10.7522 27.4708V28.6204C10.7522 29.4087 11.3935 30.05 12.1819 30.05H17.8179C18.6062 30.05 19.2475 29.4087 19.2475 28.6204V27.4707C20.8535 26.9218 22.3681 26.0431 23.6654 24.9078L24.6716 25.4888C25.3543 25.8829 26.2304 25.6482 26.6246 24.9655L29.4426 20.0845L29.3993 20.0595L29.4426 20.0845C29.8367 19.4018 29.602 18.5258 28.9193 18.1316L27.9155 17.552C28.0853 16.6963 28.1712 15.8394 28.1712 15C28.1712 14.1486 28.0867 13.291 27.9199 12.4454L28.9193 11.8683C29.2499 11.6775 29.4866 11.369 29.5854 11.0003C29.6842 10.6315 29.6335 10.2461 29.4425 9.91545L26.6245 5.03449L26.5812 5.05949L26.6245 5.03449C26.4336 4.70387 26.1252 4.46717 25.7565 4.3684C25.3877 4.26962 25.0023 4.32032 24.6716 4.51124L23.6713 5.08874C22.3786 3.95775 20.8619 3.08021 19.2475 2.52927V1.37965C19.2475 0.59129 18.6062 -0.05 17.8179 -0.05H12.1819C11.3935 -0.05 10.7522 0.59129 10.7522 1.37965V2.52934C9.14635 3.07816 7.63171 3.95689 6.33442 5.09226L5.32814 4.51124L5.30314 4.55454L5.32814 4.51124C4.99746 4.32032 4.61201 4.26956 4.24325 4.3684C3.87449 4.46723 3.5661 4.70387 3.37518 5.03449ZM25.7753 24.4751L25.8186 24.5001L25.7753 24.4751C25.6516 24.6896 25.3763 24.7633 25.162 24.6395L23.8474 23.8805C23.6614 23.7731 23.427 23.7993 23.2693 23.9452C21.9307 25.1832 20.3201 26.1173 18.6122 26.6464C18.4069 26.71 18.2669 26.8998 18.2669 27.1147V28.6204C18.2669 28.8679 18.0654 29.0694 17.8179 29.0694H12.1819C11.9343 29.0694 11.7329 28.8679 11.7329 28.6204V27.1148C11.7329 26.8999 11.5929 26.71 11.3877 26.6464C9.66908 26.114 8.05655 25.1811 6.72455 23.9487C6.63164 23.8628 6.51205 23.8183 6.39147 23.8183C6.3074 23.8183 6.22284 23.8399 6.14643 23.884L4.83783 24.6395C4.62338 24.7632 4.3482 24.6895 4.22446 24.4751L4.18116 24.5001L4.22446 24.4751L1.40646 19.5942C1.28271 19.3799 1.35647 19.1046 1.57081 18.9808L2.87835 18.2259C3.06428 18.1185 3.15875 17.9028 3.11148 17.6933C2.91085 16.8041 2.80918 15.8979 2.80918 15C2.80918 14.1174 2.91235 13.212 3.116 12.3091L3.06723 12.2981L3.116 12.3091C3.1632 12.0997 3.06874 11.8839 2.88287 11.7766L1.5708 11.0191C1.46687 10.9591 1.3927 10.8624 1.36161 10.7465C1.33058 10.6305 1.34646 10.5097 1.40646 10.4058L4.22446 5.5248L4.18116 5.4998L4.22446 5.5248C4.28447 5.42086 4.38116 5.34665 4.49714 5.31562L4.49717 5.31561C4.61303 5.28453 4.73394 5.30046 4.83788 5.36046L6.15247 6.11944C6.15247 6.11944 6.15248 6.11944 6.15248 6.11945C6.33855 6.22692 6.57285 6.20063 6.73053 6.05479C8.06923 4.81672 9.67972 3.88269 11.3877 3.35357L11.3729 3.30581L11.3877 3.35357C11.5929 3.28996 11.7329 3.10012 11.7329 2.88523V1.37965C11.7329 1.1321 11.9344 0.930626 12.1819 0.930626H17.818C18.0655 0.930626 18.267 1.1321 18.267 1.37965V2.88523C18.267 3.10012 18.4069 3.28996 18.6122 3.35357L18.627 3.30581L18.6122 3.35357C20.3307 3.88594 21.9432 4.81883 23.2753 6.05126C23.433 6.19718 23.6673 6.22339 23.8534 6.11598L25.162 5.36046C25.266 5.30045 25.3869 5.28453 25.5027 5.31561L25.5157 5.26732L25.5027 5.31561C25.6187 5.3467 25.7154 5.42088 25.7754 5.52482L28.5934 10.4058C28.6534 10.5097 28.6694 10.6306 28.6383 10.7465C28.6072 10.8624 28.533 10.9591 28.4291 11.0191L27.1215 11.7741C26.9356 11.8814 26.8411 12.0972 26.8884 12.3066C27.089 13.1958 27.1907 14.1019 27.1907 15C27.1907 15.8826 27.0875 16.788 26.8839 17.6908L26.9327 17.7018L26.8839 17.6908C26.8367 17.9002 26.9312 18.116 27.117 18.2233L27.142 18.18L27.117 18.2233L28.4291 18.9808C28.6434 19.1046 28.7171 19.3799 28.5933 19.5942L25.7753 24.4751Z" fill="#FFAB00" stroke="#FFAB00" stroke-width="0.1"/>
<mask id="path-2-inside-1_1002_22897" fill="white">
<path d="M14.9998 6.10565C10.0954 6.10565 6.10547 10.0957 6.10547 15C6.10547 19.9043 10.0954 23.8943 14.9998 23.8943C19.9042 23.8943 23.8941 19.9043 23.8941 15C23.8941 10.0957 19.9042 6.10565 14.9998 6.10565ZM14.9998 23.0137C10.581 23.0137 6.9861 19.4187 6.9861 15C6.9861 10.5812 10.581 6.98628 14.9998 6.98628C19.4185 6.98628 23.0135 10.5812 23.0135 15C23.0135 19.4187 19.4185 23.0137 14.9998 23.0137Z"/>
</mask>
<path d="M14.9998 6.10565C10.0954 6.10565 6.10547 10.0957 6.10547 15C6.10547 19.9043 10.0954 23.8943 14.9998 23.8943C19.9042 23.8943 23.8941 19.9043 23.8941 15C23.8941 10.0957 19.9042 6.10565 14.9998 6.10565ZM14.9998 23.0137C10.581 23.0137 6.9861 19.4187 6.9861 15C6.9861 10.5812 10.581 6.98628 14.9998 6.98628C19.4185 6.98628 23.0135 10.5812 23.0135 15C23.0135 19.4187 19.4185 23.0137 14.9998 23.0137Z" fill="#FFAB00"/>
<path d="M14.9998 4.10565C8.99083 4.10565 4.10547 8.99109 4.10547 15H8.10547C8.10547 11.2002 11.2 8.10565 14.9998 8.10565V4.10565ZM4.10547 15C4.10547 21.0089 8.99083 25.8943 14.9998 25.8943V21.8943C11.2 21.8943 8.10547 18.7997 8.10547 15H4.10547ZM14.9998 25.8943C21.0088 25.8943 25.8941 21.0089 25.8941 15H21.8941C21.8941 18.7997 18.7996 21.8943 14.9998 21.8943V25.8943ZM25.8941 15C25.8941 8.99109 21.0088 4.10565 14.9998 4.10565V8.10565C18.7996 8.10565 21.8941 11.2002 21.8941 15H25.8941ZM14.9998 21.0137C11.6856 21.0137 8.98609 18.3142 8.98609 15H4.9861C4.9861 20.5233 9.47648 25.0137 14.9998 25.0137V21.0137ZM8.98609 15C8.98609 11.6858 11.6856 8.98628 14.9998 8.98628V4.98628C9.47648 4.98628 4.9861 9.47666 4.9861 15H8.98609ZM14.9998 8.98628C18.314 8.98628 21.0135 11.6858 21.0135 15H25.0135C25.0135 9.47666 20.5231 4.98628 14.9998 4.98628V8.98628ZM21.0135 15C21.0135 18.3142 18.314 21.0137 14.9998 21.0137V25.0137C20.5231 25.0137 25.0135 20.5233 25.0135 15H21.0135Z" fill="#FFAB00" mask="url(#path-2-inside-1_1002_22897)"/>
<path d="M16.6437 12.681H14.9999C14.7567 12.681 14.5596 12.8782 14.5596 13.1213V16.8787C14.5596 17.1219 14.7567 17.319 14.9999 17.319C15.2431 17.319 15.4402 17.1219 15.4402 16.8787V15.91H16.6437C17.534 15.91 18.2582 15.1858 18.2582 14.2955C18.2582 13.4053 17.534 12.681 16.6437 12.681ZM16.6437 15.0294H15.4402V13.5617H16.6437C17.0484 13.5617 17.3776 13.8908 17.3776 14.2955C17.3776 14.7002 17.0484 15.0294 16.6437 15.0294Z" fill="#FFAB00"/>
<path d="M12.5946 12.9668C12.5302 12.7949 12.3659 12.681 12.1824 12.681H11.7127C11.5292 12.681 11.3649 12.7949 11.3004 12.9668L9.89145 16.7241C9.80603 16.9518 9.92145 17.2056 10.1491 17.291C10.3768 17.3764 10.6306 17.261 10.716 17.0333L10.9611 16.3797H12.934L13.1791 17.0333C13.2453 17.21 13.4131 17.3191 13.5914 17.3191C13.6427 17.3191 13.695 17.3101 13.7459 17.291C13.9736 17.2056 14.089 16.9518 14.0036 16.7241L12.5946 12.9668ZM11.2913 15.499L11.9475 13.7491L12.6038 15.499H11.2913Z" fill="#FFAB00"/>
<path d="M19.2264 12.681C18.9833 12.681 18.7861 12.8782 18.7861 13.1213V16.8787C18.7861 17.1219 18.9833 17.319 19.2264 17.319C19.4696 17.319 19.6668 17.1219 19.6668 16.8787V13.1213C19.6668 12.8782 19.4696 12.681 19.2264 12.681Z" fill="#FFAB00"/>
<path d="M18.1495 5.12524C18.4551 5.22263 18.7597 5.33576 19.0549 5.4614C19.1111 5.48535 19.1696 5.49668 19.2271 5.49668C19.3983 5.49668 19.5612 5.39617 19.6324 5.22874C19.7277 5.005 19.6235 4.74639 19.3998 4.65116C19.0793 4.51478 18.7487 4.39197 18.4169 4.28623C18.1853 4.21238 17.9375 4.34036 17.8637 4.57203C17.7899 4.80369 17.9178 5.05138 18.1495 5.12524Z" fill="#FFAB00"/>
<path d="M5.89725 19.9552C5.78078 19.7418 5.51324 19.6631 5.29984 19.7796C5.08637 19.8961 5.0077 20.1635 5.12418 20.377C5.30688 20.7119 5.50913 21.0413 5.7253 21.3561C5.81066 21.4804 5.94845 21.5472 6.08864 21.5472C6.17453 21.5472 6.2613 21.5221 6.33751 21.4698C6.538 21.3321 6.5889 21.058 6.45123 20.8576C6.25203 20.5674 6.06563 20.2639 5.89725 19.9552Z" fill="#FFAB00"/>
<path d="M14.0978 25.3233C11.7383 25.12 9.49872 24.0975 7.79154 22.4442C7.61682 22.275 7.33807 22.2795 7.16893 22.4542C6.99979 22.6289 7.0042 22.9076 7.17891 23.0768C9.03116 24.8706 11.4615 25.98 14.0221 26.2007C14.035 26.2018 14.0477 26.2023 14.0604 26.2023C14.2865 26.2023 14.4788 26.0292 14.4986 25.7998C14.5195 25.5576 14.34 25.3442 14.0978 25.3233Z" fill="#FFAB00"/>
<path d="M21.3363 5.71158C21.1355 5.57438 20.8615 5.62593 20.7243 5.82665C20.5871 6.02743 20.6386 6.30143 20.8393 6.43863C22.885 7.83665 24.3647 9.91698 25.006 12.2963C25.059 12.4928 25.2367 12.6221 25.4309 12.6221C25.4688 12.6221 25.5074 12.6172 25.5457 12.6069C25.7805 12.5436 25.9196 12.302 25.8563 12.0672C25.1605 9.48518 23.5552 7.22808 21.3363 5.71158Z" fill="#FFAB00"/>
</svg>
