<svg width="23" height="23" viewBox="0 0 23 23" fill="none" xmlns="http://www.w3.org/2000/svg">
<path d="M4.98316 19.1666H1.91652C1.70454 19.1666 1.5332 19.3384 1.5332 19.5499C1.5332 19.7615 1.70454 19.9333 1.91652 19.9333H4.9832C5.19519 19.9333 5.36652 19.7615 5.36652 19.5499C5.36652 19.3384 5.19514 19.1666 4.98316 19.1666Z" fill="#979797"/>
<path d="M4.98316 20.7H1.91652C1.70454 20.7 1.5332 20.8717 1.5332 21.0833C1.5332 21.2949 1.70454 21.4666 1.91652 21.4666H4.9832C5.19519 21.4666 5.36652 21.2949 5.36652 21.0833C5.36652 20.8717 5.19514 20.7 4.98316 20.7Z" fill="#979797"/>
<path d="M7.28293 9.96668H14.9496C16.8521 9.96668 18.3996 8.41876 18.3996 6.51668C18.3996 4.6146 16.8521 3.06668 14.9496 3.06668C14.15 3.06668 13.3707 3.3465 12.7543 3.85484C12.5913 3.98938 12.568 4.23128 12.7029 4.39417C12.8375 4.55746 13.0786 4.58122 13.2427 4.44632C13.7214 4.0511 14.3279 3.83336 14.9497 3.83336C16.4289 3.83336 17.633 5.03705 17.633 6.51668C17.633 7.99636 16.4289 9.2 14.9497 9.2H7.28293C6.2261 9.2 5.36625 8.3402 5.36625 7.28332C5.36625 6.44499 5.92669 5.69093 6.729 5.44866C6.92221 5.3904 7.0368 5.19221 6.99156 4.99518C6.93061 4.73144 6.89956 4.46964 6.89956 4.21664C6.89956 2.31455 8.44708 0.766637 10.3496 0.766637C11.5206 0.766637 12.602 1.35314 13.2422 2.33562C13.3576 2.51347 13.596 2.56293 13.7727 2.44757C13.9502 2.3318 14.0001 2.09412 13.8847 1.91704C13.1023 0.716818 11.7806 0 10.3496 0C8.02468 0 6.13293 1.89175 6.13293 4.21668C6.13293 4.42022 6.14901 4.62763 6.18086 4.83615C5.22254 5.26435 4.59961 6.20888 4.59961 7.28336C4.59961 8.763 5.80365 9.96668 7.28293 9.96668Z" fill="#979797"/>
<path d="M3.44972 14.5667C3.66171 14.5667 3.83304 14.395 3.83304 14.1834V13.0334H10.4206C10.536 13.3581 10.7913 13.6137 11.1164 13.7291V14.1834C11.1164 14.395 11.2877 14.5667 11.4997 14.5667C11.7117 14.5667 11.883 14.395 11.883 14.1834V13.7295C12.2081 13.6137 12.4633 13.358 12.5787 13.0334H19.1667V14.1834C19.1667 14.3949 19.3381 14.5667 19.55 14.5667C19.762 14.5667 19.9334 14.3949 19.9334 14.1834V12.65C19.9334 12.4385 19.762 12.2667 19.55 12.2667H12.5788C12.4634 11.942 12.2081 11.6864 11.883 11.5706V11.1167C11.883 10.9051 11.7117 10.7334 11.4997 10.7334C11.2877 10.7334 11.1164 10.9051 11.1164 11.1167V11.5706C10.7914 11.6863 10.5361 11.942 10.4207 12.2667H3.44972C3.23774 12.2667 3.06641 12.4385 3.06641 12.65V14.1834C3.06641 14.395 3.23774 14.5667 3.44972 14.5667ZM11.4997 12.2667C11.7113 12.2667 11.883 12.4388 11.883 12.65C11.883 12.8613 11.7113 13.0334 11.4997 13.0334C11.2881 13.0334 11.1164 12.8613 11.1164 12.65C11.1164 12.4388 11.2881 12.2667 11.4997 12.2667Z" fill="#979797"/>
<path d="M1.91652 18.4001H3.44984C3.66183 18.4001 3.83316 18.2283 3.83316 18.0167C3.83316 17.8052 3.66183 17.6334 3.44984 17.6334H1.91652C1.70454 17.6334 1.5332 17.8052 1.5332 18.0167C1.5332 18.2283 1.70454 18.4001 1.91652 18.4001Z" fill="#979797"/>
<path d="M6.13332 15.3334H0.766682C0.343832 15.3334 0 15.6773 0 16.1001V22.2334C0 22.6562 0.343832 23.0001 0.766682 23.0001H6.13336C6.55617 23.0001 6.90004 22.6562 6.90004 22.2334V16.1001C6.9 15.6773 6.55617 15.3334 6.13332 15.3334ZM0.766682 22.2334V16.1001H6.13336L6.13377 22.2334H0.766682Z" fill="#979797"/>
<path d="M13.033 20.7H9.96633C9.75434 20.7 9.58301 20.8717 9.58301 21.0833C9.58301 21.2949 9.75434 21.4666 9.96633 21.4666H13.033C13.245 21.4666 13.4163 21.2949 13.4163 21.0833C13.4163 20.8717 13.245 20.7 13.033 20.7Z" fill="#979797"/>
<path d="M21.0838 19.1666H18.0171C17.8051 19.1666 17.6338 19.3384 17.6338 19.5499C17.6338 19.7615 17.8051 19.9333 18.0171 19.9333H21.0838C21.2958 19.9333 21.4671 19.7615 21.4671 19.5499C21.4671 19.3384 21.2958 19.1666 21.0838 19.1666Z" fill="#979797"/>
<path d="M21.0838 20.7H18.0171C17.8051 20.7 17.6338 20.8717 17.6338 21.0833C17.6338 21.2949 17.8051 21.4666 18.0171 21.4666H21.0838C21.2958 21.4666 21.4671 21.2949 21.4671 21.0833C21.4671 20.8717 21.2958 20.7 21.0838 20.7Z" fill="#979797"/>
<path d="M22.2329 15.3334H16.8663C16.4435 15.3334 16.0996 15.6772 16.0996 16.1001V22.2334C16.0996 22.6562 16.4434 23.0001 16.8663 23.0001H22.233C22.6558 23.0001 22.9997 22.6562 22.9997 22.2334V16.1001C22.9996 15.6773 22.6558 15.3334 22.2329 15.3334ZM16.8663 22.2334V16.1001H22.233L22.2334 22.2334H16.8663Z" fill="#979797"/>
<path d="M9.96633 18.4001H11.4996C11.7116 18.4001 11.883 18.2283 11.883 18.0167C11.883 17.8052 11.7116 17.6334 11.4996 17.6334H9.96633C9.75434 17.6334 9.58301 17.8052 9.58301 18.0167C9.58301 18.2283 9.75434 18.4001 9.96633 18.4001Z" fill="#979797"/>
<path d="M13.033 19.1666H9.96633C9.75434 19.1666 9.58301 19.3384 9.58301 19.5499C9.58301 19.7615 9.75434 19.9333 9.96633 19.9333H13.033C13.245 19.9333 13.4163 19.7615 13.4163 19.5499C13.4163 19.3384 13.245 19.1666 13.033 19.1666Z" fill="#979797"/>
<path d="M18.0171 18.4001H19.5504C19.7624 18.4001 19.9337 18.2283 19.9337 18.0167C19.9337 17.8052 19.7624 17.6334 19.5504 17.6334H18.0171C17.8051 17.6334 17.6338 17.8052 17.6338 18.0167C17.6338 18.2283 17.8051 18.4001 18.0171 18.4001Z" fill="#979797"/>
<path d="M14.1831 15.3334H8.81649C8.39368 15.3334 8.0498 15.6772 8.0498 16.1001V22.2334C8.0498 22.6562 8.39364 23.0001 8.81649 23.0001H14.1832C14.606 23.0001 14.9498 22.6562 14.9498 22.2334V16.1001C14.9498 15.6773 14.606 15.3334 14.1831 15.3334ZM8.81649 22.2334V16.1001H14.1832L14.1836 22.2334H8.81649Z" fill="#979797"/>
</svg>
