<svg width="18" height="18" viewBox="0 0 18 18" fill="none" xmlns="http://www.w3.org/2000/svg">
<path d="M7.64773 0.213175C6.06715 0.362755 4.44013 1.04261 3.19777 2.07851C0.253688 4.52777 -0.647032 8.55779 0.987008 11.9717C1.40713 12.851 1.86271 13.4988 2.58181 14.2357C2.96629 14.6308 3.05521 14.7377 3.05521 14.8231C3.05881 15.1186 3.25807 15.6917 3.51439 16.1367C3.73867 16.5248 4.32259 17.1085 4.71049 17.3328C5.31925 17.6852 5.75719 17.8064 6.43705 17.8064C7.11709 17.8064 7.55485 17.6854 8.16361 17.3328C8.48041 17.1478 9.09277 16.571 9.27079 16.2897L9.37411 16.1189H10.4242H11.4747L11.578 16.2897C11.756 16.571 12.3682 17.1478 12.6852 17.3328C13.7283 17.938 14.8533 17.9842 15.8856 17.4646C16.2595 17.2793 16.4373 17.1548 16.7435 16.863C18.1106 15.5636 18.1853 13.5024 16.9109 12.1319C16.6902 11.8898 16.3378 11.5942 16.167 11.4947C16.1243 11.4733 16.1349 11.4092 16.2416 11.096C17.2563 8.11985 16.4908 4.85177 14.2481 2.61257C12.4964 0.861174 10.0828 -0.0181255 7.64773 0.213175ZM8.14615 0.942894L8.14255 1.14935L6.80749 1.94675L5.47243 2.74415L4.37947 2.84387C3.77791 2.89733 3.21541 2.95061 3.12631 2.95781L2.96611 2.97563L3.17977 2.77979C4.31179 1.73669 5.77141 1.03901 7.25587 0.828953C7.68301 0.768473 7.82539 0.754253 8.01421 0.747053L8.14597 0.739853V0.942894H8.14615ZM9.62341 0.832554C11.0972 1.04261 12.5569 1.74389 13.6817 2.77979L13.8953 2.97563L13.7351 2.95781C13.6462 2.95079 13.0837 2.89733 12.482 2.84387L11.389 2.74415L10.054 1.94675L8.71891 1.14935L8.71531 0.939293V0.732834L8.99305 0.754253C9.14299 0.768473 9.42775 0.804113 9.62341 0.832554ZM8.74069 1.83299C8.89369 1.92192 9.03265 2.00741 9.04687 2.02163C9.08593 2.05727 8.91511 2.17823 7.46269 3.13583L6.19189 3.97607L6.05653 3.56675C5.94259 3.21431 5.92837 3.15023 5.97463 3.12539C6.00307 3.10757 6.55837 2.77295 7.20277 2.38145C7.85077 1.99337 8.39527 1.66955 8.42029 1.66955C8.44513 1.66559 8.58751 1.74047 8.74069 1.83299ZM9.86911 2.50943C9.98665 2.58071 10.1148 2.65901 10.1504 2.68385C10.2073 2.72309 10.0045 2.86547 8.41327 3.92279C7.42363 4.58141 6.59761 5.11187 6.58339 5.10467C6.56917 5.09405 6.51931 4.96589 6.47305 4.81631C6.40897 4.61345 6.39835 4.53857 6.43039 4.50653C6.49087 4.44605 9.58453 2.38487 9.62017 2.38127C9.63421 2.37767 9.74815 2.43815 9.86911 2.50943ZM10.8695 3.10739C10.9372 3.16085 10.9372 3.16427 10.8375 3.46343C10.784 3.63083 10.72 3.78383 10.6951 3.80867C10.6703 3.83351 10.1611 4.17893 9.56653 4.57763L8.48077 5.30033L7.93609 5.28971L7.38781 5.27909L9.05749 4.16831C9.97603 3.55595 10.745 3.05411 10.7626 3.05411C10.784 3.05411 10.8303 3.07895 10.8695 3.10739ZM5.76097 4.42463C5.95681 5.01197 6.11701 5.51039 6.11701 5.53541C6.11701 5.58167 4.60753 8.37617 4.55065 8.44025C4.53643 8.45807 4.03801 8.57903 3.44347 8.71439C2.64607 8.89241 2.35051 8.94587 2.32207 8.91383C2.30065 8.89241 2.00887 8.26583 1.67065 7.51829L1.05469 6.16199L1.18645 5.80955C1.35727 5.35037 1.61719 4.79849 1.84507 4.42121C2.07295 4.04735 2.44321 3.54551 2.47867 3.56675C2.49289 3.57395 3.14431 3.52049 3.92749 3.44921C4.71067 3.37451 5.36209 3.32825 5.37991 3.33887C5.39431 3.34949 5.56513 3.84071 5.76097 4.42463ZM14.3831 3.56315C14.4188 3.54533 14.7889 4.04735 15.0168 4.42103C15.2446 4.79831 15.5046 5.35019 15.6754 5.80937L15.8071 6.16181L15.1913 7.51811C14.8531 8.26565 14.5612 8.89223 14.5399 8.91365C14.5115 8.94569 14.2159 8.89223 13.4185 8.71421C12.824 8.57885 12.3256 8.45789 12.3113 8.44007C12.2545 8.37599 10.745 5.58149 10.745 5.53523C10.745 5.48897 11.4356 3.40277 11.4677 3.34931C11.4783 3.33149 12.1333 3.37775 12.9237 3.44903C13.7139 3.52031 14.3689 3.57377 14.3831 3.56315ZM10.3213 4.99775L10.2181 5.27891L9.86929 5.28953C9.65563 5.29673 9.53107 5.28593 9.55249 5.26811C9.62377 5.20403 10.4033 4.69499 10.414 4.70561C10.421 4.71299 10.3781 4.84475 10.3213 4.99775ZM11.0404 7.29041L11.8129 8.71439L11.1971 9.84641L10.5778 10.975H8.43091H6.28423L5.66485 9.84641L5.04907 8.71439L5.82163 7.29041L6.59761 5.86643H8.43091H10.2642L11.0404 7.29041ZM1.37869 8.23379L1.88071 9.33377V10.6723V12.0143L1.79521 12.0926L1.70971 12.1745L1.62079 12.0179C1.57093 11.936 1.46779 11.719 1.38931 11.5445C0.962168 10.5655 0.741308 9.50459 0.741308 8.41523C0.741308 7.92041 0.823208 7.07315 0.865868 7.11581C0.873068 7.12301 1.10455 7.62503 1.37869 8.23379ZM16.0813 7.64987C16.188 8.75705 16.0635 9.87485 15.7216 10.8787C15.6327 11.1422 15.5971 11.2027 15.5542 11.1885C15.5222 11.1743 15.387 11.135 15.248 11.0996L14.9989 11.0355L14.9883 10.1881L14.9811 9.34079L15.4866 8.22299C15.8354 7.45403 15.9992 7.13003 16.017 7.17287C16.0314 7.20851 16.0599 7.42217 16.0813 7.64987ZM4.63957 9.13793C4.68943 9.24125 4.68943 9.24467 4.59331 9.31235C4.53985 9.35141 4.03801 9.68963 3.47551 10.0635L2.45023 10.7435V10.1278V9.50837L3.49333 9.27347C4.06285 9.14531 4.54345 9.03857 4.55785 9.03857C4.57189 9.03479 4.60753 9.08105 4.63957 9.13793ZM13.0873 9.21623L13.7708 9.36581L12.5461 10.1846C11.8732 10.6332 11.2965 10.9928 11.2681 10.9856C11.2324 10.9784 11.2895 10.8433 11.4923 10.4766C11.6419 10.2025 11.8804 9.76451 12.0228 9.50477C12.2221 9.14171 12.2969 9.03479 12.3396 9.04901C12.3752 9.05963 12.71 9.13433 13.0873 9.21623ZM14.4116 10.003L14.408 10.3697L13.9452 10.6829L13.4824 10.9961L12.9271 10.9855L12.3718 10.9748L13.3651 10.3092C13.9133 9.94253 14.3689 9.64355 14.3867 9.64355C14.401 9.63995 14.4116 9.80375 14.4116 10.003ZM5.12017 10.0172C5.20207 10.1668 5.26255 10.2914 5.25553 10.2986C5.24833 10.3022 4.65397 10.7009 3.93127 11.1815C2.74219 11.9753 2.61061 12.0502 2.53573 12.0181C2.45743 11.9825 2.45023 11.9576 2.45023 11.7013V11.4272L3.70339 10.5869C4.39405 10.1242 4.95997 9.74687 4.96357 9.74687C4.96699 9.74669 5.03827 9.86783 5.12017 10.0172ZM5.61859 10.9286C5.65423 10.9891 5.67907 11.0531 5.67205 11.0674C5.66143 11.078 5.57953 11.11 5.48701 11.1314C4.85341 11.2916 4.09507 11.8399 3.63931 12.4665L3.56803 12.5662L3.38299 12.4737C3.27967 12.4202 3.19795 12.374 3.19795 12.3634C3.19795 12.3385 5.48701 10.8148 5.52265 10.8148C5.53669 10.8146 5.57935 10.8645 5.61859 10.9286ZM7.20277 11.6513C7.96813 11.8577 8.65519 12.4273 8.99701 13.1393C9.21769 13.5985 9.26395 13.8158 9.26395 14.4103C9.26395 15.0049 9.21769 15.2219 8.99701 15.6813C8.65177 16.4004 7.97533 16.9593 7.18495 17.173C6.86095 17.2619 6.01369 17.2619 5.68969 17.173C4.89931 16.9593 4.22305 16.4004 3.87763 15.6813C3.69961 15.311 3.63193 15.0477 3.60349 14.6027C3.51097 13.1395 4.46857 11.8865 5.88895 11.616C6.23437 11.5516 6.89299 11.5694 7.20277 11.6513ZM12.4359 11.6407C12.2294 11.7937 11.8023 12.2244 11.6491 12.4381C11.1579 13.1251 10.93 13.9688 11.0225 14.7592C11.044 14.9514 11.0938 15.2077 11.1329 15.3287L11.2006 15.5494H10.4246H9.64861L9.71629 15.3393C10.0615 14.2179 9.73771 12.9577 8.87623 12.0784C8.70181 11.8968 8.49895 11.7082 8.43127 11.6583L8.30671 11.5622H10.4249L12.5432 11.5658L12.4359 11.6407ZM14.8389 11.598C15.3267 11.6763 15.9177 11.9326 16.2451 12.2032C16.6652 12.5556 17.0319 13.1287 17.1778 13.6628C17.2633 13.9868 17.2633 14.834 17.1742 15.158C16.9606 15.9484 16.4017 16.6247 15.6826 16.9701C15.2234 17.1908 15.0061 17.237 14.4116 17.237C13.817 17.237 13.6 17.1908 13.1406 16.9701C12.5817 16.7032 12.1189 16.2404 11.8518 15.6815C11.6311 15.2223 11.5849 15.005 11.5849 14.4105C11.5849 13.816 11.6311 13.5989 11.8484 13.1431C12.386 12.0251 13.5928 11.4022 14.8389 11.598ZM2.78125 12.7869L3.29749 13.0682L3.23341 13.232C3.19777 13.321 3.14089 13.5168 3.10525 13.6592L3.04117 13.9261L2.77765 13.6414C2.63167 13.4884 2.40037 13.2106 2.26501 13.029L2.01589 12.698L2.11561 12.5912C2.16907 12.5344 2.22595 12.4915 2.24017 12.4951C2.25439 12.5021 2.49649 12.6339 2.78125 12.7869Z" fill="#979797"/>
<path d="M5.58337 12.7905V13.4491L6.01051 13.6628L6.43765 13.8765L6.86479 13.6628L7.29193 13.4491V12.7905V12.1319H6.43747H5.58301V12.7905H5.58337ZM6.72259 12.8973C6.72259 13.0895 6.71899 13.0931 6.58021 13.1642L6.43783 13.2355L6.29545 13.1642C6.15667 13.0929 6.15307 13.0895 6.15307 12.8973V12.7014H6.43783H6.72259V12.8973Z" fill="#979797"/>
<path d="M4.15918 14.4103V15.2648H4.8178H5.47642L5.69008 14.8376L5.90374 14.4105L5.69008 13.9834L5.47642 13.5559H4.8178H4.15918V14.4103ZM5.19148 14.2679L5.26276 14.4103L5.19148 14.5527C5.1202 14.6915 5.11678 14.6951 4.92454 14.6951H4.7287V14.4103V14.1256H4.92454C5.11678 14.1256 5.12038 14.129 5.19148 14.2679Z" fill="#979797"/>
<path d="M7.18534 13.983L6.97168 14.4101L7.18534 14.8373L7.399 15.2644H8.05762H8.71624V14.4099V13.5555H8.05762H7.399L7.18534 13.983ZM8.14654 14.4103V14.6951H7.9507C7.75846 14.6951 7.75486 14.6915 7.68376 14.5527L7.61248 14.4103L7.68376 14.2679C7.75504 14.1291 7.75846 14.1255 7.9507 14.1255H8.14654V14.4103Z" fill="#979797"/>
<path d="M6.00313 15.1614L5.58301 15.3715V16.0301V16.6887H6.43747H7.29193V16.0301V15.3715L6.86461 15.1578C6.62971 15.0403 6.43387 14.9442 6.43027 14.9478C6.42307 14.9478 6.23083 15.0439 6.00313 15.1614ZM6.57985 15.6562C6.71863 15.7275 6.72223 15.7309 6.72223 15.9232V16.119H6.43747H6.15271V15.9232C6.15271 15.7345 6.15631 15.7273 6.28807 15.6597C6.45169 15.5707 6.41605 15.5707 6.57985 15.6562Z" fill="#979797"/>
<path d="M14.1628 12.1782C13.9848 12.235 13.6537 12.5769 13.6003 12.7585C13.5754 12.8404 13.5576 12.9437 13.5576 12.9864C13.5576 13.3779 14.0204 13.8408 14.4121 13.8408C14.8036 13.8408 15.2665 13.378 15.2665 12.9864C15.2665 12.7905 15.174 12.6089 14.9818 12.4168C14.7181 12.1497 14.476 12.0786 14.1628 12.1782ZM14.6256 12.7727C14.6718 12.819 14.6968 12.8902 14.6968 12.9864C14.6968 13.175 14.6007 13.2711 14.4121 13.2711C14.2234 13.2711 14.1273 13.175 14.1273 12.9864C14.1273 12.8902 14.1522 12.819 14.1986 12.7727C14.2449 12.7264 14.3161 12.7014 14.4123 12.7014C14.508 12.7016 14.5793 12.7264 14.6256 12.7727Z" fill="#979797"/>
<path d="M12.7389 13.6021C12.5609 13.659 12.2299 14.0008 12.1764 14.1824C12.1516 14.2643 12.1338 14.3677 12.1338 14.4103C12.1338 14.802 12.5966 15.2648 12.9883 15.2648C13.3798 15.2648 13.8427 14.802 13.8427 14.4103C13.8427 14.2145 13.7502 14.033 13.558 13.8408C13.2943 13.5737 13.0522 13.5024 12.7389 13.6021ZM13.2017 14.1967C13.248 14.2429 13.273 14.3142 13.273 14.4103C13.273 14.599 13.1769 14.6951 12.9883 14.6951C12.7996 14.6951 12.7035 14.599 12.7035 14.4103C12.7035 14.2217 12.7996 14.1256 12.9883 14.1256C13.0842 14.1256 13.1555 14.1504 13.2017 14.1967Z" fill="#979797"/>
<path d="M15.5866 13.6021C15.4086 13.659 15.0776 14.0008 15.0241 14.1824C14.9993 14.2643 14.9814 14.3677 14.9814 14.4103C14.9814 14.802 15.4442 15.2648 15.8359 15.2648C16.2276 15.2648 16.6904 14.802 16.6904 14.4103C16.6904 14.2145 16.5978 14.033 16.4056 13.8408C16.1419 13.5737 15.8998 13.5024 15.5866 13.6021ZM16.0494 14.1967C16.0956 14.2429 16.1207 14.3142 16.1207 14.4103C16.1207 14.599 16.0245 14.6951 15.8359 14.6951C15.6473 14.6951 15.5511 14.599 15.5511 14.4103C15.5511 14.2217 15.6473 14.1256 15.8359 14.1256C15.9318 14.1256 16.0031 14.1504 16.0494 14.1967Z" fill="#979797"/>
<path d="M14.1628 15.0261C13.9848 15.0831 13.6537 15.4248 13.6003 15.6064C13.5754 15.6883 13.5576 15.7916 13.5576 15.8343C13.5576 16.2259 14.0204 16.6887 14.4121 16.6887C14.8036 16.6887 15.2665 16.2259 15.2665 15.8343C15.2665 15.6384 15.174 15.457 14.9818 15.2647C14.7181 14.9976 14.476 14.9265 14.1628 15.0261ZM14.6256 15.6206C14.6718 15.6669 14.6968 15.7381 14.6968 15.8343C14.6968 16.0229 14.6007 16.119 14.4121 16.119C14.2234 16.119 14.1273 16.0229 14.1273 15.8343C14.1273 15.6456 14.2234 15.5495 14.4121 15.5495C14.508 15.5495 14.5793 15.5743 14.6256 15.6206Z" fill="#979797"/>
</svg>
