<svg width="36" height="36" viewBox="0 0 30 30" fill="none" xmlns="http://www.w3.org/2000/svg">
<path d="M12.7465 0.3552C10.1122 0.604498 7.40054 1.7376 5.32994 3.4641C0.423139 7.5462 -1.07806 14.2629 1.64534 19.9527C2.34554 21.4182 3.10484 22.4979 4.30334 23.7261C4.94414 24.3846 5.09234 24.5628 5.09234 24.705C5.09834 25.1976 5.43044 26.1528 5.85764 26.8944C6.23144 27.5412 7.20464 28.5141 7.85114 28.8879C8.86574 29.4753 9.59564 29.6772 10.7287 29.6772C11.8621 29.6772 12.5917 29.4756 13.6063 28.8879C14.1343 28.5795 15.1549 27.6183 15.4516 27.1494L15.6238 26.8647H17.374H19.1248L19.297 27.1494C19.5937 27.6183 20.614 28.5795 21.1423 28.8879C22.8808 29.8965 24.7558 29.9736 26.4763 29.1075C27.0994 28.7988 27.3958 28.5912 27.9061 28.1049C30.1846 25.9392 30.3091 22.5039 28.1851 20.2197C27.8173 19.8162 27.2299 19.3236 26.9452 19.1577C26.8741 19.122 26.8918 19.0152 27.0697 18.4932C28.7608 13.533 27.4849 8.0862 23.7472 4.3542C20.8276 1.4352 16.8049 -0.0303001 12.7465 0.3552ZM13.5772 1.5714L13.5712 1.9155L11.3461 3.2445L9.12104 4.5735L7.29944 4.7397C6.29684 4.8288 5.35934 4.9176 5.21084 4.9296L4.94384 4.9593L5.29994 4.6329C7.18664 2.8944 9.61934 1.7316 12.0934 1.3815C12.8053 1.2807 13.0426 1.257 13.3573 1.245L13.5769 1.233V1.5714H13.5772ZM16.0393 1.3875C18.4957 1.7376 20.9284 2.9064 22.8031 4.6329L23.1592 4.9593L22.8922 4.9296C22.744 4.9179 21.8065 4.8288 20.8036 4.7397L18.982 4.5735L16.7569 3.2445L14.5318 1.9155L14.5258 1.5654V1.2213L14.9887 1.257C15.2386 1.2807 15.7132 1.3401 16.0393 1.3875ZM14.5681 3.0549C14.8231 3.2031 15.0547 3.3456 15.0784 3.3693C15.1435 3.4287 14.8588 3.6303 12.4381 5.2263L10.3201 6.6267L10.0945 5.9445C9.90464 5.3571 9.88094 5.2503 9.95804 5.2089C10.0054 5.1792 10.9309 4.6215 12.0049 3.969C13.0849 3.3222 13.9924 2.7825 14.0341 2.7825C14.0755 2.7759 14.3128 2.9007 14.5681 3.0549ZM16.4488 4.1823C16.6447 4.3011 16.8583 4.4316 16.9177 4.473C17.0125 4.5384 16.6744 4.7757 14.0224 6.5379C12.373 7.6356 10.9963 8.5197 10.9726 8.5077C10.9489 8.49 10.8658 8.2764 10.7887 8.0271C10.6819 7.689 10.6642 7.5642 10.7176 7.5108C10.8184 7.41 15.9745 3.9747 16.0339 3.9687C16.0573 3.9627 16.2472 4.0635 16.4488 4.1823ZM18.1162 5.1789C18.229 5.268 18.229 5.2737 18.0628 5.7723C17.9737 6.0513 17.8669 6.3063 17.8255 6.3477C17.7841 6.3891 16.9354 6.9648 15.9445 7.6293L14.1349 8.8338L13.2271 8.8161L12.3133 8.7984L15.0961 6.9471C16.627 5.9265 17.9086 5.0901 17.938 5.0901C17.9737 5.0901 18.0508 5.1315 18.1162 5.1789ZM9.60194 7.3743C9.92834 8.3532 10.1953 9.1839 10.1953 9.2256C10.1953 9.3027 7.67954 13.9602 7.58474 14.067C7.56104 14.0967 6.73034 14.2983 5.73944 14.5239C4.41044 14.8206 3.91784 14.9097 3.87044 14.8563C3.83474 14.8206 3.34844 13.7763 2.78474 12.5304L1.75814 10.2699L1.97774 9.6825C2.26244 8.9172 2.69564 7.9974 3.07544 7.3686C3.45524 6.7455 4.07234 5.9091 4.13144 5.9445C4.15514 5.9565 5.24084 5.8674 6.54614 5.7486C7.85144 5.6241 8.93714 5.547 8.96684 5.5647C8.99084 5.5824 9.27554 6.4011 9.60194 7.3743ZM23.9722 5.9385C24.0316 5.9088 24.6484 6.7455 25.0282 7.3683C25.408 7.9971 25.8412 8.9169 26.1259 9.6822L26.3455 10.2696L25.3192 12.5301C24.7555 13.776 24.2689 14.8203 24.2335 14.856C24.1861 14.9094 23.6935 14.8203 22.3645 14.5236C21.3736 14.298 20.5429 14.0964 20.5192 14.0667C20.4244 13.9599 17.9086 9.3024 17.9086 9.2253C17.9086 9.1482 19.0597 5.6712 19.1131 5.5821C19.1308 5.5524 20.2225 5.6295 21.5398 5.7483C22.8568 5.8671 23.9485 5.9562 23.9722 5.9385ZM17.2024 8.3295L17.0305 8.7981L16.4491 8.8158C16.093 8.8278 15.8854 8.8098 15.9211 8.7801C16.0399 8.6733 17.3392 7.8249 17.3569 7.8426C17.3686 7.8549 17.2972 8.0745 17.2024 8.3295ZM18.4009 12.1506L19.6885 14.5239L18.6622 16.4106L17.6299 18.2916H14.0518H10.474L9.44174 16.4106L8.41544 14.5239L9.70304 12.1506L10.9963 9.7773H14.0518H17.1073L18.4009 12.1506ZM2.29814 13.7229L3.13484 15.5562V17.787V20.0238L2.99234 20.1543L2.84984 20.2908L2.70164 20.0298C2.61854 19.8933 2.44664 19.5315 2.31584 19.2408C1.60394 17.6091 1.23584 15.8409 1.23584 14.0253C1.23584 13.2006 1.37234 11.7885 1.44344 11.8596C1.45544 11.8716 1.84124 12.7083 2.29814 13.7229ZM26.8024 12.7497C26.9803 14.595 26.7727 16.458 26.203 18.1311C26.0548 18.5703 25.9954 18.6711 25.924 18.6474C25.8706 18.6237 25.6453 18.5583 25.4137 18.4992L24.9985 18.3924L24.9808 16.98L24.9688 15.5679L25.8112 13.7049C26.3926 12.4233 26.6656 11.8833 26.6953 11.9547C26.7193 12.0141 26.7667 12.3702 26.8024 12.7497ZM7.73294 15.2298C7.81604 15.402 7.81604 15.4077 7.65584 15.5205C7.56674 15.5856 6.73034 16.1493 5.79284 16.7724L4.08404 17.9058V16.8795V15.8472L5.82254 15.4557C6.77174 15.2421 7.57274 15.0642 7.59674 15.0642C7.62014 15.0579 7.67954 15.135 7.73294 15.2298ZM21.8125 15.3603L22.9516 15.6096L20.9104 16.9743C19.789 17.7219 18.8278 18.3213 18.7804 18.3093C18.721 18.2973 18.8161 18.072 19.1542 17.4609C19.4035 17.004 19.801 16.2741 20.0383 15.8412C20.3704 15.2361 20.4952 15.0579 20.5663 15.0816C20.6257 15.0993 21.1837 15.2238 21.8125 15.3603ZM24.0196 16.6716L24.0136 17.2827L23.2423 17.8047L22.471 18.3267L21.5455 18.309L20.62 18.2913L22.2754 17.1819C23.1892 16.5708 23.9485 16.0725 23.9782 16.0725C24.0019 16.0665 24.0196 16.3395 24.0196 16.6716ZM8.53394 16.6953C8.67044 16.9446 8.77124 17.1522 8.75954 17.1642C8.74754 17.1702 7.75694 17.8347 6.55244 18.6357C4.57064 19.9587 4.35134 20.0835 4.22654 20.0301C4.09604 19.9707 4.08404 19.9293 4.08404 19.5021V19.0452L6.17264 17.6448C7.32374 16.8735 8.26694 16.2447 8.27294 16.2447C8.27864 16.2444 8.39744 16.4463 8.53394 16.6953ZM9.36464 18.2142C9.42404 18.315 9.46544 18.4218 9.45374 18.4455C9.43604 18.4632 9.29954 18.5166 9.14534 18.5523C8.08934 18.8193 6.82544 19.7331 6.06584 20.7774L5.94704 20.9436L5.63864 20.7894C5.46644 20.7003 5.33024 20.6232 5.33024 20.6055C5.33024 20.5641 9.14534 18.0246 9.20474 18.0246C9.22814 18.0243 9.29924 18.1074 9.36464 18.2142ZM12.0049 19.4187C13.2805 19.7628 14.4256 20.712 14.9953 21.8988C15.3631 22.6641 15.4402 23.0262 15.4402 24.0171C15.4402 25.008 15.3631 25.3698 14.9953 26.1354C14.4199 27.3339 13.2925 28.2654 11.9752 28.6215C11.4352 28.7697 10.0231 28.7697 9.48314 28.6215C8.16584 28.2654 7.03874 27.3339 6.46304 26.1354C6.16634 25.5183 6.05354 25.0794 6.00614 24.3378C5.85194 21.8991 7.44794 19.8108 9.81524 19.3599C10.3909 19.2525 11.4886 19.2822 12.0049 19.4187ZM20.7268 19.401C20.3827 19.656 19.6708 20.3739 19.4155 20.73C18.5968 21.8751 18.217 23.2812 18.3712 24.5985C18.4069 24.9189 18.49 25.3461 18.5551 25.5477L18.6679 25.9155H17.3746H16.0813L16.1941 25.5654C16.7695 23.6964 16.2298 21.5961 14.794 20.1306C14.5033 19.8279 14.1652 19.5135 14.0524 19.4304L13.8448 19.2702H17.3752L20.9056 19.2762L20.7268 19.401ZM24.7318 19.3299C25.5448 19.4604 26.5297 19.8876 27.0754 20.3385C27.7756 20.9259 28.3867 21.8811 28.63 22.7712C28.7725 23.3112 28.7725 24.7233 28.624 25.2633C28.2679 26.5806 27.3364 27.7077 26.1379 28.2834C25.3726 28.6512 25.0105 28.7283 24.0196 28.7283C23.0287 28.7283 22.6669 28.6512 21.9013 28.2834C20.9698 27.8385 20.1985 27.0672 19.7533 26.1357C19.3855 25.3704 19.3084 25.0083 19.3084 24.0174C19.3084 23.0265 19.3855 22.6647 19.7476 21.9051C20.6437 20.0418 22.6549 19.0035 24.7318 19.3299ZM4.63574 21.3114L5.49614 21.7803L5.38934 22.0533C5.32994 22.2015 5.23514 22.5279 5.17574 22.7652L5.06894 23.2101L4.62974 22.7355C4.38644 22.4805 4.00094 22.0176 3.77534 21.7149L3.36014 21.1632L3.52634 20.9853C3.61544 20.8905 3.71024 20.8191 3.73394 20.8251C3.75764 20.8368 4.16114 21.0564 4.63574 21.3114Z" fill="#FFAB00"/>
<path d="M9.30529 21.3174V22.4151L10.0172 22.7712L10.7291 23.1273L11.441 22.7712L12.1529 22.4151V21.3174V20.2197H10.7288H9.30469V21.3174H9.30529ZM11.204 21.4953C11.204 21.8157 11.198 21.8217 10.9667 21.9402L10.7294 22.059L10.4921 21.9402C10.2608 21.8214 10.2548 21.8157 10.2548 21.4953V21.1689H10.7294H11.204V21.4953Z" fill="#FFAB00"/>
<path d="M6.93164 24.0171V25.4412H8.02934H9.12704L9.48314 24.7293L9.83924 24.0174L9.48314 23.3055L9.12704 22.593H8.02934H6.93164V24.0171ZM8.65214 23.7798L8.77094 24.0171L8.65214 24.2544C8.53334 24.4857 8.52764 24.4917 8.20724 24.4917H7.88084V24.0171V23.5425H8.20724C8.52764 23.5425 8.53364 23.5482 8.65214 23.7798Z" fill="#FFAB00"/>
<path d="M11.9752 23.3049L11.6191 24.0168L11.9752 24.7287L12.3313 25.4406H13.429H14.5267V24.0165V22.5924H13.429H12.3313L11.9752 23.3049ZM13.5772 24.0171V24.4917H13.2508C12.9304 24.4917 12.9244 24.4857 12.8059 24.2544L12.6871 24.0171L12.8059 23.7798C12.9247 23.5485 12.9304 23.5425 13.2508 23.5425H13.5772V24.0171Z" fill="#FFAB00"/>
<path d="M10.0059 25.269L9.30566 25.6191V26.7168V27.8145H10.7298H12.1539V26.7168V25.6191L11.4417 25.263C11.0502 25.0671 10.7238 24.9069 10.7178 24.9129C10.7058 24.9129 10.3854 25.0731 10.0059 25.269ZM10.9671 26.0937C11.1984 26.2125 11.2044 26.2182 11.2044 26.5386V26.865H10.7298H10.2552V26.5386C10.2552 26.2242 10.2612 26.2122 10.4808 26.0994C10.7535 25.9512 10.6941 25.9512 10.9671 26.0937Z" fill="#FFAB00"/>
<path d="M23.6043 20.2968C23.3076 20.3916 22.7559 20.9613 22.6668 21.264C22.6254 21.4005 22.5957 21.5727 22.5957 21.6438C22.5957 22.2963 23.367 23.0679 24.0198 23.0679C24.6723 23.0679 25.4439 22.2966 25.4439 21.6438C25.4439 21.3174 25.2897 21.0147 24.9693 20.6946C24.5298 20.2494 24.1263 20.1309 23.6043 20.2968ZM24.3756 21.2877C24.4527 21.3648 24.4944 21.4836 24.4944 21.6438C24.4944 21.9582 24.3342 22.1184 24.0198 22.1184C23.7054 22.1184 23.5452 21.9582 23.5452 21.6438C23.5452 21.4836 23.5866 21.3648 23.664 21.2877C23.7411 21.2106 23.8599 21.1689 24.0201 21.1689C24.1797 21.1692 24.2985 21.2106 24.3756 21.2877Z" fill="#FFAB00"/>
<path d="M21.2313 22.6701C20.9346 22.7649 20.3829 23.3346 20.2938 23.6373C20.2524 23.7738 20.2227 23.946 20.2227 24.0171C20.2227 24.6699 20.994 25.4412 21.6468 25.4412C22.2993 25.4412 23.0709 24.6699 23.0709 24.0171C23.0709 23.6907 22.9167 23.3883 22.5963 23.0679C22.1568 22.6227 21.7533 22.5039 21.2313 22.6701ZM22.0026 23.661C22.0797 23.7381 22.1214 23.8569 22.1214 24.0171C22.1214 24.3315 21.9612 24.4917 21.6468 24.4917C21.3324 24.4917 21.1722 24.3315 21.1722 24.0171C21.1722 23.7027 21.3324 23.5425 21.6468 23.5425C21.8067 23.5425 21.9255 23.5839 22.0026 23.661Z" fill="#FFAB00"/>
<path d="M25.9774 22.6701C25.6807 22.7649 25.129 23.3346 25.0399 23.6373C24.9985 23.7738 24.9688 23.946 24.9688 24.0171C24.9688 24.6699 25.7401 25.4412 26.3929 25.4412C27.0457 25.4412 27.817 24.6699 27.817 24.0171C27.817 23.6907 27.6628 23.3883 27.3424 23.0679C26.9029 22.6227 26.4994 22.5039 25.9774 22.6701ZM26.7487 23.661C26.8258 23.7381 26.8675 23.8569 26.8675 24.0171C26.8675 24.3315 26.7073 24.4917 26.3929 24.4917C26.0785 24.4917 25.9183 24.3315 25.9183 24.0171C25.9183 23.7027 26.0785 23.5425 26.3929 23.5425C26.5528 23.5425 26.6716 23.5839 26.7487 23.661Z" fill="#FFAB00"/>
<path d="M23.6043 25.0434C23.3076 25.1385 22.7559 25.7079 22.6668 26.0106C22.6254 26.1471 22.5957 26.3193 22.5957 26.3904C22.5957 27.0432 23.367 27.8145 24.0198 27.8145C24.6723 27.8145 25.4439 27.0432 25.4439 26.3904C25.4439 26.064 25.2897 25.7616 24.9693 25.4412C24.5298 24.996 24.1263 24.8775 23.6043 25.0434ZM24.3756 26.0343C24.4527 26.1114 24.4944 26.2302 24.4944 26.3904C24.4944 26.7048 24.3342 26.865 24.0198 26.865C23.7054 26.865 23.5452 26.7048 23.5452 26.3904C23.5452 26.076 23.7054 25.9158 24.0198 25.9158C24.1797 25.9158 24.2985 25.9572 24.3756 26.0343Z" fill="#FFAB00"/>
</svg>
