<svg width="36" height="36" viewBox="0 0 30 30" fill="none" xmlns="http://www.w3.org/2000/svg">
<path d="M29.0917 9.98361L11.976 0.101403C11.7425 -0.0338011 11.3615 -0.0338011 11.1218 0.101403L0.920007 6.03196C0.686473 6.16716 0.686473 6.38841 0.920007 6.52361L18.0357 16.4058C18.2753 16.541 18.6502 16.541 18.8899 16.4058L29.0978 10.4753C29.3252 10.3401 29.3252 10.1188 29.0917 9.98361ZM20.1682 14.1258C20.076 14.0336 19.9592 13.9476 19.824 13.8738C18.9514 13.3699 17.544 13.3699 16.6775 13.8738C16.6099 13.9107 16.5545 13.9537 16.4992 13.9967L4.96999 7.32869C5.08061 7.28567 5.18509 7.23651 5.28342 7.17505C6.14996 6.67111 6.14381 5.85373 5.27113 5.35594C5.1728 5.30062 5.07447 5.25146 4.96999 5.20844L9.72673 2.4429C9.80048 2.50435 9.88037 2.55966 9.9787 2.62112C10.8514 3.12506 12.2587 3.12506 13.1253 2.62112C13.2236 2.56581 13.3096 2.50435 13.3834 2.43675L24.9495 9.11707C24.7959 9.17239 24.6545 9.23384 24.5193 9.30759C23.6528 9.81153 23.6589 10.6289 24.5316 11.1267C24.6668 11.2066 24.8143 11.2681 24.9741 11.3234L20.1682 14.1258ZM21.5633 11.6061L20.8073 12.0424C20.6906 12.11 20.5062 12.11 20.3894 12.0424L19.0681 11.2803C18.9514 11.2127 18.9514 11.1021 19.0681 11.0345L19.824 10.5982C19.9408 10.5306 20.1252 10.5306 20.2481 10.5982L21.5694 11.3602C21.68 11.4278 21.68 11.5385 21.5633 11.6061ZM10.9436 5.4727L10.1877 5.90904C10.0709 5.97665 9.88651 5.97665 9.76975 5.90904L8.44843 5.14698C8.33166 5.07938 8.33166 4.96876 8.44843 4.90116L9.20435 4.46482C9.32111 4.39721 9.50548 4.39721 9.6284 4.46482L10.9436 5.22688C11.0603 5.29448 11.0603 5.4051 10.9436 5.4727ZM27.9363 13.0196L29.2699 13.7878L18.5703 20.001L18.22 19.7982L17.2367 19.2328L0.729492 9.69477L2.05081 8.92656L18.5642 18.4646L27.9363 13.0196ZM17.2613 22.5761L0.729492 13.0196L2.05081 12.2514L18.5765 21.8078L27.9117 16.3812L29.2392 17.1494L18.5888 23.3443L18.2446 23.1476L17.2613 22.5761ZM27.9363 19.6753L29.2699 20.4435L18.5703 26.6568L18.22 26.454L17.2367 25.8886L0.729492 16.3505L2.05081 15.5823L18.5642 25.1204L27.9363 19.6753ZM17.2613 29.2318L0.729492 19.6753L2.05081 18.9071L18.5765 28.4636L27.9117 23.037L29.2392 23.8052L18.5888 30L18.2446 29.8033L17.2613 29.2318ZM18.3982 6.28393C16.5115 5.19615 13.4633 5.19615 11.5889 6.28393C9.72058 7.37171 9.72673 9.13551 11.6134 10.2233C13.494 11.3111 16.5484 11.3111 18.4167 10.2233C20.2911 9.13551 20.2788 7.37171 18.3982 6.28393ZM14.4712 8.81594H13.1437V8.04773V7.30411L14.4712 7.31025V8.04773L17.501 8.05388V8.82208L14.4712 8.81594Z" fill="#FFAB00"/>
</svg>
