<svg width="23" height="23" viewBox="0 0 23 23" fill="none" xmlns="http://www.w3.org/2000/svg">
<path d="M22.3039 7.6541L9.18192 0.0777425C9.00288 -0.0259142 8.71075 -0.0259142 8.527 0.0777425L0.705632 4.6245C0.526589 4.72816 0.526589 4.89778 0.705632 5.00143L13.8276 12.5778C14.0114 12.6815 14.2988 12.6815 14.4825 12.5778L22.3086 8.03104C22.483 7.92738 22.483 7.75776 22.3039 7.6541ZM15.4626 10.8298C15.3919 10.7591 15.3024 10.6931 15.1987 10.6366C14.5297 10.2502 13.4507 10.2502 12.7863 10.6366C12.7345 10.6649 12.6921 10.6978 12.6497 10.7308L3.81062 5.61866C3.89543 5.58568 3.97553 5.54799 4.05092 5.50087C4.71526 5.11451 4.71055 4.48786 4.04149 4.10622C3.96611 4.06381 3.89072 4.02612 3.81062 3.99314L7.45745 1.87289C7.51399 1.92 7.57524 1.96241 7.65063 2.00953C8.31969 2.39588 9.39866 2.39588 10.063 2.00953C10.1384 1.96712 10.2044 1.92 10.2609 1.86818L19.1282 6.98976C19.0105 7.03216 18.9021 7.07928 18.7984 7.13582C18.1341 7.52218 18.1388 8.14883 18.8079 8.53047C18.9115 8.59172 19.0246 8.63884 19.1471 8.68125L15.4626 10.8298ZM16.5321 8.89798L15.9526 9.23251C15.8631 9.28434 15.7217 9.28434 15.6322 9.23251L14.6192 8.64826C14.5297 8.59644 14.5297 8.51163 14.6192 8.4598L15.1987 8.12527C15.2882 8.07344 15.4296 8.07344 15.5238 8.12527L16.5368 8.70952C16.6216 8.76134 16.6216 8.84615 16.5321 8.89798ZM8.39036 4.19574L7.81083 4.53027C7.7213 4.5821 7.57995 4.5821 7.49043 4.53027L6.47742 3.94602C6.3879 3.89419 6.3879 3.80938 6.47742 3.75755L7.05696 3.42303C7.14648 3.3712 7.28783 3.3712 7.38206 3.42303L8.39036 4.00727C8.47988 4.0591 8.47988 4.14391 8.39036 4.19574ZM21.4181 9.98167L22.4406 10.5706L14.2375 15.3341L13.969 15.1786L13.2151 14.7452L0.55957 7.43265L1.57258 6.8437L14.2328 14.1562L21.4181 9.98167ZM13.234 17.3083L0.55957 9.98167L1.57258 9.39271L14.2423 16.7193L21.3993 12.5589L22.417 13.1479L14.2517 17.8973L13.9878 17.7465L13.234 17.3083ZM21.4181 15.0844L22.4406 15.6734L14.2375 20.4369L13.969 20.2814L13.2151 19.8479L0.55957 12.5354L1.57258 11.9464L14.2328 19.2589L21.4181 15.0844ZM13.234 22.411L0.55957 15.0844L1.57258 14.4954L14.2423 21.8221L21.3993 17.6617L22.417 18.2506L14.2517 23L13.9878 22.8492L13.234 22.411ZM14.1056 4.81768C12.6591 3.98371 10.3221 3.98371 8.88509 4.81768C7.45274 5.65164 7.45745 7.00389 8.90393 7.83786C10.3457 8.67182 12.6874 8.67182 14.1197 7.83786C15.5568 7.00389 15.5474 5.65164 14.1056 4.81768ZM11.0949 6.75889H10.0771V6.16993V5.59982L11.0949 5.60453V6.16993L13.4177 6.17464V6.7636L11.0949 6.75889Z" fill="#979797"/>
</svg>
