<svg width="18" height="17" viewBox="0 0 18 17" fill="none" xmlns="http://www.w3.org/2000/svg">
<g filter="url(#filter0_d_488_9985)">
<path d="M4.4886 3.95007H3.6114C3.2742 3.95007 3 4.22427 3 4.56147V5.43867C3 5.77587 3.2742 6.05007 3.6114 6.05007H4.4886C4.8258 6.05007 5.1 5.77587 5.1 5.43867V4.56147C5.1 4.22427 4.8258 3.95007 4.4886 3.95007ZM4.5 5.43867C4.5 5.44497 4.4949 5.45007 4.4886 5.45007L3.6 5.43867L3.6114 4.55007L4.5 4.56147V5.43867Z" fill="#979797"/>
<path d="M7.7884 3.95007H6.9112C6.574 3.95007 6.2998 4.22427 6.2998 4.56147V5.43867C6.2998 5.77587 6.574 6.05007 6.9112 6.05007H7.7884C8.1256 6.05007 8.3998 5.77587 8.3998 5.43867V4.56147C8.3998 4.22427 8.1256 3.95007 7.7884 3.95007ZM7.7998 5.43867C7.7998 5.44497 7.7947 5.45007 7.7884 5.45007L6.8998 5.43867L6.9112 4.55007L7.7998 4.56147V5.43867Z" fill="#979797"/>
<path d="M10.211 6.05007H11.0882C11.4254 6.05007 11.6996 5.77587 11.6996 5.43867V4.56147C11.6996 4.22427 11.4254 3.95007 11.0882 3.95007H10.211C9.87381 3.95007 9.59961 4.22427 9.59961 4.56147V5.43867C9.59961 5.77587 9.87381 6.05007 10.211 6.05007ZM10.211 4.55007L11.0996 4.56147V5.43867C11.0996 5.44497 11.0945 5.45007 11.0882 5.45007L10.1996 5.43867L10.211 4.55007Z" fill="#979797"/>
<path d="M13.5118 6.05007H14.389C14.7262 6.05007 15.0004 5.77587 15.0004 5.43867V4.56147C15.0004 4.22427 14.7262 3.95007 14.389 3.95007H13.5118C13.1746 3.95007 12.9004 4.22427 12.9004 4.56147V5.43867C12.9004 5.77587 13.1746 6.05007 13.5118 6.05007ZM13.5118 4.55007L14.4004 4.56147V5.43867C14.4004 5.44497 14.395 5.45007 14.389 5.45007L13.5004 5.43867L13.5118 4.55007Z" fill="#979797"/>
<path d="M4.4886 7.25H3.6114C3.2742 7.25 3 7.5242 3 7.8614V8.7386C3 9.0758 3.2742 9.35 3.6114 9.35H4.4886C4.8258 9.35 5.1 9.0758 5.1 8.7386V7.8614C5.1 7.5242 4.8258 7.25 4.4886 7.25ZM4.5 8.7386C4.5 8.7449 4.4949 8.75 4.4886 8.75L3.6 8.7386L3.6114 7.85L4.5 7.8614V8.7386Z" fill="#979797"/>
<path d="M7.7884 7.25H6.9112C6.574 7.25 6.2998 7.5242 6.2998 7.8614V8.7386C6.2998 9.0758 6.574 9.35 6.9112 9.35H7.7884C8.1256 9.35 8.3998 9.0758 8.3998 8.7386V7.8614C8.3998 7.5242 8.1256 7.25 7.7884 7.25ZM7.7998 8.7386C7.7998 8.7449 7.7947 8.75 7.7884 8.75L6.8998 8.7386L6.9112 7.85L7.7998 7.8614V8.7386Z" fill="#979797"/>
<path d="M10.211 9.35H11.0882C11.4254 9.35 11.6996 9.0758 11.6996 8.7386V7.8614C11.6996 7.5242 11.4254 7.25 11.0882 7.25H10.211C9.87381 7.25 9.59961 7.5242 9.59961 7.8614V8.7386C9.59961 9.0758 9.87381 9.35 10.211 9.35ZM10.211 7.85L11.0996 7.8614V8.7386C11.0996 8.7449 11.0945 8.75 11.0882 8.75L10.1996 8.7386L10.211 7.85Z" fill="#979797"/>
<path d="M13.5118 9.35H14.389C14.7262 9.35 15.0004 9.0758 15.0004 8.7386V7.8614C15.0004 7.5242 14.7262 7.25 14.389 7.25H13.5118C13.1746 7.25 12.9004 7.5242 12.9004 7.8614V8.7386C12.9004 9.0758 13.1746 9.35 13.5118 9.35ZM13.5118 7.85L14.4004 7.8614V8.7386C14.4004 8.7449 14.395 8.75 14.389 8.75L13.5004 8.7386L13.5118 7.85Z" fill="#979797"/>
<path d="M18 12.65V0.650024H0V12.65H8.7V13.85H4.5V15.35H13.5V13.85H9.3V12.65H18ZM12.9 14.45V14.75H5.1V14.45H12.9ZM0.6 1.25002H17.4V12.05H0.6V1.25002Z" fill="#979797"/>
</g>
<defs>
<filter id="filter0_d_488_9985" x="-4" y="0.650024" width="26" height="22.7" filterUnits="userSpaceOnUse" color-interpolation-filters="sRGB">
<feFlood flood-opacity="0" result="BackgroundImageFix"/>
<feColorMatrix in="SourceAlpha" type="matrix" values="0 0 0 0 0 0 0 0 0 0 0 0 0 0 0 0 0 0 127 0" result="hardAlpha"/>
<feOffset dy="4"/>
<feGaussianBlur stdDeviation="2"/>
<feComposite in2="hardAlpha" operator="out"/>
<feColorMatrix type="matrix" values="0 0 0 0 0 0 0 0 0 0 0 0 0 0 0 0 0 0 0.25 0"/>
<feBlend mode="normal" in2="BackgroundImageFix" result="effect1_dropShadow_488_9985"/>
<feBlend mode="normal" in="SourceGraphic" in2="effect1_dropShadow_488_9985" result="shape"/>
</filter>
</defs>
</svg>
