<svg width="36" height="36" viewBox="0 0 27 26" fill="none" xmlns="http://www.w3.org/2000/svg">
<path d="M6.58994 6.25H5.30199C4.80689 6.25 4.4043 6.707 4.4043 7.269V8.731C4.4043 9.293 4.80689 9.75 5.30199 9.75H6.58994C7.08504 9.75 7.48763 9.293 7.48763 8.731V7.269C7.48763 6.707 7.08504 6.25 6.58994 6.25ZM6.60668 8.731C6.60668 8.7415 6.59919 8.75 6.58994 8.75L5.28525 8.731L5.30199 7.25L6.60668 7.269V8.731Z" fill="#FFAB00"/>
<path d="M11.4356 6.25H10.1477C9.6526 6.25 9.25 6.707 9.25 7.269V8.731C9.25 9.293 9.6526 9.75 10.1477 9.75H11.4356C11.9307 9.75 12.3333 9.293 12.3333 8.731V7.269C12.3333 6.707 11.9307 6.25 11.4356 6.25ZM11.4524 8.731C11.4524 8.7415 11.4449 8.75 11.4356 8.75L10.131 8.731L10.1477 7.25L11.4524 7.269V8.731Z" fill="#FFAB00"/>
<path d="M14.9934 9.75H16.2813C16.7764 9.75 17.179 9.293 17.179 8.731V7.269C17.179 6.707 16.7764 6.25 16.2813 6.25H14.9934C14.4983 6.25 14.0957 6.707 14.0957 7.269V8.731C14.0957 9.293 14.4983 9.75 14.9934 9.75ZM14.9934 7.25L16.2981 7.269V8.731C16.2981 8.7415 16.2906 8.75 16.2813 8.75L14.9767 8.731L14.9934 7.25Z" fill="#FFAB00"/>
<path d="M19.8381 9.75H21.1261C21.6212 9.75 22.0238 9.293 22.0238 8.731V7.269C22.0238 6.707 21.6212 6.25 21.1261 6.25H19.8381C19.343 6.25 18.9404 6.707 18.9404 7.269V8.731C18.9404 9.293 19.343 9.75 19.8381 9.75ZM19.8381 7.25L21.1428 7.269V8.731C21.1428 8.7415 21.1349 8.75 21.1261 8.75L19.8214 8.731L19.8381 7.25Z" fill="#FFAB00"/>
<path d="M6.58994 11.75H5.30199C4.80689 11.75 4.4043 12.207 4.4043 12.769V14.231C4.4043 14.793 4.80689 15.25 5.30199 15.25H6.58994C7.08504 15.25 7.48763 14.793 7.48763 14.231V12.769C7.48763 12.207 7.08504 11.75 6.58994 11.75ZM6.60668 14.231C6.60668 14.2415 6.59919 14.25 6.58994 14.25L5.28525 14.231L5.30199 12.75L6.60668 12.769V14.231Z" fill="#FFAB00"/>
<path d="M11.4356 11.75H10.1477C9.6526 11.75 9.25 12.207 9.25 12.769V14.231C9.25 14.793 9.6526 15.25 10.1477 15.25H11.4356C11.9307 15.25 12.3333 14.793 12.3333 14.231V12.769C12.3333 12.207 11.9307 11.75 11.4356 11.75ZM11.4524 14.231C11.4524 14.2415 11.4449 14.25 11.4356 14.25L10.131 14.231L10.1477 12.75L11.4524 12.769V14.231Z" fill="#FFAB00"/>
<path d="M14.9934 15.25H16.2813C16.7764 15.25 17.179 14.793 17.179 14.231V12.769C17.179 12.207 16.7764 11.75 16.2813 11.75H14.9934C14.4983 11.75 14.0957 12.207 14.0957 12.769V14.231C14.0957 14.793 14.4983 15.25 14.9934 15.25ZM14.9934 12.75L16.2981 12.769V14.231C16.2981 14.2415 16.2906 14.25 16.2813 14.25L14.9767 14.231L14.9934 12.75Z" fill="#FFAB00"/>
<path d="M19.8381 15.25H21.1261C21.6212 15.25 22.0238 14.793 22.0238 14.231V12.769C22.0238 12.207 21.6212 11.75 21.1261 11.75H19.8381C19.343 11.75 18.9404 12.207 18.9404 12.769V14.231C18.9404 14.793 19.343 15.25 19.8381 15.25ZM19.8381 12.75L21.1428 12.769V14.231C21.1428 14.2415 21.1349 14.25 21.1261 14.25L19.8214 14.231L19.8381 12.75Z" fill="#FFAB00"/>
<path d="M26.4286 20.75V0.75H0V20.75H12.7738V22.75H6.60714V25.25H19.8214V22.75H13.6548V20.75H26.4286ZM18.9405 23.75V24.25H7.4881V23.75H18.9405ZM0.880952 1.75H25.5476V19.75H0.880952V1.75Z" fill="#FFAB00"/>
</svg>
