<svg width="18" height="18" viewBox="0 0 18 18" fill="none" xmlns="http://www.w3.org/2000/svg">
<path d="M6.3248 9.54846H2.33105V12.5543H6.3248V9.54846ZM5.59004 11.8231H3.0623V10.2832H5.59004V11.8231Z" fill="#979797"/>
<path d="M13.4715 14.3894H6.28906V15.1242H13.4715V14.3894Z" fill="#979797"/>
<path d="M15.9258 0.386719H4.25742C3.33984 0.386719 2.56992 1.15664 2.56992 2.07422V7.09453H2.07422C1.15664 7.09453 0.386719 7.86445 0.386719 8.78203V15.9258C0.386719 16.8434 1.15664 17.6133 2.07422 17.6133H14.0977C15.0152 17.6133 15.7852 16.8434 15.7852 15.8906V10.9055H15.9328C16.8504 10.9055 17.6203 10.1355 17.6203 9.18281V2.07422C17.6133 1.15664 16.8434 0.386719 15.9258 0.386719ZM4.25742 1.12148H15.9258C16.4391 1.12148 16.8785 1.56094 16.8785 2.07422V2.80898H3.30469V2.07422C3.30469 1.56094 3.74414 1.12148 4.25742 1.12148ZM15.0469 15.8906C15.0469 16.4039 14.6074 16.8434 14.0941 16.8434H2.07422C1.56094 16.8434 1.12148 16.4039 1.12148 15.8906V8.77852C1.12148 8.26523 1.56094 7.82578 2.07422 7.82578H14.0977C14.6109 7.82578 15.0504 8.26523 15.0504 8.77852V15.8906H15.0469ZM15.9258 10.1742H15.7781V8.78203C15.7781 7.86445 15.0082 7.09453 14.0906 7.09453H3.30469V3.54023H16.8785V9.22148C16.8785 9.73477 16.4391 10.1742 15.9258 10.1742Z" fill="#979797"/>
</svg>
