<svg width="19" height="19" viewBox="0 0 19 19" fill="none" xmlns="http://www.w3.org/2000/svg">
<path d="M18.9965 6.64995C18.9652 6.10813 18.3207 5.68475 17.0319 5.36175C17.0753 5.26675 17.0997 5.16795 17.1 5.06535V2.84995H17.0946C16.9813 1.00442 9.41862 0.949951 8.55 0.949951C7.68138 0.949951 0.11875 1.00442 0.00538333 2.84995H0V2.89112V5.0663C0.00158333 5.66797 0.77805 6.13885 1.93325 6.4894C1.91742 6.54197 1.90792 6.59548 1.90475 6.64995H1.9V6.69112V8.8625C0.6555 9.18297 0.0338833 9.60033 0.00316667 10.1333H0V10.1745V12.3496C0.00095 12.7686 0.378733 13.1239 0.996867 13.42C0.973433 13.4843 0.958867 13.5498 0.95475 13.6169H0.95V13.6581V15.8333C0.952533 16.8865 3.32405 17.5404 5.95903 17.8457C5.97835 17.8495 5.99608 17.8574 6.01667 17.8574C6.02268 17.8574 6.02775 17.8543 6.03377 17.8539C6.5417 17.9113 7.05787 17.9559 7.56865 17.9879C7.57942 17.9892 7.58892 17.9942 7.6 17.9942C7.60602 17.9942 7.61077 17.9911 7.61647 17.9907C8.265 18.03 8.90308 18.05 9.5 18.05C10.0969 18.05 10.735 18.03 11.3835 17.9904C11.3892 17.9907 11.3943 17.9939 11.4 17.9939C11.4111 17.9939 11.4206 17.9885 11.4313 17.9876C11.9421 17.9556 12.4583 17.9113 12.9662 17.8536C12.9722 17.8536 12.9773 17.8568 12.9833 17.8568C13.0039 17.8568 13.0216 17.8489 13.041 17.8451C15.676 17.5398 18.0471 16.8856 18.05 15.832V13.6166H18.0449C18.0228 13.2284 17.6919 12.9044 17.0382 12.6337C17.0781 12.5422 17.1 12.4472 17.1 12.3487V10.279C18.2368 9.92935 18.9984 9.46163 19 8.86535V6.64995H18.9965ZM16.4325 12.4516L16.3245 12.5463C16.1582 12.6929 15.8812 12.8408 15.5167 12.9833V11.4734C15.8932 11.3423 16.2136 11.197 16.4667 11.0377V12.3481C16.4667 12.3807 16.4546 12.4155 16.4325 12.4516ZM9.3499 13.9232C9.30367 13.9244 9.25712 13.9251 9.21057 13.926C9.09752 13.9282 8.98162 13.9289 8.86698 13.9298V12.3481C8.95407 12.3471 9.04115 12.3458 9.12823 12.3443C9.14502 12.3439 9.1618 12.3436 9.17858 12.3433C9.49747 12.3373 9.81635 12.3275 10.1336 12.3129V13.894C10.0659 13.8975 9.9978 13.9007 9.92908 13.9035C9.73845 13.9121 9.54592 13.9184 9.3499 13.9232ZM7.96702 13.9276C7.82198 13.9251 7.67758 13.9216 7.53413 13.9171C7.5164 13.9165 7.49867 13.9159 7.48093 13.9152C7.30835 13.9095 7.13703 13.9023 6.96698 13.894V12.3132C7.28428 12.3281 7.60317 12.3379 7.92205 12.3436C7.93883 12.3439 7.95562 12.3443 7.97208 12.3446C8.05917 12.3462 8.14625 12.3474 8.23333 12.3484V13.9311C8.1719 13.9304 8.11047 13.9304 8.04935 13.9295C8.02148 13.9289 7.99457 13.9279 7.96702 13.9276ZM2.24738 13.2056C2.23693 13.2024 2.22712 13.1996 2.21667 13.1967V11.6669C2.51243 11.7467 2.83037 11.8195 3.16667 11.8857V13.4314C2.87597 13.3696 2.60775 13.3047 2.3636 13.2382C2.32497 13.2271 2.28507 13.2167 2.24738 13.2056ZM8.92208 15.8279C9.00917 15.8295 9.09625 15.8308 9.18333 15.8317V17.4147C8.7457 17.4106 8.32327 17.3979 7.91667 17.378V15.7969C8.23397 15.8118 8.55285 15.8216 8.87173 15.8273C8.88852 15.8273 8.9053 15.8276 8.92208 15.8279ZM10.1283 15.827C10.4471 15.8209 10.766 15.8111 11.0833 15.7966V17.3777C10.6767 17.3976 10.2543 17.4103 9.81667 17.4144V15.8314C9.90375 15.8304 9.99083 15.8292 10.0779 15.8276C10.0947 15.8276 10.1115 15.8273 10.1283 15.827ZM12.6667 15.6838V17.2564C12.3623 17.2884 12.0457 17.3166 11.7167 17.3397V15.7605C12.0378 15.7396 12.3551 15.7139 12.6667 15.6838ZM13.3 15.6154C13.6265 15.5762 13.9435 15.5315 14.25 15.4818V17.0366C13.9517 17.0892 13.6347 17.1376 13.3 17.1817V15.6154ZM14.8833 15.3687C15.2196 15.3026 15.5376 15.2297 15.8333 15.1499V16.6797C15.5512 16.7611 15.2336 16.84 14.8833 16.9144V15.3687ZM4.11667 15.3687V16.9144C3.76643 16.84 3.44882 16.7611 3.16667 16.6797V15.1499C3.46243 15.2297 3.78037 15.3029 4.11667 15.3687ZM4.75 15.4821C5.05653 15.5318 5.37352 15.5765 5.7 15.6157V17.182C5.36528 17.138 5.0483 17.0895 4.75 17.0369V15.4821ZM6.33333 15.6838C6.64493 15.7139 6.96223 15.7396 7.28333 15.7608V17.34C6.95432 17.3169 6.63765 17.2887 6.33333 17.2567V15.6838ZM5.54768 13.7902C5.51538 13.787 5.4834 13.7835 5.45142 13.7803C5.42862 13.7781 5.40613 13.7753 5.38333 13.7731V12.2008C5.69493 12.2309 6.01223 12.2565 6.33333 12.2778V13.8557C6.06733 13.8367 5.8045 13.8152 5.54768 13.7902ZM4.75 12.1321V13.6983C4.41528 13.6543 4.0983 13.6059 3.8 13.5533V11.9985C4.10653 12.0482 4.42352 12.0931 4.75 12.1321ZM10.9776 13.8408C10.9079 13.8462 10.8376 13.8516 10.7667 13.8567V12.2774C11.0878 12.2562 11.4051 12.2309 11.7167 12.2005V13.7731C11.521 13.7936 11.3208 13.813 11.1153 13.8297C11.0694 13.8339 11.0235 13.8373 10.9776 13.8408ZM12.35 13.6983V12.1321C12.6765 12.0928 12.9935 12.0482 13.3 11.9985V13.5533C13.0017 13.6059 12.6847 13.6546 12.35 13.6983ZM13.9333 11.8854C14.2696 11.8192 14.5876 11.7464 14.8833 11.6666V13.1964C14.6012 13.2778 14.2836 13.3566 13.9333 13.4311V11.8854ZM9.60292 10.4389C9.36478 10.4329 9.13203 10.4237 8.9034 10.4126C8.89105 10.412 8.8787 10.4113 8.86667 10.411V8.82988C9.18397 8.84477 9.50285 8.85458 9.82173 8.86028C9.83852 8.8606 9.8553 8.86092 9.87177 8.86123C9.95885 8.86282 10.0459 8.86408 10.133 8.86503V10.4462C9.9788 10.4446 9.82332 10.4439 9.6729 10.4405C9.64978 10.4398 9.62603 10.4395 9.60292 10.4389ZM2.21667 5.91338V4.38357C2.51243 4.46337 2.83037 4.5362 3.16667 4.60238V6.14803C3.12772 6.1398 3.0875 6.13157 3.0495 6.12333C2.88103 6.08628 2.71668 6.04765 2.55962 6.0068C2.43992 5.97608 2.32623 5.94473 2.21667 5.91338ZM7.97208 5.06123C8.05917 5.06282 8.14625 5.06408 8.23333 5.06503V6.64615C7.8071 6.64203 7.3834 6.63095 6.96667 6.61005V5.0302C7.28397 5.04508 7.60285 5.0549 7.92173 5.0606C7.93852 5.0606 7.9553 5.06092 7.97208 5.06123ZM9.17827 5.06028C9.49715 5.05427 9.81603 5.04445 10.1333 5.02988V6.60973C10.0795 6.61227 10.0279 6.61607 9.97373 6.6186C9.9693 6.61892 9.96487 6.61892 9.96012 6.61923C9.74763 6.62873 9.53103 6.6357 9.31158 6.64077C9.27738 6.64172 9.24318 6.64203 9.20898 6.64298C9.09625 6.6452 8.98098 6.64552 8.86667 6.64678V5.06503C8.95375 5.06408 9.04083 5.06282 9.12792 5.06123C9.1447 5.06092 9.16148 5.0606 9.17827 5.06028ZM16.3941 5.21925L16.3853 5.21735L16.27 5.30697C16.1028 5.43712 15.846 5.56885 15.5167 5.69615V4.18977C15.8932 4.05867 16.2136 3.91332 16.4667 3.75403V5.0644C16.4667 5.11253 16.4413 5.16447 16.3941 5.21925ZM12.35 6.41308V4.84875C12.6765 4.80948 12.9935 4.76483 13.3 4.71512V6.26742C12.9998 6.32062 12.6838 6.36938 12.35 6.41308ZM13.9333 6.1455V4.60238C14.2696 4.5362 14.5876 4.46337 14.8833 4.38357V5.9099C14.5996 5.99255 14.2801 6.0714 13.9333 6.1455ZM11.7167 4.91715V6.48782C11.4108 6.52012 11.0941 6.5483 10.7667 6.57173V4.9941C11.0878 4.97288 11.4051 4.94723 11.7167 4.91715ZM5.38333 6.48845V4.91715C5.69493 4.94723 6.01223 4.97288 6.33333 4.9941V6.57047C6.01097 6.54735 5.69303 6.52107 5.38333 6.48845ZM4.75 4.84875V6.4134C4.6873 6.40517 4.62207 6.39852 4.56 6.38997C4.51947 6.38427 4.48083 6.37825 4.44093 6.37255C4.2579 6.34627 4.07898 6.31808 3.90355 6.28863C3.8684 6.28262 3.83452 6.27628 3.8 6.27027V4.71543C4.10653 4.76483 4.42352 4.8098 4.75 4.84875ZM8.1548 10.3673C8.11205 10.3641 8.06898 10.361 8.02655 10.3578C7.82388 10.342 7.62597 10.3246 7.4328 10.3052C7.39132 10.3011 7.34983 10.2967 7.30867 10.2926C7.30012 10.2916 7.29188 10.2904 7.28333 10.2897V8.71715C7.59493 8.74723 7.91223 8.77288 8.23333 8.7941V10.3724C8.20768 10.3705 8.18045 10.3692 8.1548 10.3673ZM6.06258 10.1308C5.93718 10.1108 5.81938 10.0893 5.7 10.0684V8.51543C6.00653 8.56515 6.32352 8.6098 6.65 8.64907V10.2153C6.4562 10.1897 6.26652 10.1631 6.08443 10.1346C6.07715 10.133 6.06987 10.1317 6.06258 10.1308ZM5.06667 8.40207V9.94518C4.71675 9.87013 4.39945 9.79033 4.11667 9.70737V8.18325C4.41243 8.26305 4.73037 8.3362 5.06667 8.40207ZM3.48333 7.98977V9.49425C2.98553 9.30203 2.66443 9.1057 2.55993 8.9309L2.53872 8.89543C2.53682 8.88562 2.53365 8.87517 2.53333 8.86535V7.55403C2.78635 7.71332 3.10682 7.85867 3.48333 7.98977ZM11.0783 8.86028C11.3972 8.85427 11.716 8.84445 12.0333 8.82988V10.4094C11.6172 10.43 11.1942 10.4414 10.7667 10.4458V8.86503C10.8538 8.86408 10.9408 8.86282 11.0279 8.86123C11.0447 8.86092 11.0615 8.8606 11.0783 8.86028ZM15.1706 10.0753C15.0315 10.0994 14.8912 10.1232 14.7472 10.145C14.6645 10.1577 14.58 10.1697 14.4951 10.1817C14.415 10.1931 14.3317 10.203 14.2503 10.2134V8.64875C14.5768 8.60948 14.8938 8.56483 15.2003 8.51512V10.07C15.1902 10.0719 15.1804 10.0738 15.1706 10.0753ZM13.0264 10.3458C12.9083 10.3556 12.7864 10.3619 12.6667 10.3705V8.7941C12.9878 8.77288 13.3051 8.74755 13.6167 8.71715V10.2881C13.4327 10.3075 13.249 10.3268 13.06 10.3426C13.0486 10.3436 13.0378 10.3448 13.0264 10.3458ZM16.6453 9.75202C16.4876 9.79603 16.3207 9.8372 16.1503 9.87742C16.0715 9.89578 15.991 9.91415 15.9087 9.93188C15.8843 9.93727 15.8583 9.94202 15.8336 9.9474V8.40238C16.17 8.3362 16.4879 8.26337 16.7836 8.18357V9.71338C16.7381 9.72605 16.6921 9.73903 16.6453 9.75202ZM18.3632 6.67053C18.334 6.88555 17.8467 7.1715 16.9768 7.44035C15.8565 7.78647 14.1034 8.10345 11.8816 8.20162C11.768 8.20637 11.6546 8.21112 11.5387 8.21492C11.444 8.21808 11.349 8.22093 11.2524 8.22347C10.9902 8.22917 10.7242 8.23328 10.45 8.23328C10.1758 8.23328 9.90977 8.22917 9.64757 8.22315C9.5513 8.22093 9.4563 8.21777 9.3613 8.2146C9.24508 8.21112 9.13172 8.20605 9.01835 8.2013C6.79662 8.10313 5.04323 7.78615 3.92318 7.44003C3.06027 7.1734 2.57387 6.88967 2.53777 6.6756C2.53935 6.66958 2.53935 6.66452 2.54315 6.65692C2.56468 6.6623 2.58875 6.66673 2.6106 6.67212C2.73442 6.70157 2.8614 6.73007 2.9906 6.7573C3.61982 6.89283 4.31712 7.00398 5.06002 7.08885C5.06255 7.08885 5.06445 7.09012 5.06667 7.09012C5.0673 7.09012 5.06793 7.0898 5.06825 7.0898C5.57428 7.14743 6.09932 7.19272 6.63828 7.2247C6.6424 7.2247 6.64588 7.22692 6.65 7.22692C6.65222 7.22692 6.6538 7.22565 6.65602 7.22565C7.04393 7.24845 7.43692 7.26523 7.83465 7.2741C8.07817 7.28012 8.31725 7.28328 8.55 7.28328C8.71625 7.28328 8.88662 7.28138 9.05857 7.27822C11.3595 7.24275 13.4919 6.96915 14.9758 6.54513C15.0442 6.52582 15.111 6.50587 15.1769 6.48592C15.2171 6.47357 15.2583 6.46153 15.2972 6.44918C15.4118 6.41245 15.5217 6.37477 15.6278 6.3355C15.6462 6.32853 15.6636 6.32157 15.682 6.3146C15.7716 6.28072 15.8577 6.24557 15.9401 6.20978C15.9638 6.19933 15.9882 6.1892 16.0113 6.17875C16.099 6.13917 16.1839 6.09863 16.2624 6.05652C16.2979 6.03783 16.3286 6.01852 16.3618 5.99952C16.3998 5.97767 16.4378 5.9555 16.473 5.93302C16.493 5.92035 16.5167 5.90832 16.5357 5.89565C17.9534 6.20313 18.3271 6.53943 18.3632 6.67053ZM8.55 1.58328C13.7715 1.58328 16.4125 2.40535 16.4619 2.87718C16.4236 3.09125 15.9375 3.37403 15.0768 3.64003C13.9564 3.98615 12.2034 4.30313 9.98165 4.4013C9.86797 4.40605 9.7546 4.4108 9.6387 4.4146C9.54402 4.41777 9.44902 4.42062 9.35243 4.42315C9.09023 4.42917 8.82423 4.43328 8.55 4.43328C8.27577 4.43328 8.00977 4.42917 7.74757 4.42315C7.6513 4.42093 7.5563 4.41777 7.4613 4.4146C7.34508 4.41112 7.23172 4.40605 7.11835 4.4013C4.89662 4.30313 3.14323 3.98615 2.02318 3.64003C1.16217 3.37403 0.6764 3.09125 0.638083 2.87718C0.687483 2.40535 3.32848 1.58328 8.55 1.58328ZM0.633333 5.06535V3.75403C0.88635 3.91332 1.20682 4.05867 1.58333 4.18977V5.70597C0.967417 5.47512 0.633967 5.24363 0.633333 5.06535ZM2.16727 9.4477C2.17202 9.45277 2.1793 9.4572 2.18405 9.46227C2.61757 9.8999 3.51532 10.2438 4.63283 10.5003C4.65848 10.5063 4.68572 10.512 4.71168 10.518C4.7937 10.5364 4.87698 10.5545 4.96122 10.5719C5.98753 10.7904 7.21272 10.9484 8.54747 11.0266C8.54842 11.0266 8.54905 11.0269 8.54968 11.0269C8.55032 11.0269 8.55063 11.0266 8.55095 11.0266C8.97972 11.0516 9.4183 11.069 9.86607 11.0766C10.0643 11.0808 10.2594 11.0833 10.45 11.0833C10.6685 11.0833 10.8927 11.0808 11.1207 11.0754C11.5349 11.0668 11.9431 11.0497 12.3456 11.0263C12.3471 11.0263 12.3484 11.0272 12.35 11.0272C12.3528 11.0272 12.3551 11.0257 12.3579 11.0257C13.6961 10.9468 14.9517 10.7872 16.0135 10.5576C15.7836 10.678 15.4689 10.8024 15.0768 10.9237C13.8941 11.2891 12.0051 11.6219 9.6045 11.6992C9.53325 11.7014 9.46295 11.704 9.39075 11.7059C9.31317 11.7078 9.23432 11.709 9.15547 11.7106C8.95628 11.7138 8.75583 11.7166 8.55 11.7166C8.27577 11.7166 8.00977 11.7125 7.74757 11.7065C7.6513 11.7043 7.5563 11.7011 7.4613 11.6979C7.34508 11.6945 7.23172 11.6894 7.11835 11.6846C4.89662 11.5865 3.14323 11.2695 2.02318 10.9234C1.15235 10.6542 0.665 10.3679 0.636817 10.1529C0.671967 10.0339 0.992117 9.73587 2.16727 9.4477ZM0.633333 12.3487V11.0374C0.88635 11.1967 1.20682 11.342 1.58333 11.4731V12.9833L1.40252 12.913L1.39872 12.9168C0.90155 12.7106 0.633967 12.5083 0.633333 12.3487ZM1.58333 15.832V14.5207C1.83635 14.68 2.15682 14.8253 2.53333 14.9564V16.4726C1.91742 16.2418 1.58397 16.0103 1.58333 15.832ZM16.4667 16.4726V14.9568C16.8432 14.8257 17.1637 14.6803 17.4167 14.521V15.8314C17.4163 16.0097 17.0826 16.2415 16.4667 16.4726ZM17.4125 13.641C17.378 13.8554 16.8916 14.1398 16.0268 14.407C14.9065 14.7531 13.1534 15.0701 10.9317 15.1683C10.818 15.173 10.7046 15.1778 10.5887 15.1816C10.494 15.1848 10.399 15.1876 10.3024 15.1901C10.0402 15.1958 9.77423 15.2 9.5 15.2C9.22577 15.2 8.95945 15.1958 8.69693 15.1898C8.60162 15.1876 8.50757 15.1844 8.41352 15.1813C8.29667 15.1775 8.18267 15.1727 8.06835 15.168C5.84662 15.0698 4.09355 14.7528 2.97318 14.4067C2.1356 14.148 1.65173 13.8731 1.59093 13.661C1.6853 13.6939 1.78315 13.7259 1.88353 13.7572C1.89367 13.7604 1.9038 13.7636 1.91393 13.7664C1.99943 13.7927 2.08683 13.818 2.17645 13.8427C2.21033 13.8522 2.24453 13.8617 2.27905 13.8709C2.32972 13.8845 2.38165 13.8975 2.43358 13.9108C3.58688 14.2063 5.05907 14.4156 6.64842 14.5096C6.64905 14.5096 6.64937 14.5099 6.65 14.5099C6.65032 14.5099 6.65063 14.5096 6.65095 14.5096C7.14178 14.5388 7.64307 14.5568 8.14973 14.5628C8.28463 14.5654 8.41858 14.5666 8.55 14.5666C8.72448 14.5666 8.90308 14.5644 9.0839 14.5612C9.54592 14.5536 10.0019 14.5365 10.4478 14.5099C10.4487 14.5099 10.4494 14.5106 10.4503 14.5106C10.4519 14.5106 10.4528 14.5096 10.4544 14.5096C10.9975 14.477 11.5232 14.4305 12.0283 14.3725C12.0302 14.3725 12.0317 14.3735 12.0336 14.3735C12.0406 14.3735 12.0463 14.37 12.0533 14.3693C12.6157 14.3044 13.1489 14.2246 13.6439 14.1318C13.7459 14.1132 13.8463 14.0938 13.9457 14.0739C13.9679 14.0695 13.99 14.065 14.0122 14.0603C14.9473 13.8684 15.7567 13.6198 16.3121 13.3117C16.3425 13.2952 16.371 13.2781 16.3999 13.2613C16.435 13.2404 16.4686 13.2192 16.5012 13.1977C16.5316 13.178 16.5667 13.159 16.5946 13.1391C17.2197 13.362 17.392 13.5615 17.4125 13.641ZM17.4167 9.50597V7.99008C17.7932 7.85898 18.1136 7.71363 18.3667 7.55435V8.86472C18.3664 9.043 18.0326 9.2748 17.4167 9.50597Z" fill="#979797"/>
</svg>
