<svg width="37" height="48" viewBox="0 0 30 28" fill="none" xmlns="http://www.w3.org/2000/svg">
<path d="M29.9945 9.5C29.945 8.6445 28.9275 7.976 26.8925 7.466C26.961 7.316 26.9995 7.16 27 6.998V3.5H26.9915C26.8125 0.586 14.8715 0.5 13.5 0.5C12.1285 0.5 0.1875 0.586 0.0085 3.5H0V3.565V6.9995C0.0025 7.9495 1.2285 8.693 3.0525 9.2465C3.0275 9.3295 3.0125 9.414 3.0075 9.5H3V9.565V12.9935C1.035 13.4995 0.0535 14.1585 0.005 15H0V15.065V18.4995C0.0015 19.161 0.598 19.722 1.574 20.1895C1.537 20.291 1.514 20.3945 1.5075 20.5005H1.5V20.5655V24C1.504 25.663 5.2485 26.6955 9.409 27.1775C9.4395 27.1835 9.4675 27.196 9.5 27.196C9.5095 27.196 9.5175 27.191 9.527 27.1905C10.329 27.281 11.144 27.3515 11.9505 27.402C11.9675 27.404 11.9825 27.412 12 27.412C12.0095 27.412 12.017 27.407 12.026 27.4065C13.05 27.4685 14.0575 27.5 15 27.5C15.9425 27.5 16.95 27.4685 17.974 27.406C17.983 27.4065 17.991 27.4115 18 27.4115C18.0175 27.4115 18.0325 27.403 18.0495 27.4015C18.856 27.351 19.671 27.281 20.473 27.19C20.4825 27.19 20.4905 27.195 20.5 27.195C20.5325 27.195 20.5605 27.1825 20.591 27.1765C24.7515 26.6945 28.4955 25.6615 28.5 23.998V20.5H28.492C28.457 19.887 27.9345 19.3755 26.9025 18.948C26.9655 18.8035 27 18.6535 27 18.498V15.23C28.795 14.678 29.9975 13.9395 30 12.998V9.5H29.9945ZM25.946 18.6605L25.7755 18.81C25.513 19.0415 25.0755 19.275 24.5 19.5V17.116C25.0945 16.909 25.6005 16.6795 26 16.428V18.497C26 18.5485 25.981 18.6035 25.946 18.6605ZM14.763 20.984C14.69 20.986 14.6165 20.987 14.543 20.9885C14.3645 20.992 14.1815 20.993 14.0005 20.9945V18.497C14.138 18.4955 14.2755 18.4935 14.413 18.491C14.4395 18.4905 14.466 18.49 14.4925 18.4895C14.996 18.48 15.4995 18.4645 16.0005 18.4415V20.938C15.8935 20.9435 15.786 20.9485 15.6775 20.953C15.3765 20.9665 15.0725 20.9765 14.763 20.984ZM12.5795 20.991C12.3505 20.987 12.1225 20.9815 11.896 20.9745C11.868 20.9735 11.84 20.9725 11.812 20.9715C11.5395 20.9625 11.269 20.951 11.0005 20.938V18.442C11.5015 18.4655 12.005 18.481 12.5085 18.49C12.535 18.4905 12.5615 18.491 12.5875 18.4915C12.725 18.494 12.8625 18.496 13 18.4975V20.9965C12.903 20.9955 12.806 20.9955 12.7095 20.994C12.6655 20.993 12.623 20.9915 12.5795 20.991ZM3.5485 19.851C3.532 19.846 3.5165 19.8415 3.5 19.837V17.4215C3.967 17.5475 4.469 17.6625 5 17.767V20.2075C4.541 20.11 4.1175 20.0075 3.732 19.9025C3.671 19.885 3.608 19.8685 3.5485 19.851ZM14.0875 23.9915C14.225 23.994 14.3625 23.996 14.5 23.9975V26.497C13.809 26.4905 13.142 26.4705 12.5 26.439V23.9425C13.001 23.966 13.5045 23.9815 14.008 23.9905C14.0345 23.9905 14.061 23.991 14.0875 23.9915ZM15.992 23.99C16.4955 23.9805 16.999 23.965 17.5 23.942V26.4385C16.858 26.47 16.191 26.49 15.5 26.4965V23.997C15.6375 23.9955 15.775 23.9935 15.9125 23.991C15.939 23.991 15.9655 23.9905 15.992 23.99ZM20 23.764V26.247C19.5195 26.2975 19.0195 26.342 18.5 26.3785V23.885C19.007 23.852 19.508 23.8115 20 23.764ZM21 23.656C21.5155 23.594 22.016 23.5235 22.5 23.445V25.9C22.029 25.983 21.5285 26.0595 21 26.129V23.656ZM23.5 23.2665C24.031 23.162 24.533 23.047 25 22.921V25.3365C24.5545 25.465 24.053 25.5895 23.5 25.707V23.2665ZM6.5 23.2665V25.707C5.947 25.5895 5.4455 25.465 5 25.3365V22.921C5.467 23.047 5.969 23.1625 6.5 23.2665ZM7.5 23.4455C7.984 23.524 8.4845 23.5945 9 23.6565V26.1295C8.4715 26.06 7.971 25.9835 7.5 25.9005V23.4455ZM10 23.764C10.492 23.8115 10.993 23.852 11.5 23.8855V26.379C10.9805 26.3425 10.4805 26.298 10 26.2475V23.764ZM8.7595 20.774C8.7085 20.769 8.658 20.7635 8.6075 20.7585C8.5715 20.755 8.536 20.7505 8.5 20.747V18.2645C8.992 18.312 9.493 18.3525 10 18.386V20.8775C9.58 20.8475 9.165 20.8135 8.7595 20.774ZM7.5 18.156V20.629C6.9715 20.5595 6.471 20.483 6 20.4V17.945C6.484 18.0235 6.9845 18.0945 7.5 18.156ZM17.333 20.854C17.223 20.8625 17.112 20.871 17 20.879V18.3855C17.507 18.352 18.008 18.312 18.5 18.264V20.747C18.191 20.7795 17.875 20.81 17.5505 20.8365C17.478 20.843 17.4055 20.8485 17.333 20.854ZM19.5 20.629V18.156C20.0155 18.094 20.516 18.0235 21 17.945V20.4C20.529 20.483 20.0285 20.56 19.5 20.629ZM22 17.7665C22.531 17.662 23.033 17.547 23.5 17.421V19.8365C23.0545 19.965 22.553 20.0895 22 20.207V17.7665ZM15.1625 15.4825C14.7865 15.473 14.419 15.4585 14.058 15.441C14.0385 15.44 14.019 15.439 14 15.4385V12.942C14.501 12.9655 15.0045 12.981 15.508 12.99C15.5345 12.9905 15.561 12.991 15.587 12.9915C15.7245 12.994 15.862 12.996 15.9995 12.9975V15.494C15.756 15.4915 15.5105 15.4905 15.273 15.485C15.2365 15.484 15.199 15.4835 15.1625 15.4825ZM3.5 8.337V5.9215C3.967 6.0475 4.469 6.1625 5 6.267V8.7075C4.9385 8.6945 4.875 8.6815 4.815 8.6685C4.549 8.61 4.2895 8.549 4.0415 8.4845C3.8525 8.436 3.673 8.3865 3.5 8.337ZM12.5875 6.9915C12.725 6.994 12.8625 6.996 13 6.9975V9.494C12.327 9.4875 11.658 9.47 11 9.437V6.9425C11.501 6.966 12.0045 6.9815 12.508 6.9905C12.5345 6.9905 12.561 6.991 12.5875 6.9915ZM14.492 6.99C14.9955 6.9805 15.499 6.965 16 6.942V9.4365C15.915 9.4405 15.8335 9.4465 15.748 9.4505C15.741 9.451 15.734 9.451 15.7265 9.4515C15.391 9.4665 15.049 9.4775 14.7025 9.4855C14.6485 9.487 14.5945 9.4875 14.5405 9.489C14.3625 9.4925 14.1805 9.493 14 9.495V6.9975C14.1375 6.996 14.275 6.994 14.4125 6.9915C14.439 6.991 14.4655 6.9905 14.492 6.99ZM25.8855 7.241L25.8715 7.238L25.6895 7.3795C25.4255 7.585 25.02 7.793 24.5 7.994V5.6155C25.0945 5.4085 25.6005 5.179 26 4.9275V6.9965C26 7.0725 25.96 7.1545 25.8855 7.241ZM19.5 9.126V6.656C20.0155 6.594 20.516 6.5235 21 6.445V8.896C20.526 8.98 20.027 9.057 19.5 9.126ZM22 8.7035V6.267C22.531 6.1625 23.033 6.0475 23.5 5.9215V8.3315C23.052 8.462 22.5475 8.5865 22 8.7035ZM18.5 6.764V9.244C18.017 9.295 17.517 9.3395 17 9.3765V6.8855C17.507 6.852 18.008 6.8115 18.5 6.764ZM8.5 9.245V6.764C8.992 6.8115 9.493 6.852 10 6.8855V9.3745C9.491 9.338 8.989 9.2965 8.5 9.245ZM7.5 6.656V9.1265C7.401 9.1135 7.298 9.103 7.2 9.0895C7.136 9.0805 7.075 9.071 7.012 9.062C6.723 9.0205 6.4405 8.976 6.1635 8.9295C6.108 8.92 6.0545 8.91 6 8.9005V6.4455C6.484 6.5235 6.9845 6.5945 7.5 6.656ZM12.876 15.3695C12.8085 15.3645 12.7405 15.3595 12.6735 15.3545C12.3535 15.3295 12.041 15.302 11.736 15.2715C11.6705 15.265 11.605 15.258 11.54 15.2515C11.5265 15.25 11.5135 15.248 11.5 15.247V12.764C11.992 12.8115 12.493 12.852 13 12.8855V15.3775C12.9595 15.3745 12.9165 15.3725 12.876 15.3695ZM9.5725 14.996C9.3745 14.9645 9.1885 14.9305 9 14.8975V12.4455C9.484 12.524 9.9845 12.5945 10.5 12.6565V15.1295C10.194 15.089 9.8945 15.047 9.607 15.002C9.5955 14.9995 9.584 14.9975 9.5725 14.996ZM8 12.2665V14.703C7.4475 14.5845 6.9465 14.4585 6.5 14.3275V11.921C6.967 12.047 7.469 12.1625 8 12.2665ZM5.5 11.6155V13.991C4.714 13.6875 4.207 13.3775 4.042 13.1015L4.0085 13.0455C4.0055 13.03 4.0005 13.0135 4 12.998V10.9275C4.3995 11.179 4.9055 11.4085 5.5 11.6155ZM17.492 12.99C17.9955 12.9805 18.499 12.965 19 12.942V15.436C18.343 15.4685 17.675 15.4865 17 15.4935V12.9975C17.1375 12.996 17.275 12.994 17.4125 12.9915C17.439 12.991 17.4655 12.9905 17.492 12.99ZM23.9535 14.9085C23.734 14.9465 23.5125 14.984 23.285 15.0185C23.1545 15.0385 23.021 15.0575 22.887 15.0765C22.7605 15.0945 22.629 15.11 22.5005 15.1265V12.656C23.016 12.594 23.5165 12.5235 24.0005 12.445V14.9C23.9845 14.903 23.969 14.906 23.9535 14.9085ZM20.568 15.3355C20.3815 15.351 20.189 15.361 20 15.3745V12.8855C20.507 12.852 21.008 12.812 21.5 12.764V15.2445C21.2095 15.275 20.9195 15.3055 20.621 15.3305C20.603 15.332 20.586 15.334 20.568 15.3355ZM26.282 14.398C26.033 14.4675 25.7695 14.5325 25.5005 14.596C25.376 14.625 25.249 14.654 25.119 14.682C25.0805 14.6905 25.0395 14.698 25.0005 14.7065V12.267C25.5315 12.1625 26.0335 12.0475 26.5005 11.9215V14.337C26.4285 14.357 26.356 14.3775 26.282 14.398ZM28.9945 9.5325C28.9485 9.872 28.179 10.3235 26.8055 10.748C25.0365 11.2945 22.2685 11.795 18.7605 11.95C18.581 11.9575 18.402 11.965 18.219 11.971C18.0695 11.976 17.9195 11.9805 17.767 11.9845C17.353 11.9935 16.933 12 16.5 12C16.067 12 15.647 11.9935 15.233 11.984C15.081 11.9805 14.931 11.9755 14.781 11.9705C14.5975 11.965 14.4185 11.957 14.2395 11.9495C10.7315 11.7945 7.963 11.294 6.1945 10.7475C4.832 10.3265 4.064 9.8785 4.007 9.5405C4.0095 9.531 4.0095 9.523 4.0155 9.511C4.0495 9.5195 4.0875 9.5265 4.122 9.535C4.3175 9.5815 4.518 9.6265 4.722 9.6695C5.7155 9.8835 6.8165 10.059 7.9895 10.193C7.9935 10.193 7.9965 10.195 8 10.195C8.001 10.195 8.002 10.1945 8.0025 10.1945C8.8015 10.2855 9.6305 10.357 10.4815 10.4075C10.488 10.4075 10.4935 10.411 10.5 10.411C10.5035 10.411 10.506 10.409 10.5095 10.409C11.122 10.445 11.7425 10.4715 12.3705 10.4855C12.755 10.495 13.1325 10.5 13.5 10.5C13.7625 10.5 14.0315 10.497 14.303 10.492C17.936 10.436 21.303 10.004 23.646 9.3345C23.754 9.304 23.8595 9.2725 23.9635 9.241C24.027 9.2215 24.092 9.2025 24.1535 9.183C24.3345 9.125 24.508 9.0655 24.6755 9.0035C24.7045 8.9925 24.732 8.9815 24.761 8.9705C24.9025 8.917 25.0385 8.8615 25.1685 8.805C25.206 8.7885 25.2445 8.7725 25.281 8.756C25.4195 8.6935 25.5535 8.6295 25.6775 8.563C25.7335 8.5335 25.782 8.503 25.8345 8.473C25.8945 8.4385 25.9545 8.4035 26.01 8.368C26.0415 8.348 26.079 8.329 26.109 8.309C28.3475 8.7945 28.9375 9.3255 28.9945 9.5325ZM13.5 1.5C21.7445 1.5 25.9145 2.798 25.9925 3.543C25.932 3.881 25.1645 4.3275 23.8055 4.7475C22.0365 5.294 19.2685 5.7945 15.7605 5.9495C15.581 5.957 15.402 5.9645 15.219 5.9705C15.0695 5.9755 14.9195 5.98 14.767 5.984C14.353 5.9935 13.933 6 13.5 6C13.067 6 12.647 5.9935 12.233 5.984C12.081 5.9805 11.931 5.9755 11.781 5.9705C11.5975 5.965 11.4185 5.957 11.2395 5.9495C7.7315 5.7945 4.963 5.294 3.1945 4.7475C1.835 4.3275 1.068 3.881 1.0075 3.543C1.0855 2.798 5.2555 1.5 13.5 1.5ZM1 6.998V4.9275C1.3995 5.179 1.9055 5.4085 2.5 5.6155V8.0095C1.5275 7.645 1.001 7.2795 1 6.998ZM3.422 13.9175C3.4295 13.9255 3.441 13.9325 3.4485 13.9405C4.133 14.6315 5.5505 15.1745 7.315 15.5795C7.3555 15.589 7.3985 15.598 7.4395 15.6075C7.569 15.6365 7.7005 15.665 7.8335 15.6925C9.454 16.0375 11.3885 16.287 13.496 16.4105C13.4975 16.4105 13.4985 16.411 13.4995 16.411C13.5005 16.411 13.501 16.4105 13.5015 16.4105C14.1785 16.45 14.871 16.4775 15.578 16.4895C15.891 16.496 16.199 16.5 16.5 16.5C16.845 16.5 17.199 16.496 17.559 16.4875C18.213 16.474 18.8575 16.447 19.493 16.41C19.4955 16.41 19.4975 16.4115 19.5 16.4115C19.5045 16.4115 19.508 16.409 19.5125 16.409C21.6255 16.2845 23.608 16.0325 25.2845 15.67C24.9215 15.86 24.4245 16.0565 23.8055 16.248C21.938 16.825 18.9555 17.3505 15.165 17.4725C15.0525 17.476 14.9415 17.48 14.8275 17.483C14.705 17.486 14.5805 17.488 14.456 17.4905C14.1415 17.4955 13.825 17.5 13.5 17.5C13.067 17.5 12.647 17.4935 12.233 17.484C12.081 17.4805 11.931 17.4755 11.781 17.4705C11.5975 17.465 11.4185 17.457 11.2395 17.4495C7.7315 17.2945 4.963 16.794 3.1945 16.2475C1.8195 15.8225 1.05 15.3705 1.0055 15.031C1.061 14.843 1.5665 14.3725 3.422 13.9175ZM1 18.498V16.4275C1.3995 16.679 1.9055 16.9085 2.5 17.1155V19.5L2.2145 19.389L2.2085 19.395C1.4235 19.0695 1.001 18.75 1 18.498ZM2.5 23.998V21.9275C2.8995 22.179 3.4055 22.4085 4 22.6155V25.0095C3.0275 24.645 2.501 24.2795 2.5 23.998ZM26 25.0095V22.616C26.5945 22.409 27.1005 22.1795 27.5 21.928V23.997C27.4995 24.2785 26.9725 24.6445 26 25.0095ZM27.4935 20.5385C27.439 20.877 26.671 21.326 25.3055 21.748C23.5365 22.2945 20.7685 22.795 17.2605 22.95C17.081 22.9575 16.902 22.965 16.719 22.971C16.5695 22.976 16.4195 22.9805 16.267 22.9845C15.853 22.9935 15.433 23 15 23C14.567 23 14.1465 22.9935 13.732 22.984C13.5815 22.9805 13.433 22.9755 13.2845 22.9705C13.1 22.9645 12.92 22.957 12.7395 22.9495C9.2315 22.7945 6.4635 22.294 4.6945 21.7475C3.372 21.339 2.608 20.905 2.512 20.57C2.661 20.622 2.8155 20.6725 2.974 20.722C2.99 20.727 3.006 20.732 3.022 20.7365C3.157 20.778 3.295 20.818 3.4365 20.857C3.49 20.872 3.544 20.887 3.5985 20.9015C3.6785 20.923 3.7605 20.9435 3.8425 20.9645C5.6635 21.431 7.988 21.7615 10.4975 21.91C10.4985 21.91 10.499 21.9105 10.5 21.9105C10.5005 21.9105 10.501 21.91 10.5015 21.91C11.2765 21.956 12.068 21.9845 12.868 21.994C13.081 21.998 13.2925 22 13.5 22C13.7755 22 14.0575 21.9965 14.343 21.9915C15.0725 21.9795 15.7925 21.9525 16.4965 21.9105C16.498 21.9105 16.499 21.9115 16.5005 21.9115C16.503 21.9115 16.5045 21.91 16.507 21.91C17.3645 21.8585 18.1945 21.785 18.992 21.6935C18.995 21.6935 18.9975 21.695 19.0005 21.695C19.0115 21.695 19.0205 21.6895 19.0315 21.6885C19.9195 21.586 20.7615 21.46 21.543 21.3135C21.704 21.284 21.8625 21.2535 22.0195 21.222C22.0545 21.215 22.0895 21.208 22.1245 21.2005C23.601 20.8975 24.879 20.505 25.756 20.0185C25.804 19.9925 25.849 19.9655 25.8945 19.939C25.95 19.906 26.003 19.8725 26.0545 19.8385C26.1025 19.8075 26.158 19.7775 26.202 19.746C27.189 20.098 27.461 20.413 27.4935 20.5385ZM27.5 14.0095V11.616C28.0945 11.409 28.6005 11.1795 29 10.928V12.997C28.9995 13.2785 28.4725 13.6445 27.5 14.0095Z" fill="#FFAB00"/>
</svg>
