<svg width="20" height="13" viewBox="0 0 20 13" fill="none" xmlns="http://www.w3.org/2000/svg">
<path d="M14.4679 4.41554H0.955505C0.426492 4.41554 0 4.77806 0 5.22772V11.7217C0 12.1713 0.426492 12.5338 0.955505 12.5338H14.4679C14.9969 12.5338 15.4234 12.1713 15.4234 11.7217V5.22772C15.4234 4.77806 14.9928 4.41554 14.4679 4.41554ZM14.2834 10.2193C14.2055 10.2089 14.1275 10.2019 14.0455 10.2019C13.2992 10.2019 12.6922 10.7178 12.6922 11.3522C12.6922 11.4254 12.7004 11.4951 12.7168 11.5648H2.81731C2.82551 11.5195 2.82961 11.4707 2.82961 11.4219C2.82961 10.7875 2.22268 10.2716 1.47632 10.2716C1.36149 10.2716 1.24667 10.2855 1.14005 10.3065V6.77888C1.24667 6.80328 1.35739 6.81374 1.47632 6.81374C2.22268 6.81374 2.82961 6.29784 2.82961 5.66344C2.82961 5.56584 2.8132 5.47172 2.7886 5.38458H12.7168C12.7004 5.45429 12.6922 5.52401 12.6922 5.59721C12.6922 6.23162 13.2992 6.74751 14.0455 6.74751C14.1275 6.74751 14.2055 6.74053 14.2834 6.73008V10.2193ZM17.7035 3.57199V9.43153C17.7035 9.53959 17.6871 9.64416 17.6502 9.74525C17.4739 10.2611 16.5635 10.1322 16.5635 9.59536V9.23633V3.93451C16.5635 3.64868 16.2887 3.41513 15.9524 3.41513H3.82202H3.42014H3.41193C2.7804 3.41513 2.62867 2.64129 3.2356 2.49141C3.35452 2.46352 3.47755 2.44609 3.60467 2.44609H16.3707C17.1089 2.44261 17.7035 2.94804 17.7035 3.57199ZM20 1.59557V7.45511C20 7.56317 19.9836 7.66774 19.9467 7.76883C19.7703 8.28472 18.86 8.15575 18.86 7.61894V7.25991V1.9546C18.86 1.66877 18.5852 1.43522 18.2489 1.43522H6.11441H5.71253H5.70433C5.07279 1.43522 4.92106 0.661389 5.52799 0.511501C5.64691 0.483615 5.76994 0.466187 5.89707 0.466187H18.6631C19.4054 0.466187 20 0.97162 20 1.59557ZM12.7045 8.46598C12.7045 8.84593 12.3437 9.15267 11.8967 9.15267C11.4497 9.15267 11.0888 8.84593 11.0888 8.46598C11.0888 8.08603 11.4497 7.77929 11.8967 7.77929C12.3437 7.77929 12.7045 8.08603 12.7045 8.46598ZM4.23621 8.46598C4.23621 8.84593 3.87533 9.15267 3.42834 9.15267C2.98134 9.15267 2.62046 8.84593 2.62046 8.46598C2.62046 8.08603 2.98134 7.77929 3.42834 7.77929C3.87533 7.77929 4.23621 8.08603 4.23621 8.46598ZM7.66455 5.9911C6.057 5.9911 4.75292 7.09957 4.75292 8.46598C4.75292 9.83239 6.057 10.9409 7.66455 10.9409C9.27209 10.9409 10.5762 9.83239 10.5762 8.46598C10.5762 7.09957 9.27209 5.9911 7.66455 5.9911ZM7.66455 9.89862C6.73365 9.89862 5.97909 9.25725 5.97909 8.46598C5.97909 7.67472 6.73365 7.03334 7.66455 7.03334C8.59545 7.03334 9.35001 7.67472 9.35001 8.46598C9.35001 9.25725 8.59135 9.89862 7.66455 9.89862Z" fill="#979797"/>
</svg>
