<svg width="36" height="36" viewBox="0 0 30 19" fill="none" xmlns="http://www.w3.org/2000/svg">
<path d="M21.7019 6.4346H1.43326C0.639737 6.4346 0 6.96771 0 7.62898V17.1789C0 17.8402 0.639737 18.3733 1.43326 18.3733H21.7019C22.4954 18.3733 23.1351 17.8402 23.1351 17.1789V7.62898C23.1351 6.96771 22.4892 6.4346 21.7019 6.4346ZM21.4251 14.9696C21.3082 14.9542 21.1913 14.9439 21.0683 14.9439C19.9487 14.9439 19.0383 15.7026 19.0383 16.6355C19.0383 16.7432 19.0506 16.8457 19.0753 16.9482H4.22596C4.23826 16.8816 4.24441 16.8098 4.24441 16.7381C4.24441 15.8051 3.33402 15.0464 2.21448 15.0464C2.04224 15.0464 1.87 15.067 1.71007 15.0977V9.91009C1.87 9.94598 2.03609 9.96136 2.21448 9.96136C3.33402 9.96136 4.24441 9.20269 4.24441 8.26974C4.24441 8.12621 4.21981 7.98781 4.1829 7.85965H19.0753C19.0506 7.96218 19.0383 8.0647 19.0383 8.17235C19.0383 9.1053 19.9487 9.86396 21.0683 9.86396C21.1913 9.86396 21.3082 9.85371 21.4251 9.83833V14.9696ZM26.5553 5.19408V13.8111C26.5553 13.97 26.5307 14.1237 26.4753 14.2724C26.2108 15.0311 24.8452 14.8414 24.8452 14.052V13.524V5.72719C24.8452 5.30685 24.4331 4.96341 23.9286 4.96341H5.73303H5.1302H5.1179C4.1706 4.96341 3.943 3.82541 4.85339 3.60499C5.03178 3.56398 5.21632 3.53835 5.40701 3.53835H24.5561C25.6633 3.53322 26.5553 4.27651 26.5553 5.19408ZM30 2.28758V10.9046C30 11.0635 29.9754 11.2172 29.92 11.3659C29.6555 12.1246 28.2899 11.9349 28.2899 11.1455V10.6175V2.81557C28.2899 2.39523 27.8778 2.05178 27.3734 2.05178H9.17162H8.56879H8.55649C7.60919 2.05178 7.38159 0.913786 8.29198 0.693364C8.47037 0.652355 8.65491 0.626724 8.8456 0.626724H27.9947C29.1081 0.626724 30 1.37001 30 2.28758ZM19.0568 12.3911C19.0568 12.9499 18.5155 13.401 17.845 13.401C17.1745 13.401 16.6332 12.9499 16.6332 12.3911C16.6332 11.8324 17.1745 11.3813 17.845 11.3813C18.5155 11.3813 19.0568 11.8324 19.0568 12.3911ZM6.35432 12.3911C6.35432 12.9499 5.813 13.401 5.14251 13.401C4.47201 13.401 3.9307 12.9499 3.9307 12.3911C3.9307 11.8324 4.47201 11.3813 5.14251 11.3813C5.813 11.3813 6.35432 11.8324 6.35432 12.3911ZM11.4968 8.75159C9.0855 8.75159 7.12938 10.3817 7.12938 12.3911C7.12938 14.4006 9.0855 16.0307 11.4968 16.0307C13.9081 16.0307 15.8643 14.4006 15.8643 12.3911C15.8643 10.3817 13.9081 8.75159 11.4968 8.75159ZM11.4968 14.498C10.1005 14.498 8.96863 13.5548 8.96863 12.3911C8.96863 11.2275 10.1005 10.2843 11.4968 10.2843C12.8932 10.2843 14.025 11.2275 14.025 12.3911C14.025 13.5548 12.887 14.498 11.4968 14.498Z" fill="#FFAB00"/>
</svg>
