<svg width="36" height="36" viewBox="0 0 30 30" fill="none" xmlns="http://www.w3.org/2000/svg">
<path d="M1.24998 1.24998H13.75V6.87498C13.75 7.21875 14.0312 7.5 14.375 7.5H20V11.875H21.25V6.87504C21.25 6.70629 21.1812 6.55002 21.0687 6.43131L14.8188 0.18123C14.7 0.0687305 14.5437 0 14.375 0H0.62502C0.28125 0 0 0.28125 0 0.625019V26.875C0 27.2188 0.28125 27.5 0.62502 27.5H13.125V26.25H1.24998V1.24998ZM15 2.13123L19.1187 6.24996H15V2.13123Z" fill="#FFAB00"/>
<path d="M29.9311 29.0938L22.4311 14.0938C22.2186 13.6688 21.5249 13.6688 21.3124 14.0938L13.8124 29.0938C13.6561 29.4 13.7812 29.775 14.0936 29.9312C14.1811 29.975 14.2749 30 14.3749 30H29.3749C29.7186 30 29.9999 29.7188 29.9999 29.375C29.9999 29.2813 29.9748 29.1813 29.9311 29.0938ZM15.3873 28.75L21.8748 15.775L28.3623 28.75H15.3873Z" fill="#FFAB00"/>
<path d="M21.25 20.5125V24.5813C21.25 24.8937 21.475 25.175 21.7813 25.2188C22.1688 25.275 22.5 24.975 22.5 24.6V20.5313C22.5 20.2188 22.275 19.9375 21.9688 19.8938C21.5812 19.8375 21.25 20.1375 21.25 20.5125Z" fill="#FFAB00"/>
<path d="M21.875 26.025C21.5313 26.025 21.25 26.3062 21.25 26.65C21.25 26.9938 21.5313 27.275 21.875 27.275C22.2188 27.275 22.5 26.9938 22.5 26.65C22.5 26.3062 22.2188 26.025 21.875 26.025Z" fill="#FFAB00"/>
</svg>
