<svg width="20" height="20" viewBox="0 0 20 20" fill="none" xmlns="http://www.w3.org/2000/svg">
<path d="M0.83332 0.83332H9.16664V4.58332C9.16664 4.8125 9.35414 5 9.58332 5H13.3333V7.91668H14.1666V4.58336C14.1666 4.47086 14.1208 4.36668 14.0458 4.28754L9.87918 0.12082C9.8 0.0458203 9.69582 0 9.58332 0H0.41668C0.1875 0 0 0.1875 0 0.41668V17.9167C0 18.1459 0.1875 18.3334 0.41668 18.3334H8.75V17.5H0.83332V0.83332ZM10 1.42082L12.7458 4.16664H10V1.42082Z" fill="#979797"/>
<path d="M19.9538 19.3958L14.9538 9.39584C14.8121 9.11252 14.3496 9.11252 14.2079 9.39584L9.20793 19.3958C9.10375 19.6 9.18711 19.85 9.39543 19.9542C9.45375 19.9833 9.51625 20 9.58293 20H19.5829C19.8121 20 19.9996 19.8125 19.9996 19.5833C19.9996 19.5208 19.9829 19.4542 19.9538 19.3958ZM10.2579 19.1667L14.5829 10.5167L18.9079 19.1667H10.2579Z" fill="#979797"/>
<path d="M14.167 13.675V16.3875C14.167 16.5958 14.317 16.7833 14.5212 16.8125C14.7795 16.85 15.0004 16.65 15.0004 16.4V13.6875C15.0004 13.4792 14.8504 13.2917 14.6462 13.2625C14.3878 13.225 14.167 13.425 14.167 13.675Z" fill="#979797"/>
<path d="M14.5837 17.35C14.3545 17.35 14.167 17.5375 14.167 17.7667C14.167 17.9958 14.3545 18.1833 14.5837 18.1833C14.8129 18.1833 15.0004 17.9958 15.0004 17.7667C15.0004 17.5375 14.8129 17.35 14.5837 17.35Z" fill="#979797"/>
</svg>
