<svg width="36" height="36" viewBox="0 0 30 24" fill="none" xmlns="http://www.w3.org/2000/svg">
<path d="M30 3.02761C30 2.57391 29.8233 2.14741 29.5025 1.82667L28.8354 1.1594C28.5146 0.838598 28.088 0.661938 27.6343 0.661938C27.1806 0.661938 26.7541 0.838598 26.4333 1.1594L23.2895 4.30314V0.952915C23.2895 0.622914 23.0219 0.355316 22.6919 0.355316H0.597599C0.26754 0.355258 0 0.622914 0 0.952915V23.0471C0 23.3771 0.26754 23.6447 0.597599 23.6447H22.6919C23.0219 23.6447 23.2895 23.3771 23.2895 23.0471L23.2892 10.4421L29.5025 4.22872C29.8233 3.90792 30 3.4813 30 3.02761ZM22.0943 22.4495H1.1952V1.55057H22.0942V5.49839L11.1532 16.4394C11.0875 16.5051 11.0381 16.5851 11.0088 16.6731L9.89668 20.0093C9.82508 20.2241 9.88098 20.4609 10.0411 20.6209C10.155 20.7348 10.3077 20.7959 10.4638 20.7959C10.527 20.7959 10.5907 20.7859 10.6527 20.7653L13.9889 19.6532C14.0769 19.6238 14.1569 19.5745 14.2225 19.5088L22.0943 11.6371V22.4495ZM13.4771 18.5639L11.4085 19.2534L12.098 17.1848L24.7873 4.49556L26.1663 5.87462L13.4771 18.5639ZM28.6574 3.38351L27.0115 5.02947L26.3219 4.33993L25.6325 3.6504L27.2784 2.00444C27.3735 1.90934 27.4999 1.85702 27.6343 1.85702C27.7688 1.85702 27.8951 1.90934 27.9902 2.00438L28.6574 2.67165C28.6574 2.67171 28.6574 2.67171 28.6575 2.67171C28.7525 2.7668 28.8049 2.89313 28.8049 3.02755C28.8049 3.16208 28.7525 3.28847 28.6574 3.38351Z" fill="#FFAB00"/>
<path d="M18.64 4.09039H18.0703C17.7403 4.09039 17.4727 4.35799 17.4727 4.68799C17.4727 5.01799 17.7402 5.28559 18.0703 5.28559H18.64C18.97 5.28559 19.2376 5.01799 19.2376 4.68799C19.2377 4.35805 18.97 4.09039 18.64 4.09039Z" fill="#FFAB00"/>
<path d="M15.4747 4.09039H4.58588C4.25582 4.09039 3.98828 4.35799 3.98828 4.68799C3.98828 5.01799 4.25582 5.28559 4.58588 5.28559H15.4748C15.8048 5.28559 16.0724 5.01799 16.0724 4.68799C16.0723 4.35805 15.8047 4.09039 15.4747 4.09039Z" fill="#FFAB00"/>
<path d="M14.905 7.57233H4.58588C4.25582 7.57233 3.98828 7.83992 3.98828 8.16992C3.98828 8.49993 4.25582 8.76752 4.58588 8.76752H14.905C15.235 8.76752 15.5026 8.49993 15.5026 8.16992C15.5026 7.83992 15.235 7.57233 14.905 7.57233Z" fill="#FFAB00"/>
<path d="M11.1698 11.0543H4.58588C4.25582 11.0543 3.98828 11.3219 3.98828 11.6519C3.98828 11.9819 4.25582 12.2495 4.58588 12.2495H11.1699C11.5 12.2495 11.7675 11.9819 11.7675 11.6519C11.7675 11.3219 11.4999 11.0543 11.1698 11.0543Z" fill="#FFAB00"/>
<path d="M8.32106 14.4728H4.58588C4.25582 14.4728 3.98828 14.7404 3.98828 15.0704C3.98828 15.4004 4.25582 15.668 4.58588 15.668H8.321C8.65106 15.668 8.9186 15.4004 8.9186 15.0704C8.9186 14.7404 8.65112 14.4728 8.32106 14.4728Z" fill="#FFAB00"/>
</svg>
