<svg width="17" height="15" viewBox="0 0 17 15" fill="none" xmlns="http://www.w3.org/2000/svg">
<path d="M17 2.41566C17 2.15857 16.8999 1.91689 16.7181 1.73513L16.3401 1.35701C16.1583 1.17523 15.9165 1.07512 15.6595 1.07512C15.4024 1.07512 15.1607 1.17523 14.9789 1.35701L13.1974 3.13846V1.24001C13.1974 1.05301 13.0458 0.901367 12.8588 0.901367H0.338639C0.151606 0.901334 0 1.05301 0 1.24001V13.7601C0 13.9471 0.151606 14.0987 0.338639 14.0987H12.8587C13.0457 14.0987 13.1974 13.9471 13.1974 13.7601L13.1972 6.6172L16.7181 3.0963C16.8999 2.91451 17 2.67276 17 2.41566ZM12.5201 13.4214H0.677279V1.57868H12.5201V3.81578L6.32013 10.0157C6.28294 10.0529 6.25495 10.0983 6.23832 10.1481L5.60812 12.0386C5.56754 12.1603 5.59922 12.2945 5.68993 12.3852C5.75448 12.4497 5.84104 12.4844 5.92946 12.4844C5.96529 12.4844 6.00141 12.4787 6.03651 12.467L7.92706 11.8368C7.97693 11.8202 8.02226 11.7922 8.05944 11.755L12.5201 7.29438V13.4214ZM7.637 11.2196L6.46479 11.6103L6.85553 10.4381L14.0461 3.2475L14.8276 4.02897L7.637 11.2196ZM16.2392 2.61734L15.3065 3.55005L14.9158 3.15932L14.5251 2.76858L15.4578 1.83587C15.5117 1.78198 15.5833 1.75233 15.6595 1.75233C15.7357 1.75233 15.8072 1.78198 15.8611 1.83584L16.2392 2.21396C16.2392 2.21399 16.2392 2.21399 16.2392 2.21399C16.2931 2.26788 16.3228 2.33946 16.3228 2.41563C16.3228 2.49187 16.2931 2.56349 16.2392 2.61734Z" fill="#979797"/>
<path d="M10.5629 3.01794H10.24C10.053 3.01794 9.90137 3.16958 9.90137 3.35658C9.90137 3.54358 10.053 3.69522 10.24 3.69522H10.5629C10.7499 3.69522 10.9015 3.54358 10.9015 3.35658C10.9015 3.16962 10.7499 3.01794 10.5629 3.01794Z" fill="#979797"/>
<path d="M8.76875 3.01794H2.5984C2.41137 3.01794 2.25977 3.16958 2.25977 3.35658C2.25977 3.54358 2.41137 3.69522 2.5984 3.69522H8.76879C8.95579 3.69522 9.10743 3.54358 9.10743 3.35658C9.10739 3.16962 8.95576 3.01794 8.76875 3.01794Z" fill="#979797"/>
<path d="M8.44589 4.99097H2.59841C2.41137 4.99097 2.25977 5.14261 2.25977 5.32961C2.25977 5.51661 2.41137 5.66825 2.59841 5.66825H8.44592C8.63292 5.66825 8.78456 5.51661 8.78456 5.32961C8.78456 5.14261 8.63289 4.99097 8.44589 4.99097Z" fill="#979797"/>
<path d="M6.32932 6.96411H2.59841C2.41137 6.96411 2.25977 7.11575 2.25977 7.30275C2.25977 7.48975 2.41137 7.64139 2.59841 7.64139H6.32935C6.51638 7.64139 6.66799 7.48975 6.66799 7.30275C6.66799 7.11575 6.51635 6.96411 6.32932 6.96411Z" fill="#979797"/>
<path d="M4.71501 8.90125H2.5984C2.41137 8.90125 2.25977 9.05288 2.25977 9.23988C2.25977 9.42689 2.41137 9.57852 2.5984 9.57852H4.71498C4.90201 9.57852 5.05362 9.42689 5.05362 9.23988C5.05362 9.05288 4.90204 8.90125 4.71501 8.90125Z" fill="#979797"/>
</svg>
