<svg width="36" height="36" viewBox="0 0 30 28" fill="none" xmlns="http://www.w3.org/2000/svg">
<path d="M29.7658 19.6147L26.8421 17.6658V12.1579C26.8421 11.8668 26.6063 11.6316 26.3158 11.6316H24.2105V9.52631C24.2105 9.23526 23.9747 9 23.6842 9H19.4442C19.2058 6.72631 17.4416 4.93894 15.2632 4.80368V3.73684H18.4211C18.7116 3.73684 18.9474 3.50157 18.9474 3.21052V0.578943C18.9474 0.287891 18.7116 0.0526276 18.4211 0.0526276H15.2632H14.7368H14.2105V0.578943V3.21052V4.86789C12.2795 5.23421 10.7747 6.91263 10.5558 9H6.31579C6.02526 9 5.78947 9.23526 5.78947 9.52631V11.6316H3.68421C3.39368 11.6316 3.15789 11.8668 3.15789 12.1579V17.6658L0.234211 19.6147C0.0878947 19.7126 0 19.8768 0 20.0526V27.421C0 27.7121 0.235789 27.9474 0.526316 27.9474H3.68421H6.84211H8.94737H11.5789H13.6842H16.3158H18.4211H21.0526H23.1579H26.3158H29.4737C29.7642 27.9474 30 27.7121 30 27.421V20.0526C30 19.8768 29.9121 19.7126 29.7658 19.6147ZM15.2632 1.10526H17.8947V2.68421H15.2632V1.10526ZM15 5.8421C16.72 5.8421 18.1437 7.21789 18.3821 9H11.6179C11.8563 7.21789 13.28 5.8421 15 5.8421ZM6.84211 10.0526H23.1579V11.6316H6.84211V10.0526ZM1.05263 20.3342L3.15789 18.9305V26.8947H1.05263V20.3342ZM4.21053 17.9474V12.6842H6.31579H23.6842H25.7895V17.9474V26.8947H23.6842V19.5263C23.6842 19.2353 23.4484 19 23.1579 19H21.0526C20.7621 19 20.5263 19.2353 20.5263 19.5263V26.8947H18.9474V19.5263C18.9474 19.2353 18.7116 19 18.4211 19H16.3158C16.0253 19 15.7895 19.2353 15.7895 19.5263V26.8947H14.2105V19.5263C14.2105 19.2353 13.9747 19 13.6842 19H11.5789C11.2884 19 11.0526 19.2353 11.0526 19.5263V26.8947H9.47368V19.5263C9.47368 19.2353 9.2379 19 8.94737 19H6.84211C6.55158 19 6.31579 19.2353 6.31579 19.5263V26.8947H4.21053V17.9474ZM7.36842 26.8947V20.0526H8.42105V26.8947H7.36842ZM12.1053 26.8947V20.0526H13.1579V26.8947H12.1053ZM16.8421 26.8947V20.0526H17.8947V26.8947H16.8421ZM21.5789 26.8947V20.0526H22.6316V26.8947H21.5789ZM28.9474 26.8947H26.8421V18.9305L28.9474 20.3342V26.8947Z" fill="#FFAB00"/>
<path d="M6.84175 17.421H8.94701C9.23753 17.421 9.47332 17.1858 9.47332 16.8947V14.7895C9.47332 14.4984 9.23753 14.2632 8.94701 14.2632H6.84175C6.55122 14.2632 6.31543 14.4984 6.31543 14.7895V16.8947C6.31543 17.1858 6.55122 17.421 6.84175 17.421ZM7.36806 15.3158H8.42069V16.3684H7.36806V15.3158Z" fill="#FFAB00"/>
<path d="M11.5791 17.421H13.6843C13.9748 17.421 14.2106 17.1858 14.2106 16.8947V14.7895C14.2106 14.4984 13.9748 14.2632 13.6843 14.2632H11.5791C11.2885 14.2632 11.0527 14.4984 11.0527 14.7895V16.8947C11.0527 17.1858 11.2885 17.421 11.5791 17.421ZM12.1054 15.3158H13.158V16.3684H12.1054V15.3158Z" fill="#FFAB00"/>
<path d="M16.3154 17.421H18.4206C18.7112 17.421 18.947 17.1858 18.947 16.8947V14.7895C18.947 14.4984 18.7112 14.2632 18.4206 14.2632H16.3154C16.0249 14.2632 15.7891 14.4984 15.7891 14.7895V16.8947C15.7891 17.1858 16.0249 17.421 16.3154 17.421ZM16.8417 15.3158H17.8943V16.3684H16.8417V15.3158Z" fill="#FFAB00"/>
<path d="M21.0527 17.421H23.1579C23.4485 17.421 23.6843 17.1858 23.6843 16.8947V14.7895C23.6843 14.4984 23.4485 14.2632 23.1579 14.2632H21.0527C20.7622 14.2632 20.5264 14.4984 20.5264 14.7895V16.8947C20.5264 17.1858 20.7622 17.421 21.0527 17.421ZM21.579 15.3158H22.6316V16.3684H21.579V15.3158Z" fill="#FFAB00"/>
</svg>
