<svg width="19" height="19" viewBox="0 0 19 19" fill="none" xmlns="http://www.w3.org/2000/svg">
<path d="M18.8517 13.056L17 11.8216V8.33329C17 8.14896 16.8507 7.99996 16.6667 7.99996H15.3333V6.66663C15.3333 6.48229 15.184 6.33329 15 6.33329H12.3147C12.1637 4.89329 11.0463 3.76129 9.66667 3.67563V2.99996H11.6667C11.8507 2.99996 12 2.85096 12 2.66663V0.999959C12 0.815626 11.8507 0.666626 11.6667 0.666626H9.66667H9.33333H9V0.999959V2.66663V3.71629C7.777 3.94829 6.824 5.01129 6.68533 6.33329H4C3.816 6.33329 3.66667 6.48229 3.66667 6.66663V7.99996H2.33333C2.14933 7.99996 2 8.14896 2 8.33329V11.8216L0.148333 13.056C0.0556667 13.118 0 13.222 0 13.3333V18C0 18.1843 0.149333 18.3333 0.333333 18.3333H2.33333H4.33333H5.66667H7.33333H8.66667H10.3333H11.6667H13.3333H14.6667H16.6667H18.6667C18.8507 18.3333 19 18.1843 19 18V13.3333C19 13.222 18.9443 13.118 18.8517 13.056ZM9.66667 1.33329H11.3333V2.33329H9.66667V1.33329ZM9.5 4.33329C10.5893 4.33329 11.491 5.20463 11.642 6.33329H7.358C7.509 5.20463 8.41067 4.33329 9.5 4.33329ZM4.33333 6.99996H14.6667V7.99996H4.33333V6.99996ZM0.666667 13.5116L2 12.6226V17.6666H0.666667V13.5116ZM2.66667 12V8.66663H4H15H16.3333V12V17.6666H15V13C15 12.8156 14.8507 12.6666 14.6667 12.6666H13.3333C13.1493 12.6666 13 12.8156 13 13V17.6666H12V13C12 12.8156 11.8507 12.6666 11.6667 12.6666H10.3333C10.1493 12.6666 10 12.8156 10 13V17.6666H9V13C9 12.8156 8.85067 12.6666 8.66667 12.6666H7.33333C7.14933 12.6666 7 12.8156 7 13V17.6666H6V13C6 12.8156 5.85067 12.6666 5.66667 12.6666H4.33333C4.14933 12.6666 4 12.8156 4 13V17.6666H2.66667V12ZM4.66667 17.6666V13.3333H5.33333V17.6666H4.66667ZM7.66667 17.6666V13.3333H8.33333V17.6666H7.66667ZM10.6667 17.6666V13.3333H11.3333V17.6666H10.6667ZM13.6667 17.6666V13.3333H14.3333V17.6666H13.6667ZM18.3333 17.6666H17V12.6226L18.3333 13.5116V17.6666Z" fill="#979797"/>
<path d="M4.33333 11.6666H5.66667C5.85067 11.6666 6 11.5176 6 11.3333V9.99996C6 9.81563 5.85067 9.66663 5.66667 9.66663H4.33333C4.14933 9.66663 4 9.81563 4 9.99996V11.3333C4 11.5176 4.14933 11.6666 4.33333 11.6666ZM4.66667 10.3333H5.33333V11H4.66667V10.3333Z" fill="#979797"/>
<path d="M7.33333 11.6666H8.66667C8.85067 11.6666 9 11.5176 9 11.3333V9.99996C9 9.81563 8.85067 9.66663 8.66667 9.66663H7.33333C7.14933 9.66663 7 9.81563 7 9.99996V11.3333C7 11.5176 7.14933 11.6666 7.33333 11.6666ZM7.66667 10.3333H8.33333V11H7.66667V10.3333Z" fill="#979797"/>
<path d="M10.3333 11.6666H11.6667C11.8507 11.6666 12 11.5176 12 11.3333V9.99996C12 9.81563 11.8507 9.66663 11.6667 9.66663H10.3333C10.1493 9.66663 10 9.81563 10 9.99996V11.3333C10 11.5176 10.1493 11.6666 10.3333 11.6666ZM10.6667 10.3333H11.3333V11H10.6667V10.3333Z" fill="#979797"/>
<path d="M13.3333 11.6666H14.6667C14.8507 11.6666 15 11.5176 15 11.3333V9.99996C15 9.81563 14.8507 9.66663 14.6667 9.66663H13.3333C13.1493 9.66663 13 9.81563 13 9.99996V11.3333C13 11.5176 13.1493 11.6666 13.3333 11.6666ZM13.6667 10.3333H14.3333V11H13.6667V10.3333Z" fill="#979797"/>
</svg>
