<svg width="36" height="36" viewBox="0 0 30 30" fill="none" xmlns="http://www.w3.org/2000/svg">
<path d="M15.0003 1.66669C12.3632 1.66669 9.78538 2.44867 7.59273 3.91376C5.40007 5.37884 3.69111 7.46123 2.68194 9.89757C1.67277 12.3339 1.40872 15.0148 1.92319 17.6012C2.43766 20.1876 3.70754 22.5634 5.57224 24.4281C7.43694 26.2928 9.81271 27.5627 12.3991 28.0772C14.9855 28.5916 17.6664 28.3276 20.1028 27.3184C22.5391 26.3092 24.6215 24.6003 26.0866 22.4076C27.5517 20.215 28.3337 17.6371 28.3337 15C28.3337 11.4638 26.9289 8.07242 24.4284 5.57193C21.9279 3.07145 18.5366 1.66669 15.0003 1.66669ZM15.0003 26.6667C12.6929 26.6667 10.4373 25.9825 8.51868 24.7005C6.60011 23.4186 5.10476 21.5965 4.22174 19.4647C3.33871 17.3329 3.10768 14.9871 3.55784 12.724C4.008 10.4609 5.11914 8.38205 6.75075 6.75044C8.38237 5.11883 10.4612 4.00769 12.7243 3.55753C14.9874 3.10736 17.3332 3.3384 19.465 4.22143C21.5968 5.10445 23.4189 6.59979 24.7008 8.51837C25.9828 10.4369 26.667 12.6926 26.667 15C26.667 18.0942 25.4378 21.0617 23.2499 23.2496C21.062 25.4375 18.0945 26.6667 15.0003 26.6667Z" fill="#FFAB00"/>
<path d="M15.2413 7.43334C14.3383 7.41841 13.4431 7.60256 12.6192 7.97271C11.7954 8.34286 11.0632 8.88991 10.4747 9.575C10.3929 9.65077 10.3272 9.74218 10.2814 9.84381C10.2356 9.94544 10.2106 10.0552 10.208 10.1667C10.208 10.2695 10.2286 10.3713 10.2687 10.466C10.3087 10.5606 10.3675 10.6463 10.4413 10.7178C10.5152 10.7893 10.6027 10.8453 10.6986 10.8823C10.7945 10.9193 10.8969 10.9367 10.9997 10.9333C11.2198 10.9279 11.4303 10.8419 11.5913 10.6917C12.0367 10.1697 12.5899 9.75049 13.2128 9.46278C13.8357 9.17506 14.5135 9.02571 15.1997 9.025C17.1663 9.025 18.3913 10.2917 18.3913 11.8667V11.9083C18.3913 13.75 16.9247 14.775 14.608 14.95C14.5142 14.9536 14.4222 14.977 14.3381 15.0186C14.2539 15.0603 14.1795 15.1192 14.1197 15.1916C14.06 15.264 14.0161 15.3481 13.9911 15.4386C13.9661 15.5291 13.9605 15.6239 13.9747 15.7167C13.9747 15.7167 13.9747 17.65 13.9747 18.0083C13.9954 18.2146 14.0923 18.4057 14.2464 18.5444C14.4005 18.6831 14.6007 18.7594 14.808 18.7583H14.8997C15.1059 18.7376 15.2971 18.6407 15.4358 18.4866C15.5744 18.3326 15.6507 18.1323 15.6497 17.925V16.2083C18.1497 15.8583 20.1747 14.5417 20.1747 11.8083V11.7667C20.1497 9.26667 18.1997 7.43334 15.2413 7.43334Z" fill="#FFAB00"/>
<path d="M14.8171 22.875C15.3924 22.875 15.8587 22.4087 15.8587 21.8334C15.8587 21.2581 15.3924 20.7917 14.8171 20.7917C14.2418 20.7917 13.7754 21.2581 13.7754 21.8334C13.7754 22.4087 14.2418 22.875 14.8171 22.875Z" fill="#FFAB00"/>
</svg>
