<svg width="36" height="36" viewBox="0 0 30 30" fill="none" xmlns="http://www.w3.org/2000/svg">
<path d="M5.5 7.25H6.5C7.9 7.25 9 6.15 9 4.75V3.25C9 1.85 7.9 0.75 6.5 0.75H5.5C4.1 0.75 3 1.85 3 3.25V4.75C3 6.15 4.1 7.25 5.5 7.25ZM4 3.25C4 2.4 4.65 1.75 5.5 1.75H6.5C7.35 1.75 8 2.4 8 3.25V4.75C8 5.6 7.35 6.25 6.5 6.25H5.5C4.65 6.25 4 5.6 4 4.75V3.25Z" fill="#FFAB00"/>
<path d="M11 14.75V18.25H12V11.25C12 9.3 10.45 7.75 8.5 7.75H3.5C1.55 7.75 0 9.3 0 11.25V18.25H1V14.75H2.5V28.75C2.5 29.05 2.7 29.25 3 29.25H6H9C9.3 29.25 9.5 29.05 9.5 28.75V14.75H11ZM8.5 11.75V28.25H6.5V19.25H7.5V18.25H4.5V19.25H5.5V28.25H3.5V11.75H2.5V13.75H1V11.25C1 9.85 2.1 8.75 3.5 8.75H5.5V13.75H6.5V8.75H8.5C9.9 8.75 11 9.85 11 11.25V13.75H9.5V11.75H8.5Z" fill="#FFAB00"/>
<path d="M29.5 0.75H10.5C10.2 0.75 10 0.95 10 1.25V5.75H11V1.75H29V19.5L20 26.6L10.8 19.35L10.2 20.15L19.7 27.65C19.8 27.7 19.9 27.75 20 27.75C20.1 27.75 20.2 27.7 20.3 27.65L29.8 20.15C29.95 20.05 30 19.9 30 19.75V1.25C30 0.95 29.8 0.75 29.5 0.75Z" fill="#FFAB00"/>
<path d="M13.5 2.75H12.5V3.75H13.5V2.75Z" fill="#FFAB00"/>
<path d="M15.5 2.75H14.5V3.75H15.5V2.75Z" fill="#FFAB00"/>
<path d="M17.5 2.75H16.5V3.75H17.5V2.75Z" fill="#FFAB00"/>
<path d="M19.5 2.75H18.5V3.75H19.5V2.75Z" fill="#FFAB00"/>
<path d="M21.5 2.75H20.5V3.75H21.5V2.75Z" fill="#FFAB00"/>
<path d="M23.5 2.75H22.5V3.75H23.5V2.75Z" fill="#FFAB00"/>
<path d="M25.5 2.75H24.5V3.75H25.5V2.75Z" fill="#FFAB00"/>
<path d="M27.5 2.75H26.5V3.75H27.5V2.75Z" fill="#FFAB00"/>
<path d="M13.5 4.75H12.5V5.75H13.5V4.75Z" fill="#FFAB00"/>
<path d="M15.5 4.75H14.5V5.75H15.5V4.75Z" fill="#FFAB00"/>
<path d="M17.5 4.75H16.5V5.75H17.5V4.75Z" fill="#FFAB00"/>
<path d="M19.5 4.75H18.5V5.75H19.5V4.75Z" fill="#FFAB00"/>
<path d="M21.5 4.75H20.5V5.75H21.5V4.75Z" fill="#FFAB00"/>
<path d="M23.5 4.75H22.5V5.75H23.5V4.75Z" fill="#FFAB00"/>
<path d="M25.5 4.75H24.5V5.75H25.5V4.75Z" fill="#FFAB00"/>
<path d="M27.5 4.75H26.5V5.75H27.5V4.75Z" fill="#FFAB00"/>
<path d="M20 21.25C23.05 21.25 25.5 18.8 25.5 15.75C25.5 12.7 23.05 10.25 20 10.25C16.95 10.25 14.5 12.7 14.5 15.75C14.5 18.8 16.95 21.25 20 21.25ZM20 11.25C22.5 11.25 24.5 13.25 24.5 15.75C24.5 18.25 22.5 20.25 20 20.25C17.5 20.25 15.5 18.25 15.5 15.75C15.5 13.25 17.5 11.25 20 11.25Z" fill="#FFAB00"/>
<path d="M19.0004 18.25C19.1504 18.25 19.2504 18.2 19.3504 18.1L22.8504 14.6L22.1504 13.9L19.0004 17.05L17.8504 15.9L17.1504 16.6L18.6504 18.1C18.7504 18.2 18.8504 18.25 19.0004 18.25Z" fill="#FFAB00"/>
<path d="M22 7.75H18V8.75H22V7.75Z" fill="#FFAB00"/>
</svg>
