<svg width="19" height="19" viewBox="0 0 19 19" fill="none" xmlns="http://www.w3.org/2000/svg">
<path d="M3.48372 4.59164H4.11706C5.00372 4.59164 5.70039 3.89498 5.70039 3.00831V2.05831C5.70039 1.17164 5.00372 0.474976 4.11706 0.474976H3.48372C2.59706 0.474976 1.90039 1.17164 1.90039 2.05831V3.00831C1.90039 3.89498 2.59706 4.59164 3.48372 4.59164ZM2.53372 2.05831C2.53372 1.51998 2.94539 1.10831 3.48372 1.10831H4.11706C4.65539 1.10831 5.06706 1.51998 5.06706 2.05831V3.00831C5.06706 3.54664 4.65539 3.95831 4.11706 3.95831H3.48372C2.94539 3.95831 2.53372 3.54664 2.53372 3.00831V2.05831Z" fill="#979797"/>
<path d="M6.96667 9.34166V11.5583H7.6V7.12499C7.6 5.88999 6.61833 4.90833 5.38333 4.90833H2.21667C0.981667 4.90833 0 5.88999 0 7.12499V11.5583H0.633333V9.34166H1.58333V18.2083C1.58333 18.3983 1.71 18.525 1.9 18.525H3.8H5.7C5.89 18.525 6.01667 18.3983 6.01667 18.2083V9.34166H6.96667ZM5.38333 7.44166V17.8917H4.11667V12.1917H4.75V11.5583H2.85V12.1917H3.48333V17.8917H2.21667V7.44166H1.58333V8.70833H0.633333V7.12499C0.633333 6.23833 1.33 5.54166 2.21667 5.54166H3.48333V8.70833H4.11667V5.54166H5.38333C6.27 5.54166 6.96667 6.23833 6.96667 7.12499V8.70833H6.01667V7.44166H5.38333Z" fill="#979797"/>
<path d="M18.683 0.474976H6.64967C6.45967 0.474976 6.33301 0.601642 6.33301 0.791642V3.64164H6.96634V1.10831H18.3663V12.35L12.6663 16.8466L6.83967 12.255L6.45967 12.7616L12.4763 17.5116C12.5397 17.5433 12.603 17.575 12.6663 17.575C12.7297 17.575 12.793 17.5433 12.8563 17.5116L18.873 12.7616C18.968 12.6983 18.9997 12.6033 18.9997 12.5083V0.791642C18.9997 0.601642 18.873 0.474976 18.683 0.474976Z" fill="#979797"/>
<path d="M8.55033 1.7417H7.91699V2.37503H8.55033V1.7417Z" fill="#979797"/>
<path d="M9.81693 1.7417H9.18359V2.37503H9.81693V1.7417Z" fill="#979797"/>
<path d="M11.0835 1.7417H10.4502V2.37503H11.0835V1.7417Z" fill="#979797"/>
<path d="M12.3501 1.7417H11.7168V2.37503H12.3501V1.7417Z" fill="#979797"/>
<path d="M13.6167 1.7417H12.9834V2.37503H13.6167V1.7417Z" fill="#979797"/>
<path d="M14.8833 1.7417H14.25V2.37503H14.8833V1.7417Z" fill="#979797"/>
<path d="M16.1499 1.7417H15.5166V2.37503H16.1499V1.7417Z" fill="#979797"/>
<path d="M17.4165 1.7417H16.7832V2.37503H17.4165V1.7417Z" fill="#979797"/>
<path d="M8.55033 3.0083H7.91699V3.64163H8.55033V3.0083Z" fill="#979797"/>
<path d="M9.81693 3.0083H9.18359V3.64163H9.81693V3.0083Z" fill="#979797"/>
<path d="M11.0835 3.0083H10.4502V3.64163H11.0835V3.0083Z" fill="#979797"/>
<path d="M12.3501 3.0083H11.7168V3.64163H12.3501V3.0083Z" fill="#979797"/>
<path d="M13.6167 3.0083H12.9834V3.64163H13.6167V3.0083Z" fill="#979797"/>
<path d="M14.8833 3.0083H14.25V3.64163H14.8833V3.0083Z" fill="#979797"/>
<path d="M16.1499 3.0083H15.5166V3.64163H16.1499V3.0083Z" fill="#979797"/>
<path d="M17.4165 3.0083H16.7832V3.64163H17.4165V3.0083Z" fill="#979797"/>
<path d="M12.6669 13.4584C14.5986 13.4584 16.1503 11.9067 16.1503 9.97503C16.1503 8.04337 14.5986 6.4917 12.6669 6.4917C10.7353 6.4917 9.18359 8.04337 9.18359 9.97503C9.18359 11.9067 10.7353 13.4584 12.6669 13.4584ZM12.6669 7.12503C14.2503 7.12503 15.5169 8.3917 15.5169 9.97503C15.5169 11.5584 14.2503 12.825 12.6669 12.825C11.0836 12.825 9.81693 11.5584 9.81693 9.97503C9.81693 8.3917 11.0836 7.12503 12.6669 7.12503Z" fill="#979797"/>
<path d="M12.033 11.5583C12.128 11.5583 12.1913 11.5267 12.2547 11.4633L14.4713 9.24668L14.028 8.80334L12.033 10.7983L11.3047 10.07L10.8613 10.5133L11.8113 11.4633C11.8747 11.5267 11.938 11.5583 12.033 11.5583Z" fill="#979797"/>
<path d="M13.9337 4.90833H11.4004V5.54166H13.9337V4.90833Z" fill="#979797"/>
</svg>
