<svg width="22" height="22" viewBox="0 0 22 22" fill="none" xmlns="http://www.w3.org/2000/svg">
<path d="M20.9355 0H7.09677C6.50987 0 6.03226 0.477613 6.03226 1.06452V6.60106C2.52113 7.41826 0 10.5607 0 14.1935C0 18.4981 3.5019 22 7.80645 22C12.111 22 15.6129 18.4981 15.6129 14.1935C15.6129 10.164 12.5439 6.8381 8.62045 6.42968L9.37271 5.67742H20.9355C21.5224 5.67742 22 5.19981 22 4.6129V1.06452C22 0.477613 21.5224 0 20.9355 0ZM6.03226 7.33026V7.84974C5.43932 8.50584 4.8141 9.36881 4.33826 10.4397C3.40255 10.0746 2.89016 9.61897 2.6439 9.33474C3.542 8.37952 4.70516 7.67197 6.03226 7.33026ZM7.45126 13.8387H4.26835C4.30526 12.909 4.48126 12.0716 4.74455 11.3296C5.46877 11.5347 6.35942 11.6788 7.45126 11.7047V13.8387ZM2.17871 9.88474C2.50871 10.2438 3.09455 10.7264 4.07035 11.1054C3.78506 11.913 3.59594 12.8253 3.55903 13.8387H0.72529C0.799097 12.3675 1.32426 11 2.17871 9.88474ZM2.17977 18.5013C1.32958 17.3935 0.801581 16.0313 0.727774 14.5484H3.5569C3.59381 15.5657 3.78542 16.4766 4.06858 17.2821C3.09455 17.6607 2.50977 18.1425 2.17977 18.5013ZM2.64603 19.0502C2.89264 18.7664 3.40255 18.3136 4.33223 17.9499C4.99968 19.4601 5.95916 20.5377 6.67026 21.1906C5.09513 20.9355 3.69423 20.1634 2.64603 19.0502ZM7.45161 20.9263C6.81042 20.3823 5.74377 19.311 5.02061 17.7235C5.66855 17.5461 6.47084 17.4222 7.45161 17.397V20.9263ZM7.45161 16.6827C6.36261 16.7086 5.47339 16.852 4.75023 17.056C4.48552 16.3144 4.30419 15.4788 4.26658 14.5484H7.45161V16.6827ZM7.45161 10.9901C6.46871 10.9645 5.665 10.8407 5.01635 10.6625C5.31194 10.0118 5.66642 9.44474 6.03226 8.96216V9.01787L7.45161 7.59852V10.9901ZM8.16129 20.9241V17.397C9.14065 17.4222 9.94223 17.5457 10.5898 17.7228C9.86664 19.3064 8.80213 20.3787 8.16129 20.9241ZM11.3463 14.5484C11.3087 15.4781 11.1267 16.3137 10.8609 17.0553C10.1381 16.8513 9.24958 16.7083 8.16129 16.6827V14.5484H11.3463ZM8.16129 13.8387V11.7044C9.25029 11.6785 10.1395 11.5351 10.8627 11.3311C11.1274 12.0727 11.3087 12.9083 11.3463 13.8387H8.16129ZM8.94265 21.1906C9.65374 20.5377 10.6132 19.4597 11.2807 17.9499C12.21 18.3136 12.7203 18.7667 12.9669 19.0502C11.9187 20.1634 10.5178 20.9355 8.94265 21.1906ZM13.4331 18.5013C13.1031 18.1425 12.5184 17.6607 11.5443 17.2821C11.8271 16.4762 12.0191 15.5654 12.056 14.5484H14.8851C14.8113 16.0313 14.2833 17.3935 13.4331 18.5013ZM13.4331 9.88581C14.2833 10.9936 14.8113 12.3558 14.8851 13.8387H12.056C12.0191 12.8214 11.8275 11.9105 11.5443 11.105C12.5184 10.7264 13.1031 10.2445 13.4331 9.88581ZM12.9669 9.33687C12.7203 9.62074 12.2104 10.0735 11.2807 10.4372C10.6132 8.92703 9.65374 7.84939 8.94265 7.19648C10.5178 7.45161 11.9187 8.22374 12.9669 9.33687ZM10.5923 10.6636C9.94435 10.841 9.14206 10.9649 8.16129 10.9901V7.46084C8.80248 8.00481 9.86913 9.07606 10.5923 10.6636ZM21.2903 4.6129C21.2903 4.80842 21.1314 4.96774 20.9355 4.96774H9.0789L6.74194 7.30471V1.06452C6.74194 0.869 6.9009 0.709677 7.09677 0.709677H20.9355C21.1314 0.709677 21.2903 0.869 21.2903 1.06452V4.6129Z" fill="#979797"/>
<path d="M10.6447 1.71667L10.154 3.18854L9.87082 1.77415H8.93475L8.65159 3.18854L8.16085 1.71667V1.41931H7.45117V1.83163L8.25985 4.25802H9.16114L9.40278 3.05121L9.64443 4.25802H10.5457L11.3544 1.83163V1.41931H10.6447V1.71667Z" fill="#979797"/>
<path d="M15.258 1.71667L14.7673 3.18854L14.4841 1.77415H13.548L13.2649 3.18854L12.7741 1.71667V1.41931H12.0645V1.83163L12.8731 4.25802H13.7744L14.0161 3.05121L14.2577 4.25802H15.159L15.9677 1.83163V1.41931H15.258V1.71667Z" fill="#979797"/>
<path d="M19.8713 1.71667L19.3805 3.18854L19.0974 1.77415H18.1613L17.8782 3.18854L17.3874 1.71667V1.41931H16.6777V1.83163L17.4864 4.25802H18.3877L18.6293 3.05121L18.871 4.25802H19.7723L20.581 1.83163V1.41931H19.8713V1.71667Z" fill="#979797"/>
<path d="M9.58077 12.4193H8.87109V13.129H9.58077V12.4193Z" fill="#979797"/>
<path d="M6.7419 15.2581H6.03223V15.9677H6.7419V15.2581Z" fill="#979797"/>
</svg>
