<svg width="36" height="36" viewBox="0 0 30 30" fill="none" xmlns="http://www.w3.org/2000/svg">
<path d="M28.5484 0H9.67742C8.8771 0 8.22581 0.65129 8.22581 1.45161V9.00145C3.4379 10.1158 0 14.401 0 19.3548C0 25.2247 4.77532 30 10.6452 30C16.515 30 21.2903 25.2247 21.2903 19.3548C21.2903 13.86 17.1053 9.32468 11.7552 8.76774L12.781 7.74194H28.5484C29.3487 7.74194 30 7.09064 30 6.29032V1.45161C30 0.65129 29.3487 0 28.5484 0ZM8.22581 9.99581V10.7042C7.41726 11.5989 6.56468 12.7756 5.91581 14.236C4.63984 13.7381 3.94113 13.1168 3.60532 12.7292C4.83 11.4266 6.41613 10.4618 8.22581 9.99581ZM10.1608 18.871H5.82048C5.87081 17.6032 6.11081 16.4613 6.46984 15.4495C7.45742 15.7292 8.67194 15.9256 10.1608 15.961V18.871ZM2.97097 13.4792C3.42097 13.9689 4.21984 14.6269 5.55048 15.1437C5.16145 16.245 4.90355 17.489 4.85323 18.871H0.989032C1.08968 16.8648 1.80581 15 2.97097 13.4792ZM2.97242 25.229C1.81306 23.7184 1.09306 21.8608 0.992419 19.8387H4.85032C4.90065 21.226 5.16194 22.4681 5.54806 23.5665C4.21984 24.0827 3.42242 24.7398 2.97242 25.229ZM3.60823 25.9776C3.94452 25.5905 4.63984 24.9731 5.90758 24.4771C6.81774 26.5364 8.12613 28.006 9.09581 28.8963C6.9479 28.5484 5.03758 27.4955 3.60823 25.9776ZM10.1613 28.5358C9.28693 27.794 7.83242 26.3332 6.84629 24.1684C7.72984 23.9265 8.82387 23.7576 10.1613 23.7232V28.5358ZM10.1613 22.7492C8.67629 22.7845 7.46371 22.98 6.47758 23.2582C6.11661 22.2469 5.86935 21.1074 5.81806 19.8387H10.1613V22.7492ZM10.1613 14.9865C8.82097 14.9516 7.725 14.7827 6.84048 14.5398C7.24355 13.6524 7.72694 12.8792 8.22581 12.2211V12.2971L10.1613 10.3616V14.9865ZM11.129 28.5329V23.7232C12.4645 23.7576 13.5576 23.926 14.4406 24.1674C13.4545 26.3269 12.0029 27.7892 11.129 28.5329ZM15.4723 19.8387C15.421 21.1065 15.1727 22.246 14.8103 23.2573C13.8247 22.979 12.6131 22.784 11.129 22.7492V19.8387H15.4723ZM11.129 18.871V15.9605C12.614 15.9252 13.8266 15.7297 14.8127 15.4515C15.1737 16.4627 15.421 17.6023 15.4723 18.871H11.129ZM12.1945 28.8963C13.1642 28.006 14.4726 26.536 15.3827 24.4771C16.65 24.9731 17.3458 25.591 17.6821 25.9776C16.2527 27.4955 14.3424 28.5484 12.1945 28.8963ZM18.3179 25.229C17.8679 24.7398 17.0705 24.0827 15.7423 23.5665C16.1279 22.4676 16.3897 21.2255 16.44 19.8387H20.2979C20.1973 21.8608 19.4773 23.7184 18.3179 25.229ZM18.3179 13.4806C19.4773 14.9913 20.1973 16.8489 20.2979 18.871H16.44C16.3897 17.4837 16.1284 16.2416 15.7423 15.1432C17.0705 14.6269 17.8679 13.9698 18.3179 13.4806ZM17.6821 12.7321C17.3458 13.1192 16.6505 13.7366 15.3827 14.2326C14.4726 12.1732 13.1642 10.7037 12.1945 9.81339C14.3424 10.1613 16.2527 11.2142 17.6821 12.7321ZM14.444 14.5413C13.5605 14.7832 12.4665 14.9521 11.129 14.9865V10.1739C12.0034 10.9156 13.4579 12.3765 14.444 14.5413ZM29.0323 6.29032C29.0323 6.55694 28.8155 6.77419 28.5484 6.77419H12.3803L9.19355 9.96097V1.45161C9.19355 1.185 9.41032 0.967742 9.67742 0.967742H28.5484C28.8155 0.967742 29.0323 1.185 29.0323 1.45161V6.29032Z" fill="#FFAB00"/>
<path d="M14.516 2.34097L13.8468 4.34806L13.4606 2.41935H12.1842L11.7981 4.34806L11.1289 2.34097V1.93548H10.1611V2.49774L11.2639 5.80645H12.4929L12.8224 4.1608L13.1519 5.80645H14.381L15.4837 2.49774V1.93548H14.516V2.34097Z" fill="#FFAB00"/>
<path d="M20.806 2.34097L20.1368 4.34806L19.7507 2.41935H18.4742L18.0881 4.34806L17.4189 2.34097V1.93548H16.4512V2.49774L17.5539 5.80645H18.7829L19.1125 4.1608L19.442 5.80645H20.671L21.7738 2.49774V1.93548H20.806V2.34097Z" fill="#FFAB00"/>
<path d="M27.097 2.34097L26.4278 4.34806L26.0417 2.41935H24.7653L24.3791 4.34806L23.7099 2.34097V1.93548H22.7422V2.49774L23.8449 5.80645H25.074L25.4035 4.1608L25.733 5.80645H26.962L28.0648 2.49774V1.93548H27.097V2.34097Z" fill="#FFAB00"/>
<path d="M13.0644 16.9355H12.0967V17.9032H13.0644V16.9355Z" fill="#FFAB00"/>
<path d="M9.19333 20.8065H8.22559V21.7742H9.19333V20.8065Z" fill="#FFAB00"/>
</svg>
