<svg width="36" height="36" viewBox="0 0 30 30" fill="none" xmlns="http://www.w3.org/2000/svg">
<path d="M13.5481 4.8377L8.22551 3.38807L6.9176 4.47579C6.50682 3.85982 6.29004 3.1432 6.29004 2.4034V1.21063C6.29004 0.543387 6.83245 0.000976562 7.49969 0.000976562C8.16694 0.000976562 8.70935 0.543387 8.70935 1.21063V1.69447C8.70935 1.8275 8.81819 1.93644 8.95132 1.93644C9.08445 1.93644 9.19329 1.8276 9.19329 1.69447V1.21063C9.19329 0.543387 9.7357 0.000976562 10.4029 0.000976562C11.0702 0.000976562 11.6126 0.543387 11.6126 1.21063V1.69447C11.6126 1.8275 11.7214 1.93644 11.8546 1.93644C11.9877 1.93644 12.0965 1.8276 12.0965 1.69447V1.21063C12.0965 0.543387 12.639 0.000976562 13.3062 0.000976562C13.9734 0.000976562 14.5159 0.543387 14.5159 1.21063V2.4034C14.5159 3.1432 14.2991 3.86032 13.8883 4.47579L13.5481 4.8377Z" fill="#FFAB00"/>
<path d="M5.92064 12.0958L4.95286 11.6119H3.38709V4.35388H0V13.5474H3.38709V12.5796H4.72448L5.69226 13.0634H6.29035V12.0957L5.92064 12.0958ZM2.41931 12.5797H0.967784V5.32157H2.41941V12.5797H2.41931Z" fill="#FFAB00"/>
<path d="M10.6483 22.7429C10.5607 22.7429 10.4736 22.7414 10.3855 22.7376C7.11937 22.6059 4.41412 19.8377 4.35555 16.5673C4.32506 14.8805 4.95653 13.2852 6.1328 12.076C7.17025 11.009 7.74164 9.67793 7.74164 8.32885L10.161 6.77518L11.1287 7.74296V12.5797H14.5158L15.0824 11.9971C16.2776 13.1855 16.9351 14.7672 16.9351 16.4526C16.9351 18.181 16.2485 19.7923 15.0016 20.9899C13.8191 22.1259 12.2814 22.7429 10.6483 22.7429Z" fill="#FFAB00"/>
<path d="M13.0644 15.4828V15.2429C13.0644 14.309 12.3047 13.5474 11.3708 13.5474H11.1288V12.5796H10.1611V13.5474H9.91908C8.98518 13.5474 8.22559 14.3071 8.22559 15.2409C8.22559 16.1748 8.98528 16.9345 9.91908 16.9345H11.3707C11.7709 16.9345 12.0965 17.2601 12.0965 17.6603C12.0965 18.0605 11.7709 18.3861 11.3707 18.3861H9.91918C9.519 18.3861 9.19337 18.0624 9.19337 17.6622V17.4183H8.22559V17.6622C8.22559 18.5961 8.98528 19.3538 9.91908 19.3538H10.1611V20.3216H11.1288V19.3538H11.3708C12.3047 19.3538 13.0644 18.5941 13.0644 17.6603C13.0644 16.7264 12.3047 15.9667 11.3708 15.9667H9.91918C9.519 15.9667 9.19337 15.6411 9.19337 15.2409C9.19337 14.8407 9.519 14.5151 9.91918 14.5151H11.3708C11.771 14.5151 12.0966 14.8427 12.0966 15.2428V15.4827L13.0644 15.4828Z" fill="white"/>
<path d="M15.1065 6.77518C15.3388 6.51772 15.4839 6.1795 15.4839 5.8065C15.4839 5.00622 14.8327 4.35387 14.0323 4.35387H12.2314L11.8945 3.93289L8.11314 2.85147L5.14752 5.32155H2.90332V6.28934H5.49784L8.33912 3.9227L11.3318 4.77814L12.3499 6.05027C12.4844 6.21868 12.5439 6.42966 12.5168 6.64345C12.4897 6.85734 12.3794 7.04703 12.2067 7.17617C11.8945 7.41034 11.4509 7.37886 11.1741 7.1026L10.1976 6.12613L7.4401 8.33225L8.04448 9.08805L10.1256 7.42303L10.4895 7.78734C10.5427 7.84061 10.6022 7.88409 10.6608 7.92906C10.6961 8.28228 10.8248 8.48987 11.0227 8.70905C10.7904 8.96651 10.6453 9.30423 10.6453 9.67723C10.6453 10.0502 10.7909 10.3881 11.0227 10.645C10.7904 10.9025 10.6453 11.2387 10.6453 11.6118C10.6453 12.4131 11.2965 13.0634 12.0969 13.0634H14.0324C14.8327 13.0634 15.484 12.4131 15.484 11.6128C15.484 11.2397 15.3384 10.903 15.1066 10.6455C15.3389 10.3881 15.484 10.0513 15.484 9.67773C15.484 9.30423 15.3384 8.96741 15.1066 8.70995C15.3389 8.45249 15.484 8.11526 15.484 7.74216C15.4839 7.36936 15.3383 7.03254 15.1065 6.77518ZM14.0323 12.0957H12.0968C11.8302 12.0957 11.613 11.8785 11.613 11.6119C11.613 11.3452 11.8303 11.1281 12.0968 11.1281H14.0323C14.2989 11.1281 14.5161 11.3453 14.5161 11.6119C14.5162 11.8786 14.2989 12.0957 14.0323 12.0957ZM14.0323 10.1603H12.0968C11.8302 10.1603 11.613 9.94299 11.613 9.67643C11.613 9.40977 11.8303 9.19259 12.0968 9.19259H14.0323C14.2989 9.19259 14.5161 9.40987 14.5161 9.67643C14.5162 9.94309 14.2989 10.1603 14.0323 10.1603ZM14.0323 8.22481H12.2395C12.4326 8.16724 12.6189 8.07719 12.7873 7.95095C13.0311 7.76805 13.2111 7.52758 13.3312 7.25712H14.0323C14.2989 7.25712 14.5161 7.47441 14.5161 7.74096C14.5161 8.00752 14.2989 8.22481 14.0323 8.22481ZM14.0323 6.28934H13.4647C13.4202 5.9845 13.3036 5.69416 13.1052 5.44599L13.0055 5.32165H14.0323C14.2989 5.32165 14.5161 5.53894 14.5161 5.8055C14.5162 6.07205 14.2989 6.28934 14.0323 6.28934Z" fill="#FFAB00"/>
<path d="M26.6129 22.7409V24.1926H23.3724L22.0427 23.3061L17.9647 21.8598C17.5766 21.7234 17.16 21.751 16.7932 21.9373C16.4259 22.1236 16.1583 22.4429 16.0388 22.8368C15.8322 23.5185 16.1389 24.2564 16.768 24.5904L17.8155 25.1468L16.2924 25.1516L15.6662 23.5858C15.4601 23.0729 14.9699 22.7409 14.4164 22.7409C13.9843 22.7409 13.5759 22.9509 13.3237 23.3013C13.0717 23.6526 13.0034 24.1064 13.1413 24.5158L13.288 24.9503L12.2263 24.3701C11.8886 24.1848 11.485 24.149 11.1197 24.2723C10.7544 24.3943 10.4539 24.6657 10.2952 25.0165C9.98452 25.7027 10.2705 26.5015 10.946 26.835L13.3344 28.0136L18.2922 29.022L24.7253 29.0312L26.6129 28.6538V29.999H30V22.7409H26.6129ZM14.1096 23.866C14.2722 23.6395 14.6641 23.6874 14.7672 23.9458L15.251 25.155L14.3791 25.1579L14.0587 24.2066C14.0196 24.0899 14.038 23.9661 14.1096 23.866ZM24.6294 28.0635H18.4349L13.7055 27.1175L11.3743 25.9673C11.1696 25.8662 11.0825 25.6238 11.1769 25.4152C11.2258 25.3073 11.3143 25.227 11.4271 25.1897C11.5388 25.1511 11.6588 25.1622 11.7629 25.2197L13.425 26.1279H18.0174L19.9268 25.1733L17.2225 23.7357C17.0009 23.6177 16.8924 23.3578 16.965 23.1173C17.0071 22.9785 17.1014 22.8653 17.2312 22.7999C17.3604 22.7337 17.5074 22.725 17.6443 22.7723L21.557 24.1451L23.0792 25.1603H26.613V27.6667L24.6294 28.0635ZM29.0322 29.0312H27.5805V23.7086H29.0322V29.0312Z" fill="#FFAB00"/>
</svg>
