<svg width="22" height="22" viewBox="0 0 22 22" fill="none" xmlns="http://www.w3.org/2000/svg">
<path d="M9.93584 3.54766L6.03262 2.4846L5.0735 3.28226C4.77226 2.83055 4.61328 2.30503 4.61328 1.76251V0.887813C4.61328 0.3985 5.01105 0.000732422 5.50036 0.000732422C5.98967 0.000732422 6.38744 0.3985 6.38744 0.887813V1.24263C6.38744 1.34019 6.46726 1.42008 6.56489 1.42008C6.66252 1.42008 6.74233 1.34026 6.74233 1.24263V0.887813C6.74233 0.3985 7.1401 0.000732422 7.62941 0.000732422C8.11873 0.000732422 8.51649 0.3985 8.51649 0.887813V1.24263C8.51649 1.34019 8.59631 1.42008 8.69394 1.42008C8.79157 1.42008 8.87138 1.34026 8.87138 1.24263V0.887813C8.87138 0.3985 9.26915 0.000732422 9.75847 0.000732422C10.2478 0.000732422 10.6455 0.3985 10.6455 0.887813V1.76251C10.6455 2.30503 10.4866 2.83092 10.1853 3.28226L9.93584 3.54766Z" fill="#979797"/>
<path d="M4.3418 8.87012L3.6321 8.51531H2.48387V3.19275H0V9.93465H2.48387V9.22494H3.46462L4.17433 9.57976H4.61292V8.87005L4.3418 8.87012ZM1.77416 9.22501H0.709708V3.90238H1.77423V9.22501H1.77416Z" fill="#979797"/>
<path d="M7.80881 16.678C7.74461 16.678 7.68069 16.6769 7.61612 16.6741C5.22094 16.5776 3.23708 14.5476 3.19413 12.1492C3.17178 10.9123 3.63485 9.74241 4.49745 8.85562C5.25825 8.0732 5.67727 7.09707 5.67727 6.10774L7.45143 4.96838L8.16114 5.67809V9.22502H10.645L11.0605 8.79779C11.937 9.66926 12.4192 10.8292 12.4192 12.0652C12.4192 13.3327 11.9156 14.5143 11.0012 15.3925C10.1341 16.2256 9.00644 16.678 7.80881 16.678Z" fill="#979797"/>
<path d="M9.58069 11.354V11.178C9.58069 10.4932 9.02358 9.93468 8.33872 9.93468H8.16128V9.22498H7.45157V9.93468H7.27412C6.58926 9.93468 6.03223 10.4918 6.03223 11.1766C6.03223 11.8614 6.58934 12.4186 7.27412 12.4186H8.33865C8.63212 12.4186 8.87091 12.6573 8.87091 12.9508C8.87091 13.2443 8.63212 13.4831 8.33865 13.4831H7.2742C6.98073 13.4831 6.74193 13.2457 6.74193 12.9522V12.7734H6.03223V12.9522C6.03223 13.6371 6.58934 14.1927 7.27412 14.1927H7.45157V14.9024H8.16128V14.1927H8.33872C9.02358 14.1927 9.58069 13.6356 9.58069 12.9508C9.58069 12.266 9.02358 11.7088 8.33872 11.7088H7.2742C6.98073 11.7088 6.74193 11.4701 6.74193 11.1766C6.74193 10.8831 6.98073 10.6443 7.2742 10.6443H8.33872C8.63219 10.6443 8.87099 10.8846 8.87099 11.178V11.354L9.58069 11.354Z" fill="white"/>
<path d="M11.0779 4.96845C11.2483 4.77964 11.3547 4.53162 11.3547 4.25808C11.3547 3.67122 10.8771 3.19282 10.2902 3.19282H8.96946L8.72246 2.88411L5.94944 2.09106L3.77466 3.90246H2.12891V4.61217H4.03155L6.11516 2.87663L8.30981 3.50396L9.05639 4.43685C9.15504 4.56035 9.19865 4.71507 9.17879 4.87185C9.15893 5.0287 9.07801 5.16781 8.95136 5.26251C8.72246 5.43424 8.39711 5.41115 8.19415 5.20856L7.47807 4.49248L5.45588 6.1103L5.89909 6.66455L7.42522 5.44354L7.69209 5.7107C7.73115 5.74977 7.77476 5.78165 7.81772 5.81463C7.84359 6.07365 7.93799 6.22589 8.08311 6.38662C7.91278 6.57543 7.80635 6.82309 7.80635 7.09662C7.80635 7.37016 7.91314 7.61789 8.08311 7.80633C7.91278 7.99514 7.80635 8.2417 7.80635 8.51531C7.80635 9.10291 8.28394 9.57983 8.87088 9.57983H10.2902C10.8771 9.57983 11.3548 9.10291 11.3548 8.51604C11.3548 8.24243 11.248 7.9955 11.078 7.8067C11.2483 7.61789 11.3548 7.37096 11.3548 7.09699C11.3548 6.82309 11.248 6.57609 11.078 6.38728C11.2483 6.19848 11.3548 5.95118 11.3548 5.67757C11.3547 5.40418 11.2479 5.15718 11.0779 4.96845ZM10.2902 8.8702H8.87081C8.67526 8.8702 8.51599 8.71086 8.51599 8.51538C8.51599 8.31983 8.67533 8.16056 8.87081 8.16056H10.2902C10.4857 8.16056 10.645 8.3199 10.645 8.51538C10.645 8.71093 10.4857 8.8702 10.2902 8.8702ZM10.2902 7.45085H8.87081C8.67526 7.45085 8.51599 7.29151 8.51599 7.09604C8.51599 6.90049 8.67533 6.74122 8.87081 6.74122H10.2902C10.4857 6.74122 10.645 6.90056 10.645 7.09604C10.645 7.29159 10.4857 7.45085 10.2902 7.45085ZM10.2902 6.03151H8.97547C9.11708 5.98929 9.2537 5.92325 9.37712 5.83068C9.55596 5.69656 9.68797 5.52021 9.77599 5.32188H10.2902C10.4857 5.32188 10.645 5.48122 10.645 5.67669C10.645 5.87217 10.4857 6.03151 10.2902 6.03151ZM10.2902 4.61217H9.87391C9.8413 4.38862 9.75576 4.1757 9.61027 3.99371L9.5372 3.90253H10.2902C10.4857 3.90253 10.645 4.06187 10.645 4.25735C10.645 4.45283 10.4857 4.61217 10.2902 4.61217Z" fill="#979797"/>
<path d="M19.5162 16.6766V17.7412H17.1398L16.1647 17.0911L13.1742 16.0305C12.8896 15.9304 12.5841 15.9507 12.3151 16.0873C12.0457 16.2239 11.8495 16.4581 11.7618 16.7469C11.6103 17.2469 11.8353 17.788 12.2966 18.0329L13.0648 18.4409L11.9478 18.4444L11.4886 17.2962C11.3375 16.92 10.978 16.6766 10.5721 16.6766C10.2552 16.6766 9.95573 16.8306 9.77081 17.0875C9.58596 17.3452 9.5359 17.678 9.63705 17.9782L9.74457 18.2968L8.96604 17.8713C8.71838 17.7354 8.42241 17.7092 8.15452 17.7996C7.88663 17.8891 7.66624 18.0881 7.54985 18.3454C7.32205 18.8486 7.53174 19.4344 8.02714 19.6789L9.77865 20.5433L13.4143 21.2827L18.1319 21.2895L19.5162 21.0127V21.9992H22V16.6766H19.5162ZM10.3471 17.5016C10.4664 17.3355 10.7538 17.3707 10.8293 17.5602L11.1841 18.4469L10.5447 18.449L10.3098 17.7514C10.2811 17.6659 10.2946 17.5751 10.3471 17.5016ZM18.0616 20.5798H13.519L10.0508 19.8861L8.3412 19.0426C8.1911 18.9685 8.12726 18.7907 8.19645 18.6378C8.23229 18.5586 8.29723 18.4998 8.3799 18.4724C8.46185 18.4441 8.54987 18.4522 8.62617 18.4944L9.84506 19.1604H13.2129L14.6131 18.4603L12.6299 17.4061C12.4674 17.3196 12.3879 17.129 12.4411 16.9527C12.4719 16.8509 12.5411 16.7678 12.6362 16.7199C12.731 16.6713 12.8388 16.6649 12.9392 16.6996L15.8085 17.7063L16.9248 18.4508H19.5162V20.2889L18.0616 20.5798ZM21.2903 21.2895H20.2258V17.3863H21.2903V21.2895Z" fill="#979797"/>
</svg>
