<svg width="13" height="19" viewBox="0 0 13 19" fill="none" xmlns="http://www.w3.org/2000/svg">
<path d="M10.4395 0H2.5604C1.66662 0 0.939453 0.727171 0.939453 1.62095V7.47566C0.939453 8.60794 0.978971 9.755 1.05686 10.8849L1.55459 18.102C1.58931 18.6056 2.01195 19 2.5167 19H10.4832C10.9879 19 11.4105 18.6056 11.4453 18.102L11.943 10.8849C12.0209 9.75521 12.0604 8.60815 12.0604 7.47566V1.62095C12.0604 0.727171 11.3332 0 10.4395 0ZM9.80338 18.3844H3.19647V17.7073C3.19647 17.6961 3.20566 17.6868 3.21699 17.6868H9.78286C9.79419 17.6868 9.80338 17.6961 9.80338 17.7073V18.3844ZM11.4449 7.47566C11.4449 8.59407 11.4058 9.72685 11.3289 10.8426L10.8311 18.0596C10.8186 18.2418 10.6657 18.3844 10.4832 18.3844H10.4189V17.7073C10.4189 17.3566 10.1336 17.0713 9.78286 17.0713H3.21699C2.86625 17.0713 2.58092 17.3566 2.58092 17.7073V18.3844H2.5167C2.33413 18.3844 2.18131 18.2418 2.16875 18.0596L1.67101 10.8426C1.59403 9.72665 1.555 8.59387 1.555 7.47566V1.62095C1.555 1.06654 2.00604 0.615551 2.5604 0.615551H10.4395C10.9938 0.615551 11.4449 1.06654 11.4449 1.62095V7.47566Z" fill="#979797"/>
<path d="M3.87354 9.84875C3.34179 9.84875 2.90918 10.2814 2.90918 10.8131C2.90918 11.3449 3.34179 11.7775 3.87354 11.7775C4.4053 11.7775 4.83791 11.3449 4.83791 10.8131C4.83791 10.2814 4.4053 9.84875 3.87354 9.84875ZM3.87354 11.1619C3.6812 11.1619 3.52473 11.0055 3.52473 10.8131C3.52473 10.6208 3.6812 10.4643 3.87354 10.4643C4.06588 10.4643 4.22235 10.6208 4.22235 10.8131C4.22235 11.0055 4.06588 11.1619 3.87354 11.1619Z" fill="#979797"/>
<path d="M6.49952 9.84875C5.96777 9.84875 5.53516 10.2814 5.53516 10.8131C5.53516 11.3449 5.96777 11.7775 6.49952 11.7775C7.03127 11.7775 7.46388 11.3449 7.46388 10.8131C7.46388 10.2814 7.03127 9.84875 6.49952 9.84875ZM6.49952 11.1619C6.30718 11.1619 6.15071 11.0055 6.15071 10.8131C6.15071 10.6208 6.30718 10.4643 6.49952 10.4643C6.69186 10.4643 6.84833 10.6208 6.84833 10.8131C6.84833 11.0055 6.69186 11.1619 6.49952 11.1619Z" fill="#979797"/>
<path d="M9.12647 9.84875C8.59472 9.84875 8.16211 10.2814 8.16211 10.8131C8.16211 11.3449 8.59472 11.7775 9.12647 11.7775C9.65823 11.7775 10.0908 11.3449 10.0908 10.8131C10.0908 10.2814 9.65823 9.84875 9.12647 9.84875ZM9.12647 11.1619C8.93413 11.1619 8.77766 11.0055 8.77766 10.8131C8.77766 10.6208 8.93413 10.4643 9.12647 10.4643C9.31881 10.4643 9.47528 10.6208 9.47528 10.8131C9.47528 11.0055 9.31881 11.1619 9.12647 11.1619Z" fill="#979797"/>
<path d="M3.87354 12.1469C3.34179 12.1469 2.90918 12.5795 2.90918 13.1112C2.90918 13.643 3.34179 14.0756 3.87354 14.0756C4.4053 14.0756 4.83791 13.643 4.83791 13.1112C4.83791 12.5795 4.4053 12.1469 3.87354 12.1469ZM3.87354 13.46C3.6812 13.46 3.52473 13.3036 3.52473 13.1112C3.52473 12.9189 3.6812 12.7624 3.87354 12.7624C4.06588 12.7624 4.22235 12.9189 4.22235 13.1112C4.22235 13.3036 4.06588 13.46 3.87354 13.46Z" fill="#979797"/>
<path d="M6.49952 12.1469C5.96777 12.1469 5.53516 12.5795 5.53516 13.1112C5.53516 13.643 5.96777 14.0756 6.49952 14.0756C7.03127 14.0756 7.46388 13.643 7.46388 13.1112C7.46388 12.5795 7.03127 12.1469 6.49952 12.1469ZM6.49952 13.46C6.30718 13.46 6.15071 13.3036 6.15071 13.1112C6.15071 12.9189 6.30718 12.7624 6.49952 12.7624C6.69186 12.7624 6.84833 12.9189 6.84833 13.1112C6.84833 13.3036 6.69186 13.46 6.49952 13.46Z" fill="#979797"/>
<path d="M9.12647 12.1469C8.59472 12.1469 8.16211 12.5795 8.16211 13.1112C8.16211 13.643 8.59472 14.0756 9.12647 14.0756C9.65823 14.0756 10.0908 13.643 10.0908 13.1112C10.0908 12.5795 9.65823 12.1469 9.12647 12.1469ZM9.12647 13.46C8.93413 13.46 8.77766 13.3036 8.77766 13.1112C8.77766 12.9189 8.93413 12.7624 9.12647 12.7624C9.31881 12.7624 9.47528 12.9189 9.47528 13.1112C9.47528 13.3036 9.31881 13.46 9.12647 13.46Z" fill="#979797"/>
<path d="M3.87354 14.4449C3.34179 14.4449 2.90918 14.8776 2.90918 15.4093C2.90918 15.9411 3.34179 16.3737 3.87354 16.3737C4.4053 16.3737 4.83791 15.9411 4.83791 15.4093C4.83791 14.8776 4.4053 14.4449 3.87354 14.4449ZM3.87354 15.7581C3.6812 15.7581 3.52473 15.6016 3.52473 15.4093C3.52473 15.217 3.6812 15.0605 3.87354 15.0605C4.06588 15.0605 4.22235 15.217 4.22235 15.4093C4.22235 15.6016 4.06588 15.7581 3.87354 15.7581Z" fill="#979797"/>
<path d="M6.49952 14.4449C5.96777 14.4449 5.53516 14.8776 5.53516 15.4093C5.53516 15.9411 5.96777 16.3737 6.49952 16.3737C7.03127 16.3737 7.46388 15.9411 7.46388 15.4093C7.46388 14.8776 7.03127 14.4449 6.49952 14.4449ZM6.49952 15.7581C6.30718 15.7581 6.15071 15.6016 6.15071 15.4093C6.15071 15.217 6.30718 15.0605 6.49952 15.0605C6.69186 15.0605 6.84833 15.217 6.84833 15.4093C6.84833 15.6016 6.69186 15.7581 6.49952 15.7581Z" fill="#979797"/>
<path d="M9.12647 14.4449C8.59472 14.4449 8.16211 14.8776 8.16211 15.4093C8.16211 15.9411 8.59472 16.3737 9.12647 16.3737C9.65823 16.3737 10.0908 15.9411 10.0908 15.4093C10.0908 14.8776 9.65823 14.4449 9.12647 14.4449ZM9.12647 15.7581C8.93413 15.7581 8.77766 15.6016 8.77766 15.4093C8.77766 15.217 8.93413 15.0605 9.12647 15.0605C9.31881 15.0605 9.47528 15.217 9.47528 15.4093C9.47528 15.6016 9.31881 15.7581 9.12647 15.7581Z" fill="#979797"/>
<path d="M9.78317 2.2981H3.21729C2.68554 2.2981 2.25293 2.7307 2.25293 3.26246V7.85857C2.25293 8.39032 2.68554 8.82293 3.21729 8.82293H9.78317C10.3149 8.82293 10.7475 8.39032 10.7475 7.85857V3.26246C10.7475 2.7307 10.3149 2.2981 9.78317 2.2981ZM4.22269 8.20738H3.21729C3.02495 8.20738 2.86848 8.05091 2.86848 7.85857V7.50873C2.87529 7.50918 2.88206 7.50976 2.889 7.50976H4.22269V8.20738ZM6.19245 8.20738H4.83824V7.50976H6.19245V8.20738ZM8.16222 8.20738H6.80801V7.50976H8.16222V8.20738ZM10.132 7.85857C10.132 8.05091 9.97551 8.20738 9.78317 8.20738H8.77777V7.50976H10.1115C10.1184 7.50976 10.1252 7.50918 10.132 7.50873V7.85857ZM10.132 6.89523C10.1252 6.89478 10.1184 6.89421 10.1115 6.89421H2.889C2.88206 6.89421 2.87529 6.89478 2.86848 6.89523V3.26246C2.86848 3.07012 3.02495 2.91365 3.21729 2.91365H9.78317C9.97551 2.91365 10.132 3.07012 10.132 3.26246V6.89523Z" fill="#979797"/>
</svg>
