<svg width="36" height="36" viewBox="0 0 18 30" fill="none" xmlns="http://www.w3.org/2000/svg">
<path d="M15.2207 0H2.7801C1.36887 0 0.220703 1.14816 0.220703 2.5594V11.8037C0.220703 13.5915 0.283101 15.4026 0.406081 17.1867L1.19198 28.582C1.24679 29.3772 1.91412 30 2.71109 30H15.2898C16.0868 30 16.754 29.3772 16.8089 28.582L17.5948 17.1867C17.7178 15.403 17.7802 13.5918 17.7802 11.8037V2.5594C17.7801 1.14816 16.6319 0 15.2207 0ZM14.2164 29.0281H3.78442V27.959C3.78442 27.9411 3.79893 27.9266 3.81682 27.9266H14.184C14.2019 27.9266 14.2164 27.9411 14.2164 27.959V29.0281ZM16.8082 11.8037C16.8082 13.5696 16.7466 15.3582 16.6251 17.1199L15.8392 28.5152C15.8193 28.8028 15.578 29.0281 15.2897 29.0281H15.1883V27.959C15.1883 27.4052 14.7378 26.9546 14.184 26.9546H3.81682C3.26301 26.9546 2.8125 27.4052 2.8125 27.959V29.0281H2.71109C2.42282 29.0281 2.18152 28.8028 2.1617 28.5152L1.3758 17.1199C1.25425 15.3579 1.19263 13.5693 1.19263 11.8037V2.5594C1.19263 1.68402 1.90479 0.971922 2.7801 0.971922H15.2207C16.096 0.971922 16.8082 1.68402 16.8082 2.5594V11.8037Z" fill="#FFAB00"/>
<path d="M4.85373 15.5508C4.01412 15.5508 3.33105 16.2338 3.33105 17.0735C3.33105 17.9131 4.01412 18.5961 4.85373 18.5961C5.69334 18.5961 6.37641 17.9131 6.37641 17.0735C6.37641 16.2338 5.69334 15.5508 4.85373 15.5508ZM4.85373 17.6242C4.55004 17.6242 4.30298 17.3772 4.30298 17.0735C4.30298 16.7698 4.55004 16.5227 4.85373 16.5227C5.15743 16.5227 5.40449 16.7698 5.40449 17.0735C5.40449 17.3772 5.15743 17.6242 4.85373 17.6242Z" fill="#FFAB00"/>
<path d="M9.00022 15.5508C8.16061 15.5508 7.47754 16.2338 7.47754 17.0735C7.47754 17.9131 8.16061 18.5961 9.00022 18.5961C9.83983 18.5961 10.5229 17.9131 10.5229 17.0735C10.5229 16.2338 9.83983 15.5508 9.00022 15.5508ZM9.00022 17.6242C8.69652 17.6242 8.44946 17.3772 8.44946 17.0735C8.44946 16.7698 8.69652 16.5227 9.00022 16.5227C9.30391 16.5227 9.55097 16.7698 9.55097 17.0735C9.55097 17.3772 9.30391 17.6242 9.00022 17.6242Z" fill="#FFAB00"/>
<path d="M13.1477 15.5508C12.3081 15.5508 11.625 16.2338 11.625 17.0735C11.625 17.9131 12.3081 18.5961 13.1477 18.5961C13.9873 18.5961 14.6704 17.9131 14.6704 17.0735C14.6704 16.2338 13.9873 15.5508 13.1477 15.5508ZM13.1477 17.6242C12.844 17.6242 12.5969 17.3772 12.5969 17.0735C12.5969 16.7698 12.844 16.5227 13.1477 16.5227C13.4514 16.5227 13.6984 16.7698 13.6984 17.0735C13.6984 17.3772 13.4514 17.6242 13.1477 17.6242Z" fill="#FFAB00"/>
<path d="M4.85373 19.1793C4.01412 19.1793 3.33105 19.8623 3.33105 20.7019C3.33105 21.5415 4.01412 22.2246 4.85373 22.2246C5.69334 22.2246 6.37641 21.5415 6.37641 20.7019C6.37641 19.8623 5.69334 19.1793 4.85373 19.1793ZM4.85373 21.2527C4.55004 21.2527 4.30298 21.0056 4.30298 20.7019C4.30298 20.3982 4.55004 20.1512 4.85373 20.1512C5.15743 20.1512 5.40449 20.3982 5.40449 20.7019C5.40449 21.0056 5.15743 21.2527 4.85373 21.2527Z" fill="#FFAB00"/>
<path d="M9.00022 19.1793C8.16061 19.1793 7.47754 19.8623 7.47754 20.7019C7.47754 21.5415 8.16061 22.2246 9.00022 22.2246C9.83983 22.2246 10.5229 21.5415 10.5229 20.7019C10.5229 19.8623 9.83983 19.1793 9.00022 19.1793ZM9.00022 21.2527C8.69652 21.2527 8.44946 21.0056 8.44946 20.7019C8.44946 20.3982 8.69652 20.1512 9.00022 20.1512C9.30391 20.1512 9.55097 20.3982 9.55097 20.7019C9.55097 21.0056 9.30391 21.2527 9.00022 21.2527Z" fill="#FFAB00"/>
<path d="M13.1477 19.1793C12.3081 19.1793 11.625 19.8623 11.625 20.7019C11.625 21.5415 12.3081 22.2246 13.1477 22.2246C13.9873 22.2246 14.6704 21.5415 14.6704 20.7019C14.6704 19.8623 13.9873 19.1793 13.1477 19.1793ZM13.1477 21.2527C12.844 21.2527 12.5969 21.0056 12.5969 20.7019C12.5969 20.3982 12.844 20.1512 13.1477 20.1512C13.4514 20.1512 13.6984 20.3982 13.6984 20.7019C13.6984 21.0056 13.4514 21.2527 13.1477 21.2527Z" fill="#FFAB00"/>
<path d="M4.85373 22.8078C4.01412 22.8078 3.33105 23.4909 3.33105 24.3305C3.33105 25.1701 4.01412 25.8532 4.85373 25.8532C5.69334 25.8532 6.37641 25.1701 6.37641 24.3305C6.37641 23.4909 5.69334 22.8078 4.85373 22.8078ZM4.85373 24.8812C4.55004 24.8812 4.30298 24.6342 4.30298 24.3305C4.30298 24.0268 4.55004 23.7797 4.85373 23.7797C5.15743 23.7797 5.40449 24.0268 5.40449 24.3305C5.40449 24.6342 5.15743 24.8812 4.85373 24.8812Z" fill="#FFAB00"/>
<path d="M9.00022 22.8078C8.16061 22.8078 7.47754 23.4909 7.47754 24.3305C7.47754 25.1701 8.16061 25.8532 9.00022 25.8532C9.83983 25.8532 10.5229 25.1701 10.5229 24.3305C10.5229 23.4909 9.83983 22.8078 9.00022 22.8078ZM9.00022 24.8812C8.69652 24.8812 8.44946 24.6342 8.44946 24.3305C8.44946 24.0268 8.69652 23.7797 9.00022 23.7797C9.30391 23.7797 9.55097 24.0268 9.55097 24.3305C9.55097 24.6342 9.30391 24.8812 9.00022 24.8812Z" fill="#FFAB00"/>
<path d="M13.1477 22.8078C12.3081 22.8078 11.625 23.4909 11.625 24.3305C11.625 25.1701 12.3081 25.8532 13.1477 25.8532C13.9873 25.8532 14.6704 25.1701 14.6704 24.3305C14.6704 23.4909 13.9873 22.8078 13.1477 22.8078ZM13.1477 24.8812C12.844 24.8812 12.5969 24.6342 12.5969 24.3305C12.5969 24.0268 12.844 23.7797 13.1477 23.7797C13.4514 23.7797 13.6984 24.0268 13.6984 24.3305C13.6984 24.6342 13.4514 24.8812 13.1477 24.8812Z" fill="#FFAB00"/>
<path d="M14.1838 3.62854H3.81662C2.97701 3.62854 2.29395 4.31161 2.29395 5.15122V12.4082C2.29395 13.2478 2.97701 13.9309 3.81662 13.9309H14.1838C15.0234 13.9309 15.7065 13.2478 15.7065 12.4082V5.15122C15.7065 4.31161 15.0234 3.62854 14.1838 3.62854ZM5.4041 12.959H3.81662C3.51293 12.959 3.26587 12.7119 3.26587 12.4082V11.8559C3.27662 11.8566 3.28731 11.8575 3.29827 11.8575H5.4041V12.959ZM8.51425 12.959H6.37602V11.8575H8.51425V12.959ZM11.6244 12.959H9.48617V11.8575H11.6244V12.959ZM14.7346 12.4082C14.7346 12.7119 14.4875 12.959 14.1838 12.959H12.5963V11.8575H14.7022C14.7131 11.8575 14.7238 11.8566 14.7346 11.8559V12.4082ZM14.7346 10.8872C14.7238 10.8865 14.7131 10.8856 14.7022 10.8856H3.29827C3.28731 10.8856 3.27662 10.8865 3.26587 10.8872V5.15122C3.26587 4.84752 3.51293 4.60046 3.81662 4.60046H14.1838C14.4875 4.60046 14.7346 4.84752 14.7346 5.15122V10.8872Z" fill="#FFAB00"/>
</svg>
