<svg width="36" height="36" viewBox="0 0 18 30" fill="none" xmlns="http://www.w3.org/2000/svg">
<path d="M15.647 16.2782C16.9785 15.9212 17.772 14.5483 17.415 13.2168C17.234 12.5418 16.7915 12.0078 16.226 11.6888C16.922 11.0808 17.261 10.1153 17.006 9.16385C16.8595 8.61686 16.53 8.15437 16.0805 7.81987C16.5305 7.60438 16.907 7.26038 17.163 6.81689C17.498 6.2374 17.5875 5.56441 17.415 4.92142C17.2425 4.27843 16.8285 3.74044 16.249 3.40545C15.6685 3.07045 14.9955 2.98245 14.353 3.15345L13.2886 3.43895C13.4881 2.95095 13.5441 2.40046 13.3971 1.85347C13.0406 0.521995 11.6671 -0.269492 10.3386 0.0850019L4.85271 1.51748C4.20972 1.68998 3.67173 2.10397 3.33723 2.68346C3.00224 3.26295 2.91274 3.93644 3.08524 4.57943C3.23173 5.12692 3.56173 5.58991 4.01222 5.92441L2.76274 6.2594C2.11975 6.4319 1.58176 6.84589 1.24677 7.42538C0.911772 8.00487 0.822273 8.67836 0.99477 9.32135C1.14127 9.86834 1.47026 10.3303 1.91975 10.6653C1.46976 10.8808 1.09327 11.2248 0.837772 11.6683C0.502778 12.2478 0.41328 12.9213 0.585777 13.5643C0.758274 14.2073 1.17227 14.7453 1.75176 15.0803C2.13875 15.3033 2.56724 15.4172 3.00074 15.4172C3.21673 15.4172 3.43373 15.3887 3.64773 15.3317L6.91617 14.4558C6.65318 14.9213 6.50068 15.4537 6.50068 16.0152V17.5007H2.73374C2.05425 17.5007 1.50076 18.0537 1.50076 18.7337V21.4461C1.50076 23.2171 2.80374 24.6856 4.50071 24.9531V25.5006V26.5006V28.0005H5.75069L7.25067 30.0005H10.7506L12.2506 28.0005H13.5006V26.5006V25.5006V24.9531C15.1975 24.6856 16.5005 23.2171 16.5005 21.4461V18.7337C16.5005 18.0542 15.9475 17.5007 15.2675 17.5007H11.3161C11.3806 17.4572 11.4526 17.4232 11.5306 17.4022L15.647 16.2782ZM5.1082 2.48446L10.5941 1.05149C10.7221 1.01749 10.8516 0.999987 10.9811 0.999987C11.2411 0.999987 11.4986 1.06899 11.7311 1.20298C12.0796 1.40398 12.3281 1.72697 12.4311 2.11147C12.6451 2.91046 12.1701 3.73394 11.3716 3.94844L5.88819 5.38091C5.5027 5.48341 5.0997 5.43041 4.75121 5.22892C4.40271 5.02742 4.15422 4.70493 4.05122 4.32043C3.83672 3.52144 4.31271 2.69746 5.1082 2.48446ZM2.11225 7.92537C2.31325 7.57738 2.63624 7.32838 3.02074 7.22538L14.6115 4.11944C14.739 4.08544 14.869 4.06794 14.9975 4.06794C15.258 4.06794 15.5155 4.13693 15.7485 4.27143C16.0965 4.47243 16.3455 4.79542 16.4485 5.17992C16.5515 5.56441 16.498 5.9684 16.2965 6.3164C16.0955 6.66489 15.7725 6.91339 15.388 7.01639L14.0231 7.38238C13.9966 7.38838 13.9701 7.38838 13.9436 7.39538L3.71722 10.1353C3.35623 10.2113 2.98474 10.1573 2.65974 9.97034C2.31175 9.76934 2.06275 9.44635 1.95975 9.06185C1.85726 8.67786 1.91125 8.27387 2.11225 7.92537ZM3.38823 14.3658C3.00274 14.4688 2.59974 14.4153 2.25125 14.2138C1.90325 14.0128 1.65426 13.6898 1.55126 13.3053C1.44826 12.9208 1.50176 12.5168 1.70326 12.1683C1.90475 11.8198 2.22725 11.5713 2.61174 11.4683L3.93722 11.1133C3.97672 11.1048 4.01672 11.1003 4.05622 11.0898L14.2635 8.35487C14.3715 8.33086 14.48 8.31187 14.589 8.31187C14.8495 8.31187 15.107 8.38087 15.34 8.51536C15.688 8.71636 15.937 9.03935 16.04 9.42385C16.143 9.80834 16.089 10.2123 15.8875 10.5603C15.6865 10.9088 15.3635 11.1573 14.979 11.2603L3.38823 14.3658ZM10.2501 29H7.75016L7.00017 28H11.0001L10.2501 29ZM12.5001 27.0001H5.5002V26.5001H12.5001V27.0001ZM5.5002 25.5001V25.0001H12.5001V25.5001H5.5002ZM15.5 18.7332V21.4456C15.5 22.8541 14.354 24.0001 12.9456 24.0001H5.0547C3.64623 24.0001 2.50024 22.8541 2.50024 21.4456V18.7332C2.50024 18.6047 2.60474 18.5002 2.73324 18.5002H6.50018H10.5001H15.267C15.3955 18.5002 15.5 18.6047 15.5 18.7332ZM7.50016 17.5002V16.0147C7.50016 15.0343 8.15815 14.1718 9.11463 13.9143L14.612 12.4143C14.996 12.3108 15.4005 12.3648 15.749 12.5668C16.097 12.7678 16.346 13.0908 16.449 13.4753C16.663 14.2743 16.187 15.0978 15.3855 15.3127L11.2671 16.4367C10.7211 16.5852 10.2956 16.9902 10.1066 17.5002H7.50016Z" fill="#FFAB00"/>
</svg>
