<svg width="13" height="21" viewBox="0 0 13 21" fill="none" xmlns="http://www.w3.org/2000/svg">
<path d="M11.1527 11.3948C12.0848 11.1449 12.6402 10.1838 12.3903 9.25174C12.2636 8.77924 11.9539 8.40545 11.558 8.18215C12.0452 7.75656 12.2825 7.08072 12.104 6.41468C12.0015 6.03179 11.7708 5.70805 11.4562 5.4739C11.7712 5.32305 12.0347 5.08226 12.2139 4.77181C12.4484 4.36617 12.5111 3.89508 12.3903 3.44498C12.2696 2.99489 11.9798 2.6183 11.5741 2.3838C11.1678 2.1493 10.6967 2.08771 10.2469 2.2074L9.5018 2.40725C9.64145 2.06566 9.68065 1.68031 9.57775 1.29742C9.3282 0.365384 8.36677 -0.188657 7.43683 0.0594891L3.5967 1.06222C3.14661 1.18297 2.77001 1.47277 2.53587 1.87841C2.30137 2.28405 2.23872 2.75549 2.35947 3.20559C2.46202 3.58883 2.69301 3.91293 3.00836 4.14707L2.13372 4.38157C1.68363 4.50232 1.30704 4.79211 1.07254 5.19775C0.838045 5.6034 0.775396 6.07484 0.896144 6.52493C0.998692 6.90783 1.22899 7.23122 1.54363 7.46572C1.22864 7.61656 0.965092 7.85736 0.786245 8.1678C0.551749 8.57345 0.4891 9.04489 0.609848 9.49498C0.730596 9.94508 1.02039 10.3217 1.42603 10.5562C1.69693 10.7123 1.99688 10.7921 2.30032 10.7921C2.45152 10.7921 2.60342 10.7721 2.75321 10.7322L5.04112 10.119C4.85703 10.4449 4.75028 10.8176 4.75028 11.2107V12.2505H2.11342C1.63778 12.2505 1.25034 12.6376 1.25034 13.1136V15.0123C1.25034 16.252 2.16242 17.2799 3.3503 17.4671V17.8504V18.5504V19.6004H4.22529L5.27527 21.0003H7.72523L8.77521 19.6004H9.6502V18.5504V17.8504V17.4671C10.8381 17.2799 11.7502 16.252 11.7502 15.0123V13.1136C11.7502 12.6379 11.3631 12.2505 10.8871 12.2505H8.12107C8.16622 12.22 8.21662 12.1962 8.27122 12.1815L11.1527 11.3948ZM3.77555 1.73911L7.61568 0.736028C7.70528 0.712228 7.79593 0.699978 7.88658 0.699978C8.06857 0.699978 8.24882 0.748278 8.41157 0.842076C8.65551 0.982774 8.82946 1.20887 8.90156 1.47802C9.05136 2.03731 8.71886 2.61375 8.15992 2.76389L4.32154 3.76663C4.05169 3.83838 3.7696 3.80128 3.52565 3.66023C3.2817 3.51918 3.10776 3.29344 3.03566 3.02429C2.88551 2.465 3.2187 1.88821 3.77555 1.73911ZM1.67838 5.54775C1.81908 5.30415 2.04517 5.12986 2.31432 5.05776L10.4279 2.88359C10.5171 2.85979 10.6081 2.84754 10.6981 2.84754C10.8804 2.84754 11.0607 2.89584 11.2238 2.98999C11.4674 3.13069 11.6417 3.35678 11.7138 3.62593C11.7859 3.89508 11.7484 4.17787 11.6074 4.42147C11.4667 4.66541 11.2406 4.83936 10.9714 4.91146L10.0159 5.16765C9.99739 5.17185 9.97884 5.17185 9.96029 5.17675L2.80186 7.09472C2.54917 7.14792 2.28912 7.11012 2.06162 6.97922C1.81803 6.83853 1.64373 6.61243 1.57163 6.34329C1.49988 6.07449 1.53768 5.79169 1.67838 5.54775ZM2.57157 10.056C2.30172 10.1281 2.01962 10.0907 1.77568 9.94963C1.53208 9.80893 1.35779 9.58283 1.28569 9.31369C1.21359 9.04454 1.25104 8.76174 1.39209 8.5178C1.53313 8.27385 1.75888 8.09991 2.02803 8.02781L2.95586 7.77931C2.98351 7.77336 3.01151 7.77021 3.03916 7.76286L10.1843 5.84839C10.2599 5.83159 10.3358 5.81829 10.4121 5.81829C10.5945 5.81829 10.7747 5.86659 10.9378 5.96074C11.1814 6.10144 11.3557 6.32754 11.4278 6.59668C11.4999 6.86583 11.4621 7.14862 11.3211 7.39222C11.1804 7.63616 10.9543 7.81011 10.6851 7.88221L2.57157 10.056ZM7.37489 20.3H5.62491L5.09992 19.6H7.89988L7.37489 20.3ZM8.94986 18.9H4.04994V18.55H8.94986V18.9ZM4.04994 17.85V17.5H8.94986V17.85H4.04994ZM11.0498 13.1132V15.0119C11.0498 15.9979 10.2476 16.8001 9.2617 16.8001H3.7381C2.75216 16.8001 1.94998 15.9979 1.94998 15.0119V13.1132C1.94998 13.0233 2.02312 12.9501 2.11307 12.9501H4.74993H7.54988H10.8867C10.9767 12.9501 11.0498 13.0233 11.0498 13.1132ZM5.44992 12.2501V11.2103C5.44992 10.524 5.91051 9.92023 6.58005 9.73998L10.4282 8.69C10.697 8.61755 10.9802 8.65535 11.2241 8.79674C11.4677 8.93744 11.642 9.16354 11.7141 9.43268C11.8639 9.99197 11.5307 10.5684 10.9697 10.7189L8.08677 11.5057C7.70458 11.6096 7.40673 11.8931 7.27444 12.2501H5.44992Z" fill="#979797"/>
</svg>
