<svg width="36" height="36" viewBox="0 0 30 29" fill="none" xmlns="http://www.w3.org/2000/svg">
<path d="M29.5868 20.8472L28.8525 20.7125C28.5083 20.6492 28.2373 20.4338 28.1091 20.121C27.9805 19.8088 28.0262 19.4747 28.2337 19.2042L28.6949 18.6031C28.8434 18.4095 28.822 18.141 28.644 17.9713L27.6479 17.019C27.4756 16.8541 27.2045 16.8303 27.0032 16.9601L26.3844 17.3609C26.094 17.5496 25.7432 17.5803 25.4208 17.446C25.0995 17.3123 24.8844 17.0448 24.831 16.7126L24.7125 15.9757C24.6749 15.7389 24.4613 15.5638 24.2107 15.5638H22.8022C22.5586 15.5638 22.3486 15.7296 22.3029 15.9587L22.1208 16.8658C22.0562 17.1878 21.8371 17.4446 21.5203 17.57C21.2025 17.6965 20.8588 17.662 20.5746 17.4781L19.7752 16.9606C19.5739 16.8308 19.3029 16.8546 19.1305 17.0195L18.1344 17.9718C17.9564 18.1415 17.9351 18.4095 18.0835 18.6036L18.5447 19.2047C18.7522 19.4751 18.7979 19.8093 18.6693 20.1215C18.5412 20.4343 18.2701 20.6497 17.9259 20.7129L17.1917 20.8477C16.9527 20.8914 16.7793 21.0918 16.7793 21.3253V22.6725C16.7793 22.9123 16.9623 23.1166 17.2105 23.1531L17.9808 23.2664C18.3281 23.3174 18.6073 23.5232 18.7476 23.8306C18.8879 24.1384 18.8554 24.474 18.6586 24.7522L18.2396 25.3441C18.1029 25.5367 18.1288 25.796 18.3012 25.9608L19.2968 26.9136C19.4737 27.0834 19.7539 27.1038 19.9573 26.9623L20.5857 26.5211C20.8684 26.3232 21.2188 26.2784 21.5442 26.402C21.8712 26.5245 22.0964 26.7838 22.1625 27.1131L22.3034 27.8154C22.3491 28.0435 22.5586 28.2093 22.8027 28.2093H24.2112C24.4618 28.2093 24.6754 28.0342 24.7135 27.7969L24.7969 27.2789C24.8503 26.9443 25.0776 26.668 25.4035 26.5387C25.731 26.4093 26.0951 26.4516 26.3803 26.6515L26.8222 26.9618C27.0251 27.1043 27.3057 27.0834 27.4827 26.9132L28.4783 25.9604C28.6507 25.7955 28.6766 25.5367 28.5398 25.3436L28.1208 24.7517C27.924 24.474 27.8915 24.1379 28.0318 23.8301C28.1717 23.5227 28.4513 23.317 28.7986 23.2659L29.569 23.1526C29.8166 23.1161 29.9996 22.9118 29.9996 22.672V21.3248C29.9996 21.0918 29.8262 20.8914 29.5868 20.8472ZM28.9827 22.2552L28.6435 22.3053C27.9551 22.4065 27.3779 22.8316 27.0998 23.442C26.8212 24.0528 26.8883 24.7464 27.2788 25.2974L27.4623 25.5567L27.0718 25.9302L26.9818 25.867C26.4073 25.4648 25.6725 25.3801 25.0146 25.6398C24.3566 25.9005 23.9 26.4579 23.7917 27.1306L23.7749 27.2366H23.2227L23.1612 26.9287C23.0295 26.2741 22.5637 25.7386 21.9159 25.4954C21.2671 25.2522 20.5451 25.3427 19.9837 25.7357L19.7071 25.9297L19.3166 25.5562L19.5001 25.297C19.8907 24.7454 19.9573 24.0519 19.6791 23.4415C19.401 22.8311 18.8234 22.406 18.1354 22.3048L17.7962 22.2552V21.727L18.1181 21.6682C18.8025 21.5422 19.3623 21.0967 19.6166 20.4771C19.8708 19.8569 19.7768 19.1663 19.3654 18.6289L19.1625 18.3643L19.553 17.9908L20.0051 18.2835C20.5684 18.6493 21.2818 18.7179 21.9103 18.4689C22.5393 18.2193 22.9918 17.6887 23.1205 17.0491L23.2227 16.5365H23.7749L23.8273 16.8609C23.933 17.5195 24.3774 18.0715 25.0156 18.3375C25.6537 18.6041 26.3793 18.5399 26.9554 18.1663L27.2264 17.9908L27.6169 18.3643L27.414 18.6289C27.0022 19.1658 26.9086 19.8565 27.1629 20.4771C27.4171 21.0967 27.9774 21.5422 28.6613 21.6682L28.9827 21.727V22.2552Z" fill="#FFAB00"/>
<path d="M23.39 19.4547C21.9882 19.4547 20.8477 20.5456 20.8477 21.8865C20.8477 23.2275 21.9882 24.3184 23.39 24.3184C24.7919 24.3184 25.9324 23.2275 25.9324 21.8865C25.9324 20.5456 24.7919 19.4547 23.39 19.4547ZM23.39 23.3456C22.549 23.3456 21.8646 22.691 21.8646 21.8865C21.8646 21.0821 22.549 20.4274 23.39 20.4274C24.231 20.4274 24.9155 21.0821 24.9155 21.8865C24.9155 22.691 24.231 23.3456 23.39 23.3456Z" fill="#FFAB00"/>
<path d="M15.6122 15.6995C15.4953 15.5574 15.0641 15.0127 14.6456 14.2165L14.6222 14.1718C14.6197 14.1674 14.6176 14.1625 14.6151 14.1582C14.5597 14.0517 14.5053 13.9388 14.4503 13.8221L14.4249 13.7671C14.3964 13.7054 14.368 13.6416 14.3395 13.575C14.3298 13.5522 14.3202 13.5293 14.3105 13.5059C14.2836 13.4417 14.2566 13.3766 14.2276 13.3017C14.1753 13.1694 14.1275 13.0313 14.0807 12.8897L14.0441 12.7749C13.9963 12.6242 13.952 12.47 13.9134 12.3109C13.9129 12.3075 13.9114 12.3046 13.9108 12.3012L13.9022 12.2657L13.8651 12.1086L13.6912 12.0011C13.3963 11.8197 13.2203 11.5152 13.2203 11.1865V9.241C13.2203 8.96814 13.3414 8.71329 13.561 8.5236L13.7288 8.37915V5.35006V5.17789L13.7151 5.16767C13.6973 4.817 13.7197 3.74018 14.5403 2.8443C15.3829 1.92506 16.8208 1.45912 18.8136 1.45912C20.7992 1.45912 22.2341 1.92166 23.0776 2.83457C24.0676 3.90506 23.9044 5.27467 23.9029 5.28635L23.8983 8.37915L24.0661 8.52409C24.2858 8.71329 24.4068 8.96814 24.4068 9.241V11.1865C24.4068 11.6111 24.1164 11.9826 23.6837 12.1101C23.4158 12.1889 23.2653 12.4617 23.3481 12.718C23.4305 12.9743 23.7137 13.1173 23.9837 13.039C24.8451 12.7852 25.4237 12.0405 25.4237 11.1865V9.241C25.4237 8.77262 25.2412 8.31836 24.9153 7.96428V5.3773C24.9442 5.10979 25.0556 3.51743 23.8515 2.20375C22.8071 1.06419 21.1124 0.486389 18.8136 0.486389C16.5147 0.486389 14.82 1.06419 13.7756 2.20326C13.0459 2.99945 12.8008 3.89631 12.7261 4.54026C11.8541 4.10934 10.8275 3.89096 9.66102 3.89096C4.37847 3.89096 4.07136 8.19774 4.0678 8.26826V10.4953C3.7383 10.8392 3.55932 11.2351 3.55932 11.6286V13.3085C3.55932 13.8333 3.80491 14.3226 4.22593 14.6533C4.64491 16.1659 5.67712 17.3089 6.07881 17.7101V19.0442C6.07881 19.427 5.86068 19.7781 5.48339 19.9756L2.10153 22.0052C0.804915 22.6813 0 23.9784 0 25.3898V27.2366H7.11864H8.13559H13.7288C14.01 27.2366 14.2373 27.0192 14.2373 26.7502C14.2373 26.4812 14.01 26.2638 13.7288 26.2638H8.13559V25.1754C8.13559 23.9249 8.84847 22.7756 9.99559 22.1774L14.5327 19.8107C15.2914 19.4143 15.7627 18.6541 15.7627 17.8278V15.8731L15.6447 15.7379C15.6432 15.7369 15.6305 15.7214 15.6122 15.6995ZM14.7458 17.8278C14.7458 18.2986 14.4773 18.7305 14.0456 18.9562L12.7002 19.658L12.3702 19.8302L9.50898 21.3228C8.03441 22.0923 7.11864 23.5679 7.11864 25.1749V26.2638H1.01695V25.3898C1.01695 24.3344 1.61898 23.3646 2.61458 22.8447L5.99644 20.8151C6.67424 20.4615 7.09525 19.7835 7.09525 19.0442L7.09475 17.2982L6.93458 17.1537C6.92085 17.142 5.5678 15.9105 5.17068 14.2569L5.12441 14.0643L4.95051 13.9573C4.7161 13.8124 4.57627 13.5697 4.57627 13.3085V11.6286C4.57627 11.454 4.70034 11.2453 4.91746 11.0576L5.08475 10.9131L5.08373 8.29696C5.09339 8.15688 5.35729 4.86369 9.66102 4.86369C10.8783 4.86369 11.9029 5.13265 12.7119 5.66328V7.96428C12.3859 8.31836 12.2034 8.77262 12.2034 9.241V11.1865C12.2034 11.5347 12.3107 11.864 12.4886 12.1553C12.6132 12.3591 12.7668 12.5468 12.9646 12.6986C12.9681 12.7112 12.9722 12.7229 12.9758 12.7351C13.0053 12.8425 13.0358 12.9486 13.0683 13.0507L13.1105 13.183C13.1186 13.2073 13.1273 13.2326 13.1359 13.2569C13.1527 13.3065 13.169 13.3557 13.1868 13.4043C13.2173 13.4904 13.2498 13.5789 13.2875 13.6752C13.3027 13.7136 13.319 13.7472 13.3342 13.7846C13.3775 13.8907 13.4212 13.9933 13.4669 14.0945C13.4756 14.1134 13.4837 14.1353 13.4924 14.1543L13.5229 14.2204C13.5366 14.2501 13.5508 14.2764 13.5651 14.3055C13.6129 14.4052 13.6602 14.5025 13.7085 14.5964C13.7176 14.6139 13.7263 14.6338 13.7354 14.6513L13.7736 14.7224C13.7832 14.7403 13.7924 14.7545 13.802 14.772C13.8844 14.9237 13.9653 15.0657 14.0456 15.1985C14.0563 15.2165 14.0669 15.2345 14.0776 15.2525C14.1646 15.3945 14.248 15.5249 14.3273 15.6421C14.3308 15.6474 14.3349 15.6533 14.3385 15.6591C14.5063 15.9067 14.6517 16.1007 14.7463 16.2189V17.8278H14.7458Z" fill="#FFAB00"/>
</svg>
