<svg width="23" height="22" viewBox="0 0 23 22" fill="none" xmlns="http://www.w3.org/2000/svg">
<path d="M22.6833 15.9829L22.1204 15.8796C21.8565 15.8311 21.6487 15.6659 21.5505 15.4261C21.4518 15.1868 21.4869 14.9306 21.646 14.7233L21.9995 14.2624C22.1134 14.114 22.097 13.9081 21.9606 13.778L21.1969 13.0479C21.0647 12.9215 20.857 12.9032 20.7026 13.0028L20.2282 13.31C20.0056 13.4547 19.7366 13.4782 19.4894 13.3753C19.2431 13.2728 19.0782 13.0677 19.0372 12.813L18.9464 12.2481C18.9175 12.0665 18.7538 11.9323 18.5616 11.9323H17.4818C17.2951 11.9323 17.1341 12.0594 17.099 12.235L16.9594 12.9305C16.9099 13.1773 16.7419 13.3742 16.499 13.4704C16.2554 13.5673 15.9919 13.5409 15.774 13.3999L15.1611 13.0032C15.0068 12.9036 14.799 12.9219 14.6668 13.0483L13.9032 13.7784C13.7667 13.9085 13.7503 14.114 13.8642 14.2628L14.2177 14.7236C14.3768 14.931 14.4119 15.1871 14.3133 15.4265C14.215 15.6663 14.0072 15.8315 13.7433 15.8799L13.1804 15.9832C12.9972 16.0168 12.8643 16.1704 12.8643 16.3494V17.3823C12.8643 17.5661 13.0046 17.7227 13.1948 17.7507L13.7854 17.8376C14.0517 17.8767 14.2657 18.0345 14.3733 18.2701C14.4809 18.5061 14.4559 18.7634 14.3051 18.9767L13.9839 19.4305C13.879 19.5782 13.8989 19.7769 14.031 19.9033L14.7943 20.6338C14.93 20.7639 15.1448 20.7796 15.3007 20.6711L15.7825 20.3329C15.9993 20.1811 16.2679 20.1468 16.5174 20.2415C16.768 20.3355 16.9407 20.5343 16.9914 20.7867L17.0994 21.3251C17.1345 21.5 17.2951 21.6272 17.4822 21.6272H18.562C18.7542 21.6272 18.9179 21.4929 18.9472 21.311L19.0111 20.9138C19.052 20.6573 19.2263 20.4455 19.4762 20.3463C19.7272 20.2471 20.0063 20.2796 20.225 20.4328L20.5638 20.6707C20.7193 20.78 20.9345 20.7639 21.0702 20.6334L21.8335 19.903C21.9656 19.7766 21.9855 19.5782 21.8806 19.4302L21.5594 18.9764C21.4086 18.7634 21.3836 18.5058 21.4912 18.2697C21.5984 18.0341 21.8128 17.8764 22.0791 17.8372L22.6697 17.7503C22.8595 17.7224 22.9999 17.5657 22.9999 17.3819V16.349C22.9999 16.1704 22.8669 16.0168 22.6833 15.9829ZM22.2202 17.0624L21.9602 17.1008C21.4323 17.1783 20.9899 17.5042 20.7766 17.9722C20.563 18.4405 20.6145 18.9723 20.9139 19.3947L21.0546 19.5935L20.7552 19.8798L20.6862 19.8314C20.2457 19.523 19.6824 19.4581 19.178 19.6572C18.6735 19.8571 18.3234 20.2844 18.2404 20.8001L18.2275 20.8814H17.8042L17.757 20.6454C17.6561 20.1435 17.299 19.7329 16.8023 19.5465C16.3049 19.36 15.7513 19.4294 15.321 19.7307L15.1089 19.8795L14.8095 19.5931L14.9502 19.3944C15.2496 18.9715 15.3007 18.4398 15.0875 17.9718C14.8742 17.5038 14.4314 17.1779 13.9039 17.1004L13.6439 17.0624V16.6574L13.8907 16.6123C14.4154 16.5157 14.8446 16.1741 15.0395 15.6991C15.2344 15.2237 15.1623 14.6942 14.8469 14.2821L14.6914 14.0793L14.9908 13.7929L15.3373 14.0174C15.7693 14.2978 16.3162 14.3504 16.798 14.1595C17.2803 13.9682 17.6272 13.5614 17.7258 13.071L17.8042 12.678H18.2275L18.2677 12.9267C18.3488 13.4316 18.6895 13.8548 19.1787 14.0588C19.668 14.2631 20.2243 14.2139 20.6659 13.9275L20.8737 13.7929L21.1731 14.0793L21.0176 14.2821C20.7018 14.6938 20.6301 15.2233 20.825 15.6991C21.0199 16.1741 21.4495 16.5157 21.9738 16.6123L22.2202 16.6574V17.0624Z" fill="#979797"/>
<path d="M17.9326 14.9153C16.8578 14.9153 15.9834 15.7517 15.9834 16.7797C15.9834 17.8077 16.8578 18.6441 17.9326 18.6441C19.0073 18.6441 19.8817 17.8077 19.8817 16.7797C19.8817 15.7517 19.0073 14.9153 17.9326 14.9153ZM17.9326 17.8983C17.2878 17.8983 16.7631 17.3964 16.7631 16.7797C16.7631 16.1629 17.2878 15.661 17.9326 15.661C18.5773 15.661 19.102 16.1629 19.102 16.7797C19.102 17.3964 18.5773 17.8983 17.9326 17.8983Z" fill="#979797"/>
<path d="M11.9694 12.0363C11.8797 11.9274 11.5491 11.5098 11.2283 10.8994L11.2104 10.8651C11.2084 10.8617 11.2068 10.858 11.2049 10.8546C11.1624 10.773 11.1207 10.6865 11.0786 10.597L11.0591 10.5548C11.0373 10.5075 11.0154 10.4586 10.9936 10.4075C10.9862 10.39 10.9788 10.3725 10.9714 10.3546C10.9507 10.3054 10.9301 10.2554 10.9078 10.198C10.8677 10.0966 10.831 9.99065 10.7952 9.88215L10.7671 9.79415C10.7305 9.67855 10.6966 9.56035 10.6669 9.43842C10.6665 9.43581 10.6654 9.43357 10.665 9.43096L10.6584 9.40374L10.6299 9.2833L10.4966 9.20089C10.2705 9.06181 10.1356 8.82838 10.1356 8.57631V7.08479C10.1356 6.8756 10.2284 6.68021 10.3968 6.53479L10.5254 6.42404V4.10174V3.96974L10.5149 3.96191C10.5013 3.69306 10.5184 2.8675 11.1476 2.18065C11.7935 1.47591 12.896 1.11869 14.4237 1.11869C15.946 1.11869 17.0461 1.4733 17.6928 2.1732C18.4518 2.99391 18.3267 4.04394 18.3255 4.05289L18.322 6.42404L18.4507 6.53516C18.6191 6.68021 18.7119 6.8756 18.7119 7.08479V8.57631C18.7119 8.90184 18.4893 9.18672 18.1575 9.28442C17.9521 9.34482 17.8367 9.55401 17.9002 9.75052C17.9634 9.94703 18.1805 10.0567 18.3875 9.99662C19.0479 9.80198 19.4915 9.2311 19.4915 8.57631V7.08479C19.4915 6.72571 19.3516 6.37743 19.1017 6.10598V4.12262C19.1239 3.91754 19.2093 2.69672 18.2862 1.68957C17.4855 0.815908 16.1862 0.372925 14.4237 0.372925C12.6613 0.372925 11.362 0.815908 10.5613 1.6892C10.0019 2.2996 9.81398 2.9872 9.75668 3.48089C9.08812 3.15052 8.30105 2.98309 7.40678 2.98309C3.35683 2.98309 3.12137 6.28496 3.11864 6.33903V8.04645C2.86603 8.31008 2.72881 8.6136 2.72881 8.91526V10.2032C2.72881 10.6055 2.9171 10.9807 3.23988 11.2342C3.5611 12.3939 4.35246 13.2701 4.66042 13.5778V14.6006C4.66042 14.894 4.49319 15.1633 4.20393 15.3147L1.61117 16.8707C0.617102 17.389 0 18.3835 0 19.4656V20.8814H5.45763H6.23729H10.5254C10.741 20.8814 10.9153 20.7147 10.9153 20.5085C10.9153 20.3023 10.741 20.1356 10.5254 20.1356H6.23729V19.3011C6.23729 18.3425 6.78383 17.4613 7.66329 17.0027L11.1417 15.1882C11.7234 14.8843 12.0847 14.3015 12.0847 13.668V12.1694L11.9943 12.0657C11.9931 12.065 11.9834 12.0531 11.9694 12.0363ZM11.3051 13.668C11.3051 14.029 11.0993 14.3601 10.7683 14.5331L9.7368 15.0712L9.4838 15.2032L7.29022 16.3475C6.15971 16.9374 5.45763 18.0688 5.45763 19.3008V20.1356H0.779661V19.4656C0.779661 18.6564 1.24122 17.9129 2.00451 17.5143L4.59727 15.9582C5.11691 15.6872 5.43969 15.1674 5.43969 14.6006L5.4393 13.2619L5.31651 13.1512C5.30598 13.1422 4.26864 12.1981 3.96419 10.9303L3.92871 10.7827L3.79539 10.7006C3.61568 10.5895 3.50847 10.4034 3.50847 10.2032V8.91526C3.50847 8.7814 3.60359 8.62143 3.77005 8.4775L3.8983 8.36676L3.89753 6.36103C3.90493 6.25364 4.10725 3.72886 7.40678 3.72886C8.34003 3.72886 9.12554 3.93506 9.74576 4.34187V6.10598C9.49588 6.37743 9.35593 6.72571 9.35593 7.08479V8.57631C9.35593 8.8433 9.43819 9.09574 9.57463 9.3191C9.67013 9.47533 9.78786 9.61926 9.93951 9.7356C9.94224 9.7453 9.94535 9.75425 9.94808 9.76357C9.97069 9.84598 9.99408 9.92726 10.019 10.0056L10.0514 10.107C10.0576 10.1256 10.0643 10.145 10.0709 10.1637C10.0837 10.2017 10.0962 10.2394 10.1099 10.2767C10.1333 10.3427 10.1582 10.4105 10.187 10.4843C10.1987 10.5138 10.2112 10.5395 10.2229 10.5682C10.2561 10.6495 10.2896 10.7282 10.3247 10.8058C10.3313 10.8203 10.3375 10.8371 10.3442 10.8516L10.3675 10.9023C10.3781 10.9251 10.389 10.9452 10.3999 10.9676C10.4365 11.044 10.4728 11.1186 10.5098 11.1906C10.5168 11.204 10.5235 11.2193 10.5305 11.2327L10.5597 11.2872C10.5671 11.301 10.5742 11.3118 10.5816 11.3252C10.6447 11.4415 10.7067 11.5504 10.7683 11.6522C10.7765 11.666 10.7847 11.6798 10.7928 11.6936C10.8595 11.8025 10.9234 11.9024 10.9843 11.9923C10.987 11.9964 10.9901 12.0009 10.9928 12.0053C11.1215 12.1951 11.233 12.3439 11.3055 12.4345V13.668H11.3051Z" fill="#979797"/>
</svg>
