<svg width="13" height="21" viewBox="0 0 13 21" fill="none" xmlns="http://www.w3.org/2000/svg">
<path d="M4.74363 4.15032C4.34836 4.15032 4.0306 3.79482 4.0306 3.36223C4.0306 2.92963 4.35224 2.57414 4.74363 2.57414C5.1389 2.57414 5.45666 2.92963 5.45666 3.36223C5.45666 3.79482 5.1389 4.15032 4.74363 4.15032ZM11.9863 11.6928C11.7732 11.5087 9.54498 8.77606 8.9482 8.39058V1.30206C8.9482 0.582501 8.42117 0 7.77014 0H1.71712C1.06609 0 0.539062 0.582501 0.539062 1.30206V13.7102C0.539062 14.4297 1.06609 15.0122 1.71712 15.0122H3.65858H4.35224L4.23598 13.9158C4.23211 13.9115 4.22823 13.9072 4.22048 13.9029H3.76321H2.98817C3.02305 13.7444 3.03468 13.5774 3.0153 13.4061C2.9533 12.8664 2.58128 12.4167 2.10463 12.2968C1.907 12.2454 1.72099 12.2539 1.54661 12.301V2.6341C1.74424 2.67693 1.96125 2.66408 2.18214 2.56986C2.41852 2.47134 2.61616 2.28289 2.75566 2.0516C2.9533 1.71752 2.9843 1.39629 2.9378 1.10504H6.55334C6.50684 1.392 6.53784 1.70467 6.72772 2.03875C6.86335 2.2786 7.06486 2.46706 7.30125 2.56557C7.52601 2.6598 7.74302 2.67265 7.94453 2.62982V12.0569V14.7638C7.53376 14.4297 7.07261 13.3847 7.07261 13.3847C7.07261 13.3847 6.84785 10.6007 5.57292 10.6007C5.53804 10.6007 5.50704 10.6007 5.47216 10.6049C5.47216 10.6049 4.50724 10.6949 5.30553 13.7487L5.66205 17.1367C5.66205 17.1367 6.06119 18.9784 7.16174 20.2505V20.6317C7.16174 20.833 7.309 21 7.49501 21H11.0834C11.2539 21 11.3934 20.8587 11.4128 20.6745C11.5407 19.3681 12.029 14.5539 12.3196 13.7273C12.3739 13.5688 12.4242 13.4104 12.4436 13.2433C12.4901 12.815 12.4785 12.1126 11.9863 11.6928Z" fill="#979797"/>
<path d="M2.69434 10.5V4.84619H3.30818L6.03395 9.37735V4.84619H6.6478V10.5H6.03395L3.30818 5.96888V10.5H2.69434Z" fill="#979797"/>
<rect x="2.11523" y="6.46155" width="5.11538" height="0.807692" fill="#979797"/>
<rect x="2.11523" y="8.0769" width="5.11538" height="0.807691" fill="#979797"/>
</svg>
