<svg width="36" height="36" viewBox="0 0 30 28" fill="none" xmlns="http://www.w3.org/2000/svg">
<path d="M5.95168 13.2964C5.61665 13.2964 5.34863 13.5645 5.34863 13.8995V16.0985C5.34863 18.7482 7.50498 20.8985 10.1486 20.8985H17.0136L16.1852 21.733C15.9476 21.9706 15.9476 22.3482 16.1852 22.5858C16.3009 22.7015 16.4593 22.7624 16.6116 22.7624C16.7639 22.7624 16.9222 22.7015 17.038 22.5858L18.8958 20.7279C19.1334 20.4904 19.1334 20.1127 18.8958 19.8751L17.038 18.0173C16.8004 17.7797 16.4227 17.7797 16.1852 18.0173C15.9476 18.2548 15.9476 18.6325 16.1852 18.8701L17.0136 19.6985H10.1486C8.16285 19.6985 6.55472 18.0843 6.55472 16.1046V13.9056C6.55472 13.5706 6.28061 13.2964 5.95168 13.2964Z" fill="#FFAB00"/>
<path d="M12.9315 8.05179C13.0473 8.16752 13.2057 8.22844 13.3579 8.22844C13.5102 8.22844 13.6686 8.16752 13.7843 8.05179C14.0219 7.81422 14.0219 7.43656 13.7843 7.19899L12.9559 6.37057H19.8574C21.8432 6.37057 23.4513 7.98478 23.4513 9.96448V12.1635C23.4513 12.4985 23.7194 12.7665 24.0544 12.7665C24.3894 12.7665 24.6574 12.4985 24.6574 12.1635V9.96448C24.6574 7.31473 22.5011 5.16448 19.8574 5.16448H12.9559L13.7843 4.33605C14.0219 4.09849 14.0219 3.72082 13.7843 3.48326C13.5468 3.24569 13.1691 3.24569 12.9315 3.48326L11.0737 5.34113C10.8361 5.57869 10.8361 5.95635 11.0737 6.19392L12.9315 8.05179Z" fill="#FFAB00"/>
<path d="M18.7185 24.0173C18.3348 24.334 18.1094 24.8031 18.1094 25.3086V26.8132C18.1094 27.1482 18.3774 27.4162 18.7124 27.4162C19.0474 27.4162 19.3155 27.1482 19.3155 26.8132V25.3086C19.3155 25.1685 19.3764 25.0406 19.4799 24.9492C20.7957 23.8711 22.215 23.1523 22.4891 23.0183C22.7266 22.9025 22.885 22.6528 22.885 22.3909V20.2711C22.885 20.0701 22.7815 19.8812 22.617 19.7716C22.5073 19.6985 22.4403 19.5767 22.4403 19.4487V17.2498C22.4403 16.4883 23.0556 15.8731 23.817 15.8731H24.2921C25.0535 15.8731 25.6688 16.4883 25.6688 17.2498V19.4487C25.6688 19.5767 25.6018 19.6985 25.4921 19.7716C25.3216 19.8812 25.2241 20.0701 25.2241 20.2711V22.3909C25.2241 22.6589 25.3764 22.9025 25.62 23.0183C25.8941 23.1523 27.3195 23.8711 28.6292 24.9492C28.7327 25.0345 28.7936 25.1685 28.7936 25.3086V26.8132C28.7936 27.1482 29.0617 27.4162 29.3967 27.4162C29.7317 27.4162 29.9997 27.1482 29.9997 26.8132V25.3086C29.9997 24.8091 29.7804 24.334 29.3906 24.0173C28.2393 23.067 27.0028 22.3787 26.4302 22.0802V20.5452C26.7104 20.2528 26.8749 19.8569 26.8749 19.4426V17.2437C26.8749 15.8183 25.7175 14.6609 24.2921 14.6609H23.817C22.3916 14.6609 21.2342 15.8183 21.2342 17.2437V19.4426C21.2342 19.8569 21.3926 20.2528 21.6789 20.5452V22.0802C21.1063 22.3787 19.8698 23.067 18.7185 24.0173Z" fill="#FFAB00"/>
<path d="M8.76548 5.35941V3.16651C8.76548 1.74113 7.60812 0.583771 6.18274 0.583771H5.70761C4.28223 0.583771 3.12487 1.74113 3.12487 3.16651V5.3655C3.12487 5.77971 3.28325 6.17565 3.56954 6.46803V8.00306C2.99086 8.30154 1.76041 8.99595 0.609137 9.94012C0.225381 10.2569 0 10.7259 0 11.2315V12.7361C0 13.0711 0.26802 13.3391 0.603046 13.3391C0.938071 13.3391 1.20609 13.0711 1.20609 12.7361V11.2315C1.20609 11.0914 1.26701 10.9635 1.37056 10.8721C2.68629 9.79392 4.10558 9.07514 4.3797 8.94113C4.61726 8.8254 4.77563 8.57565 4.77563 8.31372V6.19392C4.77563 5.99291 4.67208 5.80408 4.50761 5.69443C4.39797 5.62133 4.33096 5.49951 4.33096 5.37159V3.16651C4.33096 2.40509 4.94619 1.78986 5.70761 1.78986H6.18274C6.94416 1.78986 7.55939 2.40509 7.55939 3.16651V5.3655C7.55939 5.49342 7.49239 5.61524 7.38274 5.68834C7.21218 5.79798 7.11472 5.98682 7.11472 6.18783V8.30763C7.11472 8.57565 7.267 8.8193 7.51066 8.93504C7.78477 9.06905 9.21015 9.78783 10.5198 10.866C10.6234 10.9513 10.6843 11.0853 10.6843 11.2254V12.73C10.6843 13.065 10.9523 13.333 11.2873 13.333C11.6223 13.333 11.8904 13.065 11.8904 12.73V11.2254C11.8904 10.7259 11.6711 10.2569 11.2812 9.93402C10.1299 8.98377 8.8934 8.29545 8.32081 7.99697V6.46194C8.60711 6.16956 8.76548 5.77971 8.76548 5.35941Z" fill="#FFAB00"/>
</svg>
