<svg width="23" height="21" viewBox="0 0 23 21" fill="none" xmlns="http://www.w3.org/2000/svg">
<path d="M4.56292 9.96045C4.30607 9.96045 4.10059 10.1659 4.10059 10.4228V12.1087C4.10059 14.1401 5.75378 15.7887 7.78059 15.7887H13.0437L12.4086 16.4285C12.2265 16.6106 12.2265 16.9001 12.4086 17.0823C12.4973 17.171 12.6188 17.2177 12.7355 17.2177C12.8523 17.2177 12.9737 17.171 13.0624 17.0823L14.4868 15.6579C14.6689 15.4758 14.6689 15.1862 14.4868 15.0041L13.0624 13.5797C12.8803 13.3976 12.5907 13.3976 12.4086 13.5797C12.2265 13.7619 12.2265 14.0514 12.4086 14.2335L13.0437 14.8687H7.78059C6.25815 14.8687 5.02526 13.6311 5.02526 12.1133V10.4275C5.02526 10.1706 4.8151 9.96045 4.56292 9.96045Z" fill="#979797"/>
<path d="M9.91448 5.93967C10.0032 6.02841 10.1246 6.07511 10.2414 6.07511C10.3581 6.07511 10.4796 6.02841 10.5683 5.93967C10.7504 5.75754 10.7504 5.468 10.5683 5.28587L9.93316 4.65074H15.2243C16.7468 4.65074 17.9797 5.8883 17.9797 7.40607V9.09196C17.9797 9.34881 18.1851 9.55429 18.442 9.55429C18.6988 9.55429 18.9043 9.34881 18.9043 9.09196V7.40607C18.9043 5.3746 17.2511 3.72607 15.2243 3.72607H9.93316L10.5683 3.09094C10.7504 2.90881 10.7504 2.61927 10.5683 2.43714C10.3862 2.255 10.0966 2.255 9.91448 2.43714L8.49011 3.8615C8.30798 4.04363 8.30798 4.33318 8.49011 4.51531L9.91448 5.93967Z" fill="#979797"/>
<path d="M14.3508 18.1798C14.0566 18.4226 13.8838 18.7822 13.8838 19.1698V20.3233C13.8838 20.5802 14.0893 20.7857 14.3461 20.7857C14.603 20.7857 14.8085 20.5802 14.8085 20.3233V19.1698C14.8085 19.0624 14.8552 18.9644 14.9346 18.8943C15.9433 18.0677 17.0314 17.5166 17.2416 17.4139C17.4237 17.3252 17.5451 17.1337 17.5451 16.9329V15.3077C17.5451 15.1536 17.4657 15.0088 17.3396 14.9248C17.2556 14.8687 17.2042 14.7753 17.2042 14.6773V12.9914C17.2042 12.4076 17.6759 11.9359 18.2596 11.9359H18.6239C19.2076 11.9359 19.6793 12.4076 19.6793 12.9914V14.6773C19.6793 14.7753 19.628 14.8687 19.5439 14.9248C19.4131 15.0088 19.3384 15.1536 19.3384 15.3077V16.9329C19.3384 17.1384 19.4552 17.3252 19.642 17.4139C19.8521 17.5166 20.9449 18.0677 21.949 18.8943C22.0284 18.9597 22.0751 19.0624 22.0751 19.1698V20.3233C22.0751 20.5802 22.2805 20.7857 22.5374 20.7857C22.7942 20.7857 22.9997 20.5802 22.9997 20.3233V19.1698C22.9997 18.7869 22.8316 18.4226 22.5327 18.1798C21.6501 17.4513 20.7021 16.9235 20.2631 16.6947V15.5179C20.4779 15.2937 20.604 14.9901 20.604 14.6726V12.9867C20.604 11.8939 19.7167 11.0066 18.6239 11.0066H18.2596C17.1668 11.0066 16.2795 11.8939 16.2795 12.9867V14.6726C16.2795 14.9901 16.4009 15.2937 16.6204 15.5179V16.6947C16.1815 16.9235 15.2334 17.4513 14.3508 18.1798Z" fill="#979797"/>
<path d="M6.7202 3.87543V2.19421C6.7202 1.10142 5.83289 0.214111 4.7401 0.214111H4.37584C3.28305 0.214111 2.39574 1.10142 2.39574 2.19421V3.8801C2.39574 4.19766 2.51716 4.50122 2.73665 4.72538V5.90223C2.29299 6.13107 1.34964 6.66345 0.467005 7.38731C0.172792 7.63015 0 7.98975 0 8.37736V9.53086C0 9.78771 0.205482 9.9932 0.462335 9.9932C0.719188 9.9932 0.92467 9.78771 0.92467 9.53086V8.37736C0.92467 8.26995 0.971371 8.17188 1.05076 8.10183C2.05949 7.27523 3.14761 6.72416 3.35777 6.62142C3.5399 6.53269 3.66132 6.34122 3.66132 6.14041V4.51523C3.66132 4.36112 3.58193 4.21634 3.45584 4.13228C3.37178 4.07624 3.32041 3.98284 3.32041 3.88477V2.19421C3.32041 1.61046 3.79208 1.13878 4.37584 1.13878H4.7401C5.32386 1.13878 5.79553 1.61046 5.79553 2.19421V3.8801C5.79553 3.97817 5.74416 4.07157 5.6601 4.12761C5.52934 4.21167 5.45462 4.35645 5.45462 4.51056V6.13574C5.45462 6.34122 5.57137 6.52802 5.75817 6.61675C5.96833 6.71949 7.06112 7.27056 8.06518 8.09716C8.14457 8.16254 8.19127 8.26528 8.19127 8.37269V9.52619C8.19127 9.78304 8.39675 9.98853 8.6536 9.98853C8.91046 9.98853 9.11594 9.78304 9.11594 9.52619V8.37269C9.11594 7.98975 8.94782 7.63015 8.64893 7.38264C7.76629 6.65411 6.81827 6.1264 6.37929 5.89756V4.72071C6.59878 4.49655 6.7202 4.19766 6.7202 3.87543Z" fill="#979797"/>
</svg>
