<svg width="36" height="36" viewBox="0 0 20 34" fill="none" xmlns="http://www.w3.org/2000/svg">
<path d="M7.22668 6.60663C6.60257 6.60663 6.10084 6.04073 6.10084 5.35212C6.10084 4.6635 6.60869 4.09761 7.22668 4.09761C7.85079 4.09761 8.35252 4.6635 8.35252 5.35212C8.35252 6.04073 7.85079 6.60663 7.22668 6.60663ZM18.6625 18.6131C18.326 18.3199 14.8078 13.97 13.8655 13.3564V2.07267C13.8655 0.927246 13.0333 0 12.0054 0H2.44798C1.42003 0 0.587891 0.927246 0.587891 2.07267V21.8244C0.587891 22.9698 1.42003 23.897 2.44798 23.897H5.51345H6.60869L6.42513 22.1516C6.41901 22.1448 6.41289 22.138 6.40066 22.1312H5.67865H4.45491C4.50998 21.8789 4.52833 21.613 4.49774 21.3403C4.39984 20.4812 3.81245 19.7653 3.05985 19.5744C2.74779 19.4926 2.45409 19.5063 2.17875 19.5812V4.19306C2.49081 4.26124 2.83345 4.24079 3.18222 4.09079C3.55546 3.93398 3.86751 3.63399 4.08779 3.26581C4.39984 2.73401 4.44879 2.22266 4.37537 1.75904H10.0841C10.0107 2.21584 10.0596 2.71356 10.3595 3.24536C10.5736 3.62717 10.8918 3.92716 11.265 4.08397C11.6199 4.23397 11.9626 4.25442 12.2807 4.18624V19.1926V23.5016C11.6321 22.9698 10.904 21.3062 10.904 21.3062C10.904 21.3062 10.5491 16.8745 8.53608 16.8745C8.48102 16.8745 8.43207 16.8745 8.377 16.8813C8.377 16.8813 6.85344 17.0245 8.11389 21.8857L8.67681 27.2788C8.67681 27.2788 9.30704 30.2105 11.0448 32.2354V32.8422C11.0448 33.1627 11.2773 33.4286 11.571 33.4286H17.2369C17.5061 33.4286 17.7264 33.2036 17.757 32.9104C17.9589 30.8309 18.7298 23.1675 19.1887 21.8516C19.2744 21.5994 19.3539 21.3471 19.3845 21.0812C19.458 20.3994 19.4396 19.2813 18.6625 18.6131Z" fill="#FFAB00"/>
<path d="M3.99121 16.7143V7.71428H4.96044L9.26429 14.9271V7.71428H10.2335V16.7143H9.26429L4.96044 9.50142V16.7143H3.99121Z" fill="#FFAB00"/>
<rect x="3.07715" y="10.2857" width="8.07692" height="1.28571" fill="#FFAB00"/>
<rect x="3.07715" y="12.8571" width="8.07692" height="1.28571" fill="#FFAB00"/>
</svg>
