<svg width="36" height="36" viewBox="0 0 28 30" fill="none" xmlns="http://www.w3.org/2000/svg">
<path d="M26.0928 7.70073H25.6643V1.88139C25.6643 0.843062 24.8196 0 23.783 0H22.9537L22.8627 0.00698957C16.5664 1.04695 1.89295 5.4245 1.74884 5.46704C0.0253906 5.97058 0.0253906 7.23138 0.0253906 7.98715V9.58226V25.8631V28.1192C0.0253906 29.1554 0.870088 30.0001 1.90678 30.0001H26.0928C27.1307 30.0001 27.9737 29.1554 27.9737 28.1192V23.6187V16.1169V9.58226C27.9737 8.54379 27.1307 7.70073 26.0928 7.70073ZM2.06754 6.54477C2.21342 6.50001 16.7501 2.16246 23 1.1225H23.7828C24.2011 1.1225 24.5423 1.46365 24.5423 1.88139V7.70132H1.90678C1.63582 7.70132 1.38092 7.7614 1.14937 7.86416C1.15116 7.22662 1.20425 6.79654 2.06754 6.54477ZM26.8512 22.4983H19.4688C19.051 22.4983 18.7099 22.1555 18.7099 21.7377V17.9977C18.7099 17.58 19.051 17.2388 19.4688 17.2388H26.8512V22.4983ZM19.4688 16.1169C18.4325 16.1169 17.5878 16.9616 17.5878 17.9979V21.7379C17.5878 22.7758 18.4325 23.6188 19.4688 23.6188H26.8512V28.1194C26.8512 28.5371 26.5117 28.8782 26.0923 28.8782H1.90678C1.48844 28.8782 1.14789 28.5371 1.14789 28.1194V25.8632V9.58226C1.14789 9.16393 1.48904 8.82337 1.90678 8.82337H26.0928C26.5122 8.82337 26.8517 9.16393 26.8517 9.58226V16.1169H19.4688Z" fill="#FFAB00"/>
<path d="M20.6423 20.6652C21.0979 20.6652 21.4672 20.2959 21.4672 19.8403C21.4672 19.3847 21.0979 19.0154 20.6423 19.0154C20.1867 19.0154 19.8174 19.3847 19.8174 19.8403C19.8174 20.2959 20.1867 20.6652 20.6423 20.6652Z" fill="#FFAB00"/>
</svg>
