<svg width="15" height="15" viewBox="0 0 15 15" fill="none" xmlns="http://www.w3.org/2000/svg">
<path d="M13.5464 3.85036H13.3322V0.940693C13.3322 0.421531 12.9098 0 12.3915 0H11.9769L11.9314 0.00349479C8.78322 0.523475 1.44647 2.71225 1.37442 2.73352C0.512695 2.98529 0.512695 3.61569 0.512695 3.99358V4.79113V12.9315V14.0596C0.512695 14.5777 0.935044 15.0001 1.45339 15.0001H13.5464C14.0653 15.0001 14.4869 14.5777 14.4869 14.0596V11.8093V8.05846V4.79113C14.4869 4.27189 14.0653 3.85036 13.5464 3.85036ZM1.53377 3.27239C1.60671 3.25 8.87505 1.08123 12 0.561248H12.3914C12.6006 0.561248 12.7711 0.731823 12.7711 0.940693V3.85066H1.45339C1.31791 3.85066 1.19046 3.8807 1.07469 3.93208C1.07558 3.61331 1.10212 3.39827 1.53377 3.27239ZM13.9256 11.2491H10.2344C10.0255 11.2491 9.85493 11.0777 9.85493 10.8689V8.99885C9.85493 8.78999 10.0255 8.61941 10.2344 8.61941H13.9256V11.2491ZM10.2344 8.05846C9.71626 8.05846 9.29391 8.48081 9.29391 8.99893V10.8689C9.29391 11.3879 9.71626 11.8094 10.2344 11.8094H13.9256V14.0597C13.9256 14.2685 13.7559 14.4391 13.5462 14.4391H1.45339C1.24422 14.4391 1.07394 14.2685 1.07394 14.0597V12.9316V4.79113C1.07394 4.58196 1.24452 4.41169 1.45339 4.41169H13.5464C13.7561 4.41169 13.9258 4.58196 13.9258 4.79113V8.05846H10.2344Z" fill="#979797"/>
<path d="M10.8207 10.3325C11.0485 10.3325 11.2331 10.1478 11.2331 9.92003C11.2331 9.69223 11.0485 9.50757 10.8207 9.50757C10.5929 9.50757 10.4082 9.69223 10.4082 9.92003C10.4082 10.1478 10.5929 10.3325 10.8207 10.3325Z" fill="#979797"/>
</svg>
